<?xml version="1.0" encoding="UTF-8" standalone="no"?>
<!-- Created with Inkscape (http://www.inkscape.org/) -->

<svg
   width="152.26176mm"
   height="152.26176mm"
   viewBox="0 0 152.26176 152.26176"
   version="1.1"
   id="svg5"
   xml:space="preserve"
   xmlns="http://www.w3.org/2000/svg"
   xmlns:svg="http://www.w3.org/2000/svg"><defs
     id="defs2"><radialGradient
       id="a"
       cx="217.75999"
       cy="3290.99"
       r="4271.9199"
       gradientUnits="userSpaceOnUse"><stop
         offset=".09"
         stop-color="#fa8f21"
         id="stop115" /><stop
         offset=".78"
         stop-color="#d82d7e"
         id="stop117" /></radialGradient><radialGradient
       id="b"
       cx="2330.6101"
       cy="3182.95"
       r="3759.3301"
       gradientUnits="userSpaceOnUse"><stop
         offset=".64"
         stop-color="#8c3aaa"
         stop-opacity="0"
         id="stop120" /><stop
         offset="1"
         stop-color="#8c3aaa"
         id="stop122" /></radialGradient></defs><g
     id="layer1"
     transform="translate(-31.527142,-85.624855)"><rect
       style="fill:#ffffff;stroke-width:0.264583;fill-opacity:1"
       id="rect61"
       width="152.26176"
       height="152.26176"
       x="31.527142"
       y="85.624855" /><g
       style="fill:none"
       id="g5859"
       transform="matrix(0.63564504,0,0,0.63564504,42.576722,149.99898)"><path
         fill-rule="evenodd"
         clip-rule="evenodd"
         d="m 198.976,27.5223 -3.389,-4.4073 c 0.056,-0.0689 0.113,-0.1378 0.166,-0.2079 1.46,-1.8777 2.203,-4.2111 2.203,-6.9312 0,-1.4745 -0.248,-2.8953 -0.74,-4.2262 -0.526,-1.4208 -1.317,-2.68853 -2.354,-3.77283 -1.067,-1.11819 -2.393,-1.99218 -3.939,-2.60093 -1.459,-0.57253 -3.107,-0.8623 -4.9,-0.8623 h -8.542 c -1.196,0 -2.293,0.42297 -3.151,1.12637 -1.038,-0.46737 -2.113,-0.84828 -3.215,-1.12637 -1.533,-0.38909 -3.046,-0.58655 -4.499,-0.58655 -1.706,0 -3.309,0.27341 -4.764,0.81206 -1.341,0.49658 -2.524,1.20465 -3.547,2.08448 -0.268,-0.22785 -0.562,-0.43349 -0.884,-0.60525 -1.394,-0.74546 -2.872,-1.31916 -4.395,-1.70474 -1.535,-0.38909 -3.049,-0.58655 -4.5,-0.58655 -1.706,0 -3.309,0.27341 -4.764,0.81206 -0.99,0.36572 -1.89,0.85412 -2.712,1.43249 -0.908,-1.01536 -2.225,-1.658 -3.697,-1.658 l -10.499,0.00234 c -1.484,0 -2.815,0.64964 -3.723,1.6802 -0.91,-1.03056 -2.241,-1.6802 -3.726,-1.6802 h -3.949 c -1.485,0 -2.815,0.64964 -3.726,1.6802 -0.908,-1.03056 -2.24,-1.6802 -3.723,-1.6802 h -5.489 c -1.909,0 -3.5618,1.07612 -4.3919,2.65233 -0.5409,-0.42764 -1.1088,-0.81673 -1.7106,-1.16142 -2.4143,-1.37991 -5.1939,-2.0798 -8.2627,-2.0798 -2.3112,0 -4.4761,0.38675 -6.4302,1.15207 -2.008,0.78519 -3.7655,1.91389 -5.2232,3.35573 -0.3618,0.35637 -0.7025,0.7326 -1.0233,1.1252 C 72.823,3.92242 67.0999,0 60.4624,0 55.1643,0 50.4505,2.50278 47.411,6.37845 46.5012,5.24975 45.1243,4.51364 43.5601,4.51364 H 31.5472 c -2.1485,0 -3.9727,1.36589 -4.6623,3.27277 C 26.1379,7.10639 25.33,6.50932 24.4531,6.00689 22.0376,4.62698 19.258,3.92709 16.1893,3.92709 c -2.3113,0 -4.475,0.38675 -6.42914,1.15207 C 7.75099,5.86435 5.99355,6.99305 4.53585,8.43489 3.06059,9.89192 1.9155,11.6527 1.13221,13.6695 0.380524,15.6044 0,17.7251 0,19.972 c 0,2.2761 0.389891,4.4155 1.15796,6.3585 0.78681,1.9899 1.91668,3.7355 3.35798,5.1879 1.44717,1.4582 3.18704,2.5997 5.17045,3.3908 1.93421,0.7711 4.06631,1.1637 6.33541,1.1637 1.6334,0 3.2257,-0.2103 4.7338,-0.6251 1.5443,-0.4253 2.9938,-1.0586 4.3051,-1.8812 0.6452,-0.4043 1.2505,-0.8623 1.8207,-1.3624 0.6873,1.9116 2.5138,3.281 4.6658,3.281 h 12.0129 c 2.7409,0 4.962,-2.2165 4.962,-4.9495 v -2.0436 c 1.9214,2.8942 4.6248,6.2581 8.4324,10.0579 0.9683,0.9674 2.2387,1.45 3.5079,1.45 1.2703,0 2.5395,-0.4826 3.5078,-1.45 4.5148,-4.5043 7.477,-8.3952 9.423,-11.6177 0.7681,1.7363 1.7937,3.2844 3.0863,4.5861 1.4472,1.4582 3.1871,2.5997 5.1693,3.3908 1.9342,0.7711 4.0675,1.1637 6.3366,1.1637 1.6333,0 3.2257,-0.2103 4.7337,-0.6251 1.5444,-0.4253 2.9927,-1.0586 4.3052,-1.8812 1.1955,-0.7501 2.2586,-1.6778 3.1857,-2.7458 0.328,0.4417 0.682,0.8588 1.068,1.2444 2.47,2.4654 5.987,3.7144 10.452,3.7144 3.837,0 6.967,-0.9254 9.333,-2.7458 0.86,1.4652 2.452,2.4514 4.277,2.4514 h 12.013 c 1.145,0 2.194,-0.3891 3.034,-1.0387 2.321,1.0726 4.792,1.6264 7.384,1.6264 1.823,0 3.522,-0.2617 5.051,-0.7793 1.365,-0.4627 2.581,-1.1171 3.64,-1.9314 2.888,1.7923 6.043,2.7107 9.399,2.7107 1.824,0 3.524,-0.2617 5.051,-0.7793 1.064,-0.3611 2.033,-0.8436 2.915,-1.4185 0.906,0.9873 2.206,1.6101 3.654,1.6101 h 5.488 c 0.961,0 1.859,-0.2723 2.619,-0.7443 0.775,0.4791 1.679,0.7443 2.618,0.7443 h 6.834 c 1.888,0 3.614,-1.0703 4.448,-2.7598 0.835,-1.6908 0.637,-3.7075 -0.512,-5.2031 z"
         fill="#cc302e"
         id="path5820" /><path
         fill-rule="evenodd"
         clip-rule="evenodd"
         d="m 60.4627,4.9502 c 6.4385,0 11.6358,5.2088 11.6358,11.634 0,0 0.3888,6.4661 -11.6358,18.4647 C 48.4393,23.0503 48.8292,16.5842 48.8292,16.5842 c 0,-6.4252 5.1974,-11.634 11.6335,-11.634 z m -3.0512,8.5844 c 0,1.6814 1.3663,3.0473 3.0524,3.0473 1.686,0 3.0535,-1.3659 3.0547,-3.0473 0,-1.6907 -1.3676,-3.0519 -3.0547,-3.0519 -1.6861,0 -3.0524,1.3601 -3.0524,3.0519 z"
         fill="#ffffff"
         id="path5822" /><path
         d="m 150.766,17.6802 c -0.448,-0.1484 -0.901,-0.2886 -1.358,-0.4195 -0.458,-0.1297 -0.867,-0.2839 -1.232,-0.4603 -0.364,-0.1776 -0.658,-0.3868 -0.882,-0.6298 -0.223,-0.2419 -0.336,-0.5492 -0.336,-0.9219 0,-0.5398 0.224,-0.9768 0.673,-1.3133 0.447,-0.3354 1.025,-0.5025 1.736,-0.5025 0.559,0 1.137,0.1157 1.735,0.3494 0.599,0.2325 1.196,0.5912 1.793,1.075 l 2.185,-4.2753 c -1.047,-0.5585 -2.139,-0.98267 -3.277,-1.27127 -1.14,-0.2886 -2.232,-0.43349 -3.276,-0.43349 -1.121,0 -2.134,0.16826 -3.039,0.50359 -0.905,0.33534 -1.672,0.80617 -2.297,1.41027 -0.625,0.6064 -1.11,1.3332 -1.455,2.1803 -0.346,0.8483 -0.518,1.7936 -0.518,2.837 0,1.0434 0.163,1.9045 0.491,2.5845 0.325,0.6801 0.755,1.2432 1.286,1.6907 0.533,0.4464 1.14,0.8063 1.821,1.0762 0.682,0.2699 1.377,0.5164 2.087,0.7408 0.597,0.2044 1.106,0.3902 1.525,0.5585 0.42,0.167 0.761,0.3493 1.022,0.5444 0.263,0.1963 0.449,0.4102 0.56,0.6427 0.112,0.2337 0.169,0.5083 0.169,0.8249 0,0.5211 -0.219,0.9873 -0.658,1.3974 -0.44,0.4102 -1.107,0.6146 -2.003,0.6146 -0.783,0 -1.577,-0.1776 -2.38,-0.5304 -0.803,-0.3541 -1.616,-0.8951 -2.436,-1.6218 l -2.351,4.4155 c 2.276,1.5844 4.75,2.3754 7.419,2.3754 1.288,0 2.44,-0.1729 3.459,-0.5165 1.017,-0.3446 1.876,-0.8284 2.577,-1.4535 0.699,-0.6239 1.23,-1.374 1.595,-2.2492 0.365,-0.8752 0.546,-1.8543 0.546,-2.9351 0,-1.6019 -0.416,-2.9012 -1.247,-3.8979 -0.831,-0.9966 -2.141,-1.7935 -3.934,-2.3894 z"
         fill="#ffffff"
         id="path5824" /><path
         d="m 16.1895,22.9901 h 4.5089 c -0.0936,0.6146 -0.2716,1.1369 -0.5327,1.5645 -0.2611,0.4288 -0.5924,0.7782 -0.994,1.0481 -0.4016,0.2699 -0.8536,0.4662 -1.3582,0.5866 -0.5035,0.1215 -1.0268,0.1822 -1.5678,0.1822 -0.9144,0 -1.7176,-0.1542 -2.4084,-0.4615 -0.6908,-0.3073 -1.2704,-0.7408 -1.7364,-1.2993 -0.4671,-0.5585 -0.816,-1.2198 -1.0502,-1.984 -0.233,-0.7641 -0.3489,-1.5926 -0.3489,-2.4864 0,-0.9885 0.1346,-1.8823 0.4051,-2.6839 0.2705,-0.8004 0.644,-1.4851 1.1205,-2.0541 0.4754,-0.5667 1.0502,-1.0048 1.7211,-1.3133 0.6733,-0.3073 1.4191,-0.4604 2.241,-0.4604 0.9894,0 1.871,0.2513 2.6461,0.7537 0.774,0.5036 1.4039,1.332 1.8909,2.4876 l 5.208,-2.1523 C 24.9638,12.7254 23.6478,11.2532 21.9864,10.3033 20.3249,9.35336 18.3919,8.87781 16.1895,8.87781 c -1.6989,0 -3.2397,0.26991 -4.6201,0.80972 -1.3816,0.54097 -2.563,1.29577 -3.543,2.26437 -0.98,0.9687 -1.73636,2.1371 -2.26792,3.5065 -0.53274,1.3694 -0.79852,2.8743 -0.79852,4.5136 0,1.658 0.27046,3.1712 0.81257,4.5417 0.54093,1.3683 1.29729,2.5425 2.26792,3.5205 0.97063,0.978 2.13325,1.7375 3.48675,2.2773 1.3535,0.541 2.851,0.8109 4.4937,0.8109 1.1943,0 2.3347,-0.1496 3.4165,-0.4475 1.0831,-0.298 2.0771,-0.7315 2.9834,-1.2993 0.905,-0.5679 1.6942,-1.276 2.3651,-2.1242 0.6732,-0.8472 1.2048,-1.8205 1.597,-2.9199 0.2798,-0.7829 0.466,-1.63 0.5597,-2.5425 0.0936,-0.9138 0.1405,-1.9291 0.1405,-3.0461 H 16.1895 Z"
         fill="#ffffff"
         id="path5826" /><path
         d="m 31.5471,30.5352 h 12.0128 v -4.6387 h -6.5251 v -3.6338 h 6.161 V 17.624 h -6.161 v -3.5205 h 6.5251 V 9.46488 H 31.5471 Z"
         fill="#ffffff"
         id="path5828" /><path
         d="M 92.6607,22.9901 H 88.153 v -4.2472 h 10.8935 c 0,1.117 -0.048,2.1323 -0.1405,3.0461 -0.0937,0.9125 -0.2798,1.7596 -0.5597,2.5425 -0.3922,1.0994 -0.9238,2.0727 -1.597,2.9199 -0.672,0.8482 -1.4612,1.5563 -2.3663,2.1242 -0.905,0.5678 -1.8991,1.0013 -2.9821,1.2993 -1.083,0.2979 -2.2223,0.4475 -3.4165,0.4475 -1.6427,0 -3.1414,-0.2699 -4.4937,-0.8109 -1.3547,-0.5398 -2.5162,-1.2993 -3.4868,-2.2773 -0.9718,-0.978 -1.727,-2.1522 -2.2679,-3.5205 -0.5421,-1.3705 -0.8126,-2.8837 -0.8126,-4.5417 0,-1.6393 0.2658,-3.1442 0.7985,-4.5136 0.5316,-1.3694 1.288,-2.5378 2.268,-3.5065 0.98,-0.9686 2.1613,-1.7234 3.5418,-2.26437 1.3816,-0.53981 2.9224,-0.80972 4.6213,-0.80972 2.2023,0 4.1342,0.47555 5.7968,1.42549 1.6615,0.9499 2.9775,2.4221 3.9481,4.4143 L 92.69,16.8699 c -0.4871,-1.1556 -1.117,-1.984 -1.8909,-2.4876 -0.7751,-0.5024 -1.6568,-0.7537 -2.6461,-0.7537 -0.822,0 -1.5678,0.1531 -2.241,0.4604 -0.6721,0.3085 -1.2458,0.7466 -1.7212,1.3133 -0.4765,0.569 -0.85,1.2537 -1.1205,2.0541 -0.2704,0.8016 -0.4062,1.6954 -0.4062,2.6839 0,0.8938 0.1171,1.7223 0.3501,2.4864 0.2329,0.7642 0.583,1.4255 1.0502,1.984 0.466,0.5585 1.0456,0.992 1.7364,1.2993 0.6907,0.3073 1.4928,0.4615 2.4084,0.4615 0.5409,0 1.0643,-0.0607 1.5677,-0.1822 0.5035,-0.1204 0.9566,-0.3167 1.3582,-0.5866 0.4016,-0.2699 0.7318,-0.6193 0.9941,-1.0481 0.2611,-0.4276 0.439,-0.9499 0.5315,-1.5645 z"
         fill="#ffffff"
         id="path5830" /><path
         d="m 115.456,20.6287 c 0,0.6146 -0.025,1.2432 -0.071,1.8858 -0.046,0.6438 -0.192,1.2257 -0.434,1.7468 -0.243,0.5223 -0.611,0.9453 -1.105,1.2713 -0.495,0.3271 -1.2,0.4895 -2.116,0.4895 -0.914,0 -1.623,-0.1624 -2.127,-0.4895 -0.505,-0.326 -0.873,-0.749 -1.106,-1.2713 -0.235,-0.5211 -0.374,-1.103 -0.421,-1.7468 -0.047,-0.6426 -0.069,-1.2712 -0.069,-1.8858 V 9.17106 h -5.489 V 21.3835 c 0,3.2786 0.756,5.6715 2.269,7.1811 1.512,1.5085 3.826,2.2633 6.943,2.2633 3.118,0 5.429,-0.7548 6.932,-2.2633 1.502,-1.5096 2.253,-3.9025 2.253,-7.1811 V 9.17106 h -5.459 z"
         fill="#ffffff"
         id="path5832" /><path
         d="M 137.353,30.5352 H 125.34 V 9.46488 h 12.013 v 4.63862 h -6.525 v 3.5205 h 6.161 v 4.6387 h -6.161 v 3.6338 h 6.525 z"
         fill="#ffffff"
         id="path5834" /><path
         d="m 167.498,17.2607 c 0.456,0.1309 0.911,0.2711 1.359,0.4195 1.792,0.5959 3.103,1.3928 3.933,2.3894 0.831,0.9967 1.247,2.296 1.247,3.8979 0,1.0808 -0.182,2.0599 -0.546,2.9351 -0.365,0.8752 -0.897,1.6253 -1.596,2.2492 -0.701,0.6251 -1.559,1.1089 -2.577,1.4535 -1.017,0.3436 -2.169,0.5165 -3.458,0.5165 -2.67,0 -5.143,-0.791 -7.42,-2.3754 l 2.351,-4.4155 c 0.822,0.7267 1.635,1.2677 2.437,1.6218 0.802,0.3528 1.597,0.5304 2.381,0.5304 0.895,0 1.563,-0.2044 2.002,-0.6146 0.438,-0.4101 0.657,-0.8763 0.657,-1.3974 0,-0.3166 -0.056,-0.5912 -0.167,-0.8249 -0.113,-0.2325 -0.299,-0.4464 -0.561,-0.6427 -0.261,-0.1951 -0.602,-0.3774 -1.022,-0.5444 -0.419,-0.1683 -0.929,-0.3541 -1.526,-0.5585 -0.709,-0.2244 -1.405,-0.4709 -2.086,-0.7408 -0.682,-0.2699 -1.289,-0.6298 -1.821,-1.0762 -0.531,-0.4475 -0.961,-1.0106 -1.287,-1.6907 -0.328,-0.68 -0.49,-1.5411 -0.49,-2.5845 0,-1.0434 0.172,-1.9887 0.517,-2.837 0.346,-0.8471 0.83,-1.5739 1.457,-2.1803 0.624,-0.6041 1.391,-1.07493 2.296,-1.41027 0.906,-0.33533 1.919,-0.50359 3.038,-0.50359 1.046,0 2.138,0.14489 3.276,0.43349 1.138,0.2886 2.232,0.71277 3.277,1.27127 l -2.184,4.2753 c -0.598,-0.4838 -1.195,-0.8425 -1.793,-1.075 -0.597,-0.2337 -1.176,-0.3494 -1.735,-0.3494 -0.711,0 -1.289,0.1671 -1.738,0.5025 -0.448,0.3365 -0.671,0.7735 -0.671,1.3133 0,0.3727 0.113,0.68 0.335,0.9219 0.226,0.243 0.52,0.4522 0.883,0.6298 0.365,0.1764 0.774,0.3306 1.232,0.4603 z"
         fill="#ffffff"
         id="path5836" /><path
         fill-rule="evenodd"
         clip-rule="evenodd"
         d="m 188.403,21.9 c 1.512,-0.354 2.655,-1.0293 3.43,-2.026 0.775,-0.9967 1.162,-2.296 1.162,-3.8991 0,-0.8938 -0.146,-1.7316 -0.434,-2.5144 -0.29,-0.7829 -0.72,-1.4711 -1.289,-2.0681 -0.569,-0.5959 -1.292,-1.0656 -2.169,-1.41034 -0.877,-0.34468 -1.905,-0.51761 -3.081,-0.51761 h -8.541 V 30.5347 h 5.488 v -8.1042 l 5.237,8.1042 h 6.834 z m -1.905,-3.6887 c -0.579,0.4475 -1.409,0.6707 -2.492,0.6707 h -1.037 v -5.1984 h 1.037 c 1.083,0 1.913,0.2244 2.492,0.6707 0.578,0.4475 0.868,1.0902 0.868,1.9291 0,0.8378 -0.29,1.4804 -0.868,1.9279 z"
         fill="#ffffff"
         id="path5838" /><path
         d="M 207.546,3.766 C 207.546,1.68 205.852,0 203.766,0 201.68,0 200,1.68 200,3.766 c 0,2.086 1.68,3.752 3.766,3.752 2.086,0 3.78,-1.666 3.78,-3.752 z m -0.574,0 c 0,1.764 -1.442,3.178 -3.206,3.178 -1.764,0 -3.178,-1.414 -3.178,-3.178 0,-1.764 1.414,-3.206001 3.178,-3.206001 1.764,0 3.206,1.442001 3.206,3.206001 z m -1.442,2.142 c 0,-0.042 -0.014,-0.098 -0.028,-0.126 l -1.078,-1.75 c 0.588,-0.168 0.938,-0.546 0.938,-1.26 V 2.716 c 0,-1.064 -0.672,-1.414 -1.834,-1.414 -0.308,0 -0.854,0.014 -1.064,0.042 -0.168,0.014 -0.252,0.126 -0.252,0.308 V 5.88 c 0,0.098 0.07,0.21 0.182,0.21 h 0.35 c 0.112,0 0.196,-0.112 0.196,-0.21 V 4.144 h 0.56 l 0.168,0.042 1.134,1.792 c 0.028,0.056 0.098,0.112 0.168,0.112 h 0.392 c 0.126,0 0.168,-0.084 0.168,-0.182 z m -0.868,-3.136 c 0,0.56 -0.308,0.77 -1.092,0.77 -0.112,0 -0.49,-0.014 -0.644,-0.014 V 1.96 c 0.042,0 0.112,0 0.196,0 0.154,0 0.336,0 0.448,0 0.77,0 1.092,0.196 1.092,0.756 z"
         fill="#ffffff"
         id="path5840" /></g></g><style
     id="style1208">
		.eye, .bubble {
			fill: #fff;
		}
		.eyeball {
			fill: #00f;
		}
		.tailfin, .sidefin {
			fill: #baba23;
		}
		.fishbody {
			fill: #8f8f22;
		}
		.lips {
 			fill: #d1d138;
		}
		.text {
			fill: #fff;

		}
	</style></svg>
