<?xml version="1.0" encoding="UTF-8" standalone="no"?>
<!-- Created with Inkscape (http://www.inkscape.org/) -->

<svg
   width="152.26176mm"
   height="152.26176mm"
   viewBox="0 0 152.26176 152.26176"
   version="1.1"
   id="svg5"
   xml:space="preserve"
   xmlns="http://www.w3.org/2000/svg"
   xmlns:svg="http://www.w3.org/2000/svg"><defs
     id="defs2"><radialGradient
       id="a"
       cx="217.75999"
       cy="3290.99"
       r="4271.9199"
       gradientUnits="userSpaceOnUse"><stop
         offset=".09"
         stop-color="#fa8f21"
         id="stop115" /><stop
         offset=".78"
         stop-color="#d82d7e"
         id="stop117" /></radialGradient><radialGradient
       id="b"
       cx="2330.6101"
       cy="3182.95"
       r="3759.3301"
       gradientUnits="userSpaceOnUse"><stop
         offset=".64"
         stop-color="#8c3aaa"
         stop-opacity="0"
         id="stop120" /><stop
         offset="1"
         stop-color="#8c3aaa"
         id="stop122" /></radialGradient></defs><g
     id="layer1"
     transform="translate(-31.527142,-85.624855)"><rect
       style="fill:#ff2449;stroke-width:0.264583;fill-opacity:1"
       id="rect61"
       width="152.26176"
       height="152.26176"
       x="31.527142"
       y="85.624855" /><g
       id="g8075"
       transform="matrix(0.15922645,0,0,0.15922645,46.08636,143.83256)"
       style="fill:#ffffff"><path
         d="M 253.95,174.12 V 70.95 h 34.81 V 174.12 Z M 271.564,62.56 q -8.808,0 -13.63,-4.404 -4.614,-4.403 -4.614,-11.743 0,-6.92 4.613,-11.743 4.823,-4.823 13.63,-4.823 8.808,0 13.422,4.823 4.823,4.823 4.823,11.743 0,7.34 -4.823,11.743 -4.613,4.404 -13.42,4.404 z M 340.7,176.22 q -15.1,0 -22.86,-7.97 -7.548,-8.177 -7.548,-22.647 v -48.86 h -13.84 V 70.948 h 13.84 V 45.784 h 34.81 V 70.95 h 22.65 V 96.74 H 345.1 v 43.828 q 0,4.824 1.888,6.92 2.097,1.888 6.29,1.888 5.663,0 12.373,-5.033 l 7.97,22.858 q -6.08,4.2 -13.84,6.71 -7.76,2.31 -19.08,2.31 z m 85.62,0 q -23.907,0 -37.747,-13.63 -13.63,-13.632 -13.63,-39.635 0,-18.873 7.758,-31.665 7.97,-13.21 19.93,-17.825 12.58,-4.823 23.28,-4.823 13.42,0 22.44,5.452 9.02,5.243 13.21,11.534 4.41,6.29 6.29,9.856 l -24.11,15.518 q -3.35,-6.92 -7.34,-10.905 -3.98,-3.984 -9.64,-3.984 -7.97,0 -12.58,6.29 -4.61,6.292 -4.61,19.084 0,13.84 5.45,20.34 5.45,6.502 15.52,6.502 7.97,0 13.21,-2.94 5.45,-2.94 10.278,-7.55 l 11.115,26 q -5.034,4.19 -14.89,8.39 -9.856,3.98 -23.906,3.98 z m 50.65,-2.1 V 34.04 h 35.02 v 42.57 q 4.403,-3.146 10.694,-5.452 6.29,-2.517 15.1,-2.517 18.453,0 27.47,10.49 9.227,10.49 9.227,29.57 v 65.43 h -35.02 v -61.24 q 0,-8.8 -3.35,-12.79 -3.35,-4.19 -8.81,-4.19 -4.61,0 -8.6,2.1 -3.98,2.1 -6.71,4.41 v 71.72 h -35.02 z m 124.4,2.1 q -8.39,0 -13.212,-4.823 -4.823,-4.823 -4.823,-12.372 0,-7.55 4.823,-12.582 4.823,-5.033 13.21,-5.033 7.97,0 12.793,5.033 4.83,5.033 4.83,12.582 0,7.55 -4.82,12.372 -4.61,4.823 -12.79,4.823 z m 25.75,-2.1 V 70.95 h 34.81 V 174.12 Z M 644.73,62.58 q -8.81,0 -13.632,-4.404 -4.613,-4.404 -4.613,-11.743 0,-6.92 4.613,-11.743 4.823,-4.823 13.63,-4.823 8.808,0 13.422,4.823 4.823,4.823 4.823,11.743 0,7.34 -4.823,11.743 -4.613,4.404 -13.42,4.404 z m 78.67,113.64 q -12.164,0 -21.6,-3.984 -9.437,-4.194 -16.147,-11.324 -6.5,-7.34 -10.066,-17.196 -3.355,-10.066 -3.355,-21.81 0,-17.404 7.55,-30.406 7.758,-12.792 19.292,-17.825 11.743,-5.033 24.325,-5.033 18.03,0 29.77,8.388 11.95,8.388 16.78,20.97 4.82,12.582 4.82,23.906 0,11.743 -3.57,21.81 -3.35,9.855 -10.07,17.195 -6.5,7.13 -16.15,11.33 -9.436,3.99 -21.6,3.99 z m 0,-26.842 q 8.807,0 12.79,-7.34 3.985,-7.55 3.985,-20.13 0,-11.954 -4.194,-19.084 -4.19,-7.13 -12.58,-7.13 -8.18,0 -12.37,7.13 -4.19,7.13 -4.19,19.083 0,12.582 3.99,20.13 4.2,7.34 12.58,7.34 z"
         id="path8063"
         style="fill:#ffffff" /><path
         d="M 28.832,1.228 C 19.188,6.954 0.186,28.785 0.004,34.51 v 9.478 c 0,12.014 11.23,22.572 21.424,22.572 12.24,0 22.44,-10.146 22.442,-22.187 0,12.04 9.85,22.187 22.093,22.187 12.242,0 21.776,-10.146 21.776,-22.187 0,12.04 10.47,22.187 22.71,22.187 h 0.22 c 12.24,0 22.72,-10.146 22.72,-22.187 0,12.04 9.53,22.187 21.77,22.187 12.24,0 22.09,-10.146 22.09,-22.187 0,12.04 10.2,22.187 22.44,22.187 10.19,0 21.42,-10.557 21.42,-22.572 V 34.51 c -0.19,-5.725 -19.19,-27.556 -28.83,-33.282 -29.97,-1.053 -50.76,-1.234 -81.73,-1.23 C 79.59,0 37.36,0.483 28.83,1.228 Z m 58.753,59.674 a 25.26,25.26 0 0 1 -4.308,5.546 25.588,25.588 0 0 1 -17.94,7.32 c -6.985,0 -13.356,-2.8 -17.976,-7.322 -1.67,-1.64 -2.94,-3.394 -4.11,-5.436 v 0.004 c -1.16,2.046 -2.79,3.798 -4.46,5.44 a 25.664,25.664 0 0 1 -17.97,7.317 c -0.84,0 -1.71,-0.23 -2.42,-0.47 -0.98,10.25 -1.4,20.04 -1.544,27.19 v 0.04 c -0.02,3.63 -0.035,6.61 -0.054,10.75 0.19,21.51 -2.13,69.7 9.48,81.54 17.99,4.2 51.094,6.11 84.31,6.12 h 0.003 c 33.214,-0.01 66.32,-1.92 84.31,-6.11 11.61,-11.842 9.29,-60.032 9.48,-81.535 -0.017,-4.14 -0.034,-7.122 -0.053,-10.75 v -0.04 c -0.15,-7.142 -0.565,-16.935 -1.55,-27.183 -0.71,0.24 -1.587,0.473 -2.43,0.473 A 25.68,25.68 0 0 1 182.378,66.48 c -1.675,-1.645 -3.3,-3.397 -4.463,-5.44 l -0.005,-0.007 c -1.167,2.04 -2.438,3.797 -4.113,5.436 -4.62,4.52 -10.99,7.32 -17.973,7.32 -6.983,0 -13.32,-2.8 -17.94,-7.32 a 25.428,25.428 0 0 1 -4.31,-5.546 25.185,25.185 0 0 1 -4.266,5.546 25.673,25.673 0 0 1 -17.98,7.32 c -0.244,0 -0.49,-0.01 -0.73,-0.02 h -0.008 c -0.243,0.01 -0.486,0.02 -0.73,0.02 -6.986,0 -13.357,-2.8 -17.978,-7.32 a 25.16,25.16 0 0 1 -4.27,-5.544 z m -18.462,23.873 -0.002,0.008 h 0.02 c 7.31,0.016 13.81,0 21.85,8.783 6.34,-0.663 12.95,-0.996 19.58,-0.985 h 0.01 c 6.63,-0.01 13.24,0.33 19.58,0.99 8.05,-8.78 14.54,-8.76 21.85,-8.78 h 0.02 v -0.01 c 3.46,0 17.27,0 26.9,27.04 l 10.348,37.1 c 7.665,27.6 -2.453,28.28 -15.073,28.3 -18.72,-0.69 -29.08,-14.29 -29.08,-27.88 -10.36,1.7 -22.45,2.55 -34.535,2.55 h -0.005 c -12.086,0 -24.172,-0.85 -34.53,-2.55 0,13.59 -10.36,27.18 -29.078,27.88 -12.62,-0.02 -22.74,-0.7 -15.073,-28.29 l 10.34,-37.1 c 9.63,-27.04 23.45,-27.04 26.9,-27.04 z m 41.44,21.25 v 0.007 c -0.017,0.017 -19.702,18.096 -23.24,24.526 l 12.89,-0.516 v 11.24 c 0,0.527 5.174,0.313 10.35,0.074 h 0.007 c 5.177,0.24 10.35,0.453 10.35,-0.073 v -11.24 l 12.89,0.514 c -3.538,-6.43 -23.24,-24.525 -23.24,-24.525 v -0.006 l -0.002,0.002 z"
         id="path8065"
         style="fill:#ffffff" /></g></g><style
     id="style1208">
		.eye, .bubble {
			fill: #fff;
		}
		.eyeball {
			fill: #00f;
		}
		.tailfin, .sidefin {
			fill: #baba23;
		}
		.fishbody {
			fill: #8f8f22;
		}
		.lips {
 			fill: #d1d138;
		}
		.text {
			fill: #fff;

		}
	</style></svg>
