<?xml version="1.0" encoding="UTF-8" standalone="no"?>
<!-- Created with Inkscape (http://www.inkscape.org/) -->

<svg
   width="152.26176mm"
   height="152.26176mm"
   viewBox="0 0 152.26176 152.26176"
   version="1.1"
   id="svg5"
   xml:space="preserve"
   xmlns="http://www.w3.org/2000/svg"
   xmlns:svg="http://www.w3.org/2000/svg"><defs
     id="defs2"><radialGradient
       id="a"
       cx="217.75999"
       cy="3290.99"
       r="4271.9199"
       gradientUnits="userSpaceOnUse"><stop
         offset=".09"
         stop-color="#fa8f21"
         id="stop115" /><stop
         offset=".78"
         stop-color="#d82d7e"
         id="stop117" /></radialGradient><radialGradient
       id="b"
       cx="2330.6101"
       cy="3182.95"
       r="3759.3301"
       gradientUnits="userSpaceOnUse"><stop
         offset=".64"
         stop-color="#8c3aaa"
         stop-opacity="0"
         id="stop120" /><stop
         offset="1"
         stop-color="#8c3aaa"
         id="stop122" /></radialGradient></defs><g
     id="layer1"
     transform="translate(-31.527142,-85.624855)"><rect
       style="fill:#4f6fb0;stroke-width:0.264583;fill-opacity:1"
       id="rect61"
       width="152.26176"
       height="152.26176"
       x="31.527142"
       y="85.624855" /><g
       id="g385"
       transform="matrix(0.70341639,0,0,0.70341639,40.295113,140.16941)"><path
         d="m 86.645789,12.588211 v 14.595704 c 0,1.546212 -0.14948,2.692601 -0.566407,3.49414 -0.400469,0.775829 -1.104357,1.195313 -1.914062,1.195313 -0.501463,0 -0.94442,-0.116288 -1.291016,-0.423829 l -0.0039,-0.0039 -0.0039,-0.0059 c -0.419159,-0.388411 -0.725099,-0.912986 -0.898438,-1.53125 -0.134805,-0.480849 -0.163472,-1.216966 -0.195312,-1.96875 l -5.021485,0.828125 c 0.141333,1.569444 0.401973,2.978744 0.904297,4.052734 0.573364,1.194959 1.367134,2.088494 2.416016,2.714844 1.024577,0.611836 2.547339,0.949219 4.548828,0.949219 1.866434,0 3.350553,-0.490257 4.492187,-1.431641 1.177256,-0.963551 1.924631,-2.09886 2.294922,-3.4375 v -0.0039 c 0.385064,-1.361108 0.597657,-3.449782 0.597657,-6.220703 V 12.588211 Z m 35.216791,0 0.002,23.460938 h 5.36914 v -9.115234 h 3.87695 c 2.45176,0 4.19638,-0.678285 5.30664,-1.945313 1.13481,-1.285363 1.70508,-3.045019 1.70508,-5.414063 0,-2.308291 -0.5261,-3.989409 -1.55664,-5.179687 l -0.002,-0.002 c -1.01241,-1.178924 -2.57244,-1.804688 -4.76367,-1.804688 z m 51.21094,0 v 23.460938 h 4.83398 v -4.304688 l 2.69141,-3.203125 3.12109,7.507813 h 5.26368 l -5.3418,-11.103516 4.71484,-5.589844 h -5.59179 l -4.85743,6.828126 V 12.588211 Z m -56.00977,0.347657 -4.72265,2.9375 v 3.482421 h -2.07031 v 3.873047 h 2.07031 v 6.81836 c 0,1.94915 0.16721,3.342189 0.43164,4.101562 l 0.002,0.002 c 0.28648,0.783614 0.6995,1.334128 1.27539,1.712891 0.54481,0.358323 1.51542,0.587891 2.875,0.587891 1.04386,0 2.19236,-0.195497 3.39258,-0.484375 l -0.31445,-3.56836 c -0.486,0.15632 -0.98196,0.328125 -1.33985,0.328125 -0.56283,0 -1.08963,-0.289049 -1.35742,-0.841797 -0.22373,-0.459799 -0.24219,-0.992391 -0.24219,-1.787109 v -6.867188 h 3.0918 v -3.875 h -3.0918 z m 10.16993,3.542968 H 129.47 c 1.22555,0 2.14536,0.25359 2.71289,0.972657 0.49834,0.631409 0.76172,1.448582 0.76172,2.341796 0,0.930215 -0.31184,1.771124 -0.88672,2.376954 l -0.002,0.002 h -0.002 c -0.62819,0.647638 -1.5749,0.886719 -2.83203,0.886719 h -1.53321 -0.45507 z m -25.58594,2.47461 c -2.500217,4.38e-4 -4.391737,0.819024 -5.767577,2.425781 -1.374979,1.617045 -2.05664,3.693189 -2.05664,6.357422 0,1.870099 0.342968,3.460817 1.021484,4.818359 l 0.002,0.0039 c 0.697902,1.36499 1.554702,2.3377 2.585932,2.958984 h 0.002 c 1.01974,0.603275 2.48085,0.933594 4.378901,0.933594 2.19262,0 3.84298,-0.387666 4.93555,-1.091797 0.92225,-0.603582 1.71844,-1.620417 2.4375,-2.908203 l -4.54101,-0.509766 c -0.30071,0.422418 -0.59378,0.812803 -0.90625,1.03125 l -0.004,0.002 -0.004,0.002 c -0.55916,0.377191 -1.1673,0.570313 -1.79492,0.570313 -0.98206,0 -1.84412,-0.46309 -2.464841,-1.341797 -3.3e-4,-5e-4 3.1e-4,-0.0035 0,-0.0039 -0.47362,-0.658016 -0.73445,-1.58483 -0.8418,-2.746094 l -0.05664,-0.613281 h 11.314451 v -0.21875 c 0,-1.686189 -0.17271,-3.112619 -0.49804,-4.291016 h -0.0254 v -0.0957 c -0.10966,-0.382848 -0.23434,-0.739588 -0.37696,-1.06836 -0.5945,-1.370478 -1.44336,-2.39837 -2.58203,-3.121093 -1.11895,-0.71021 -2.70507,-1.093494 -4.75586,-1.09375 z m 64.83203,0 c -1.09432,0 -1.99189,0.246098 -2.71289,0.708984 h -0.002 l -0.002,0.002 c -0.72482,0.455218 -1.47418,1.242557 -2.22851,2.384766 l -0.8086,1.220703 v -3.914063 h -4.32226 v 16.69336 h 4.70898 v -7.994141 c 0,-1.678015 0.19316,-2.912961 0.73828,-3.71875 0.49895,-0.737536 1.21061,-1.138672 2.00586,-1.138672 0.7106,0 1.34522,0.298689 1.77539,0.890625 h 0.002 c 0.46018,0.623323 0.62304,1.545058 0.62304,2.726563 v 9.234375 h 4.73828 V 25.289383 c 0,-2.261891 -0.42788,-3.834423 -1.20117,-4.8125 v -0.002 l -0.002,-0.002 c -0.78198,-1.009473 -1.84812,-1.519531 -3.3125,-1.519531 z m -26.80078,0.402343 V 30.13118 c 0,2.249709 0.41955,3.824245 1.18555,4.814453 l 0.002,0.002 c 0.79127,0.998345 1.85907,1.503907 3.3125,1.503907 1.10516,0 2.00429,-0.23997 2.71484,-0.691407 h 0.002 v -0.002 c 0.72481,-0.455217 1.3299,-0.783626 2.22851,-1.565122 l 0.80859,-0.934086 v 2.790224 h 4.33594 v -16.69336 h -4.70898 v 8.009766 c 0,1.678309 -0.19827,2.917699 -0.75391,3.722656 v 0.002 c -0.49774,0.732934 -1.20631,1.132812 -1.99219,1.132812 -0.7112,0 -1.34519,-0.29573 -1.77539,-0.888672 -0.45846,-0.631914 -0.62304,-1.55912 -0.62304,-2.74414 v -9.234376 z m -37.79688,2.533204 c 0.86462,0 1.62633,0.340926 2.1836,1.017578 0.58906,0.70367 0.89744,1.7763 1.01367,3.164062 l 0.0527,0.607422 h -6.541007 l 0.05273,-0.607422 c 0.09726,-1.121965 0.32355,-2.019398 0.74024,-2.675781 0.60664,-0.974791 1.487347,-1.505859 2.498037,-1.505859 z"
         class="text"
         id="path1222" /><path
         class="tailfin"
         d="m 8.294596,30.903656 c 2.843574,2.400479 6.14127,6.152604 6.499121,10.155724 0.37136,4.154242 -1.595066,7.946805 -4.768223,11.568265 3.276383,-0.188874 9.190386,-4.546087 11.925388,-5.833589 -0.07913,-4.392702 -0.944763,-5.389184 0.699056,-9.531403 C 19.441455,34.56512 14.22678,30.761475 8.294596,30.903656 Z"
         id="path1062"
         style="fill:#baba23;stroke-width:1" /><path
         class="fishbody"
         d="m 67.962084,50.177033 c 1.095985,0.621642 2.339066,1.645125 2.241069,2.849559 -0.08902,1.094069 -1.238455,1.829011 -2.427379,2.225318 -0.331426,1.319565 -0.812094,2.221003 -1.799907,2.468693 -1.083559,0.2717 -2.736159,-0.798445 -3.018485,-1.456036 1.971895,-1.894737 4.480383,-3.129254 5.004702,-6.087534 z"
         id="path1064"
         style="fill:#8f8f22;stroke-width:1" /><path
         d="m 40.286252,20.762061 -5.312863,3.383086 -4.549243,3.114519 c -6.852325,3.196456 -10.152954,8.067262 -10.328597,14.698978 -0.269349,10.169747 9.979664,18.994777 23.887319,18.994777 6.995009,0 14.872039,-0.174353 20.172959,-4.584297 C 68.09568,53.09148 70.383496,47.447893 70.233402,42.248052 70.072767,36.683024 65.93493,30.582671 59.199924,26.935099 l -4.680196,-2.253618 -7.671889,-3.091019 z"
         class="lips"
         id="path1066"
         style="fill:#d1d138;stroke-width:1" /><path
         class="sidefin"
         d="m 52.229012,56.627891 c 0.366859,2.236429 -0.719625,4.792923 -2.330501,6.387062 C 48.485906,64.41288 46.263923,64.999952 44.27655,65 c -1.987648,4.8e-5 -4.199376,-0.597781 -5.622837,-1.985047 -1.556882,-1.517293 -2.648922,-3.941674 -2.328747,-6.091918 0.636065,-4.271725 4.044292,-8.747893 7.951584,-10.229479 4.067375,1.458992 7.265829,5.748519 7.952462,9.934335 z"
         id="path1068"
         style="fill:#baba23;stroke-width:1" /><circle
         class="eye"
         cy="45.138134"
         cx="61.273071"
         r="6.1375117"
         id="circle1070"
         style="fill:#ffffff;stroke-width:1" /><circle
         class="eyeball"
         cy="44.173325"
         cx="64.130882"
         r="1.6550252"
         id="circle1072"
         style="fill:#0000ff;stroke-width:1" /><g
         id="g1096"
         transform="matrix(0.66381702,0.05944233,-0.06454101,0.58194654,169.47835,-18.521558)"
         style="stroke-width:1.60099"><path
           style="fill:#0c0808;stroke-width:1.60099"
           d="m -213.0599,111.25796 c 1.29052,-0.86178 2.26249,-2.0475 3.02895,-3.69506 3.08851,-2.3904 3.26685,-8.254184 3.38462,-6.37001 0.0857,1.40631 0.31818,1.85138 1.15701,2.21539 0.40011,0.17364 1.07376,0.36512 1.497,0.42551 0.42324,0.0604 1.66445,0.53623 2.75823,1.0574 2.41103,1.14882 3.46312,1.31493 4.96579,0.78405 0.53308,-0.18833 1.33264,-0.59245 1.7768,-0.89804 l 0.80756,-0.55562 0.59301,0.71391 c 0.32615,0.39264 0.81174,0.82701 1.07907,0.96525 0.84722,0.43812 3.11643,0.30319 4.60721,-0.27394 0.23513,-0.091 0.96423,-0.77556 1.62022,-1.52117 l 1.19271,-1.35568 0.51736,0.38633 c 0.7848,0.58603 3.88091,1.20425 6.07509,1.21304 2.0884,0.008 3.10798,-0.3384 4.15795,-1.41417 0.586,-0.6004 1.14326,-1.78283 1.14326,-2.42582 0,-0.25975 0.23886,-0.31067 1.83833,-0.39186 2.42157,-0.122929 4.55245,-0.91772 5.99898,-2.237551 l 0.3985,-0.363598 0.36817,0.512983 c 1.35107,1.882504 2.75899,2.802606 3.94734,2.579666 1.09679,-0.20576 1.95927,-1.730829 1.62938,-2.881119 -0.087,-0.303248 -0.15813,-0.56017 -0.15813,-0.570935 0,-0.01077 0.45389,-0.299733 1.00864,-0.642147 2.46948,-1.524249 4.21716,-4.545932 3.55117,-6.139867 -0.31,-0.741935 -0.89418,-1.152107 -1.81719,-1.27591 -0.73822,-0.09902 -0.83461,-0.278814 -0.44652,-0.832901 0.4134,-0.590204 0.95303,-2.412471 0.95303,-3.218257 0,-0.801824 -0.40258,-1.297643 -1.05361,-1.297643 -0.21952,0 -0.32331,-0.204728 -0.41179,-0.812283 -0.44853,-3.079921 -2.40204,-4.690141 -5.71689,-4.712278 -1.2175,-0.0081 -1.63408,0.06686 -2.5651,0.461757 -0.61135,0.259304 -1.22917,0.508641 -1.37292,0.554079 -0.18778,0.05936 -0.42851,-0.266415 -0.85503,-1.157101 -0.85673,-1.789062 -2.74172,-4.926532 -4.14743,-6.90318 -4.68743,-6.591269 -12.19481,-14.524188 -16.18859,-17.106209 -1.8408,-1.190092 -3.04394,-1.619046 -4.54116,-1.619046 -1.59699,0 -2.54654,0.428742 -3.71415,1.67701 -1.20403,1.287205 -1.74565,2.227099 -4.55558,7.905348 -1.74543,3.527135 -2.95153,5.734428 -3.73439,6.834304 -1.15751,1.626241 -3.74904,4.339965 -6.283,6.579259 -1.47382,1.302429 -2.75747,3.091389 -3.34504,4.66182 -0.1988,0.531327 -0.48684,1.729954 -0.6401,2.663614 -0.23783,1.448844 -0.2488,1.966023 -0.0749,3.529847 0.11206,1.007756 0.35552,2.403008 0.54102,3.10056 0.1855,0.697553 0.33901,1.306755 0.34112,1.353782 0.002,0.04703 -0.82332,0.0855 -1.8343,0.0855 -1.50517,0 -2.03949,0.07324 -2.94968,0.404339 -2.13553,0.776823 -2.66488,1.523981 -1.80433,2.546694 l 0.41877,0.497677 -0.85476,0.651851 c -1.40576,1.072043 -2.51965,2.457442 -3.37149,4.193273 -0.69852,1.423422 -0.80494,1.787432 -0.8595,2.939982 -0.0585,1.23661 -0.035,1.3427 0.39305,1.77075 0.44113,0.44113 0.71129,0.47951 1.62755,0.23125 0.20165,-0.0546 0.27843,0.23862 0.3844,1.46831 0.2085,2.41944 0.72648,3.70747 2.08656,5.18856 1.19257,1.29867 2.01576,1.51798 3.05376,0.81358 l 0.60872,-0.41309 0.55991,0.41309 c 0.90777,0.66973 1.91886,0.57716 3.22536,-0.29528 z m -6.64382,-2.69782 c -0.64152,-1.20361 -1.04727,-2.70308 -1.04727,-3.87018 0,-1.12911 0.51387,-3.12931 1.1832,-4.60548 0.60531,-1.334979 0.5932,-1.285683 0.31578,-1.285683 -0.11609,0 -1.07542,0.861892 -2.13184,1.915313 -1.05642,1.05343 -1.96895,1.86714 -2.02783,1.80826 -0.159,-0.159 0.36139,-1.81856 0.87468,-2.789415 1.19604,-2.26225 3.06249,-3.923893 5.5898,-4.976436 0.82237,-0.342485 1.58529,-0.73124 1.69538,-0.863897 0.34432,-0.414875 -0.19866,-0.734017 -1.44719,-0.850606 -0.62968,-0.0588 -1.14487,-0.165059 -1.14487,-0.236131 0,-0.07107 0.39431,-0.223816 0.87625,-0.33943 1.55191,-0.372299 3.65286,0.05165 4.05938,0.81914 0.20811,0.39289 0.53806,2.563857 0.53101,3.493876 -0.005,0.639549 -0.28572,1.656783 -0.76371,2.76584 -0.11903,0.2762 -0.0824,0.30208 0.27316,0.192909 0.76524,-0.234968 2.71291,-1.643694 3.35369,-2.425678 l 0.63749,-0.77797 0.30065,1.174864 c 0.16536,0.646176 0.30175,1.636583 0.30308,2.200906 0.003,1.342858 -0.17838,2.821618 -0.3464,2.821618 -0.0732,0 -0.33817,-0.61563 -0.58875,-1.36806 -0.25058,-0.75243 -0.52624,-1.368054 -0.61257,-1.368054 -0.0863,0 -0.15696,0.414634 -0.15696,0.921404 0,1.23478 -0.71288,3.62464 -1.58451,5.31191 -0.73137,1.41576 -2.09064,3.02114 -3.01997,3.56677 l -0.52664,0.30919 -0.18313,-0.4802 c -0.10072,-0.26411 -0.25666,-1.44212 -0.34654,-2.61779 -0.22931,-2.99967 -0.28977,-3.31979 -0.58129,-3.07785 -0.24956,0.20711 -1.00909,2.40446 -1.1821,3.41986 -0.0561,0.32919 -0.31239,1.11405 -0.56955,1.74413 l -0.46758,1.1456 -0.37063,-0.34819 c -0.20385,-0.19151 -0.60625,-0.79025 -0.89422,-1.33054 z m 28.23339,-4.46085 c -0.65276,-0.39799 -0.9251,-0.99957 -0.88819,-1.96193 0.0145,-0.37838 0.0192,-0.75738 0.0105,-0.84224 -0.009,-0.0849 -0.45833,0.26471 -0.99914,0.77682 -1.20235,1.13855 -1.90102,1.57141 -3.10917,1.92626 -1.18913,0.34928 -2.05359,0.34644 -2.56019,-0.008 -0.36676,-0.25689 -0.39372,-0.37156 -0.31161,-1.32531 0.0594,-0.68978 0.29878,-1.49703 0.70546,-2.37886 0.33856,-0.734128 0.61413,-1.426706 0.61237,-1.539063 -0.002,-0.112357 -0.64065,0.456641 -1.41977,1.264443 -1.10242,1.14299 -1.6015,1.53173 -2.25036,1.75282 -1.18389,0.40339 -2.5608,0.37722 -2.99495,-0.0569 -0.32839,-0.32839 -0.33042,-0.368 -0.0547,-1.0688 0.4174,-1.061077 1.01888,-1.966379 1.98552,-2.988458 0.46967,-0.496618 0.75777,-0.902937 0.64022,-0.902937 -0.33967,0 -1.8777,0.818367 -2.7725,1.475211 -0.9982,0.732746 -1.35251,0.667271 -1.84014,-0.340049 -0.4247,-0.877301 -0.43391,-1.098163 -0.0824,-1.976569 0.31325,-0.782897 0.65229,-1.038475 1.95208,-1.471557 0.9771,-0.325565 3.26375,-0.435936 4.14691,-0.200162 0.89088,0.237831 0.47143,-0.192769 -0.79946,-0.820727 -1.41246,-0.697912 -1.70476,-1.093581 -1.89707,-2.567941 -0.0945,-0.724299 -0.0506,-0.942355 0.29069,-1.44543 0.22722,-0.334914 0.67554,-0.696578 1.03132,-0.831988 0.57399,-0.218465 0.6941,-0.208066 1.36533,0.11821 0.40479,0.196761 1.21693,0.747795 1.80477,1.224517 0.96071,0.779116 1.06906,0.930837 1.07141,1.500283 0.005,1.11235 0.18636,1.132917 1.23646,0.139904 1.55729,-1.472644 2.2368,-1.728975 4.58402,-1.729251 1.96435,-1.71e-4 1.98309,0.0036 3.33464,0.683797 0.74755,0.376215 1.40772,0.706618 1.46703,0.734227 0.0593,0.02761 0.15538,-0.139196 0.21348,-0.370682 0.17093,-0.681007 1.71785,-2.230023 2.80646,-2.810246 2.08558,-1.1116 4.57702,-1.350062 6.61022,-0.632678 0.65321,0.230476 1.21736,0.38935 1.25365,0.353052 0.0363,-0.0363 -0.0172,-0.221431 -0.11886,-0.411412 -0.10168,-0.18998 -0.18487,-0.424752 -0.18487,-0.521716 0,-0.32455 1.10239,-1.437604 1.98059,-1.999746 1.41001,-0.902561 2.54001,-1.147266 4.90801,-1.062839 l 2.04561,0.07294 -0.61945,-0.496938 c -0.34069,-0.273315 -0.61945,-0.560242 -0.61945,-0.637614 0,-0.07737 0.39673,-0.272448 0.88162,-0.433504 1.02632,-0.340885 2.74698,-0.264115 3.77283,0.168334 0.86372,0.364101 0.89678,0.346256 0.46968,-0.25355 -0.20426,-0.286859 -0.79451,-0.760359 -1.31166,-1.052221 -1.07808,-0.608427 -1.0464,-0.652894 0.75298,-1.056951 2.42816,-0.545254 3.94631,-0.23135 4.98696,1.031148 0.97498,1.182813 1.21163,3.370167 0.53384,4.934222 -0.7814,1.80315 -1.00743,2.468965 -0.8675,2.555447 0.0797,0.04928 0.77671,-0.717159 1.54884,-1.703193 1.90974,-2.438808 2.12789,-2.384973 0.93129,0.229823 -0.45376,0.991541 -0.86003,1.532063 -1.94649,2.589713 -1.4452,1.406872 -1.68617,1.830593 -0.93365,1.641722 1.49797,-0.375967 3.0533,-0.625108 3.61381,-0.578884 0.84007,0.06928 0.92666,0.520622 0.30379,1.583478 -0.724,1.235412 -3.24705,3.32646 -5.09076,4.219115 -0.90235,0.436881 -1.12941,0.383315 -1.71824,-0.405362 -0.31538,-0.422418 -0.31789,-0.478346 -0.0513,-1.144534 0.2957,-0.739015 0.38477,-2.660795 0.1306,-2.817877 -0.0823,-0.05087 -0.19966,0.220286 -0.26079,0.602565 -0.26748,1.672771 -1.78932,3.673112 -3.4235,4.499927 -1.20818,0.611284 -1.80256,0.744237 -4.26119,0.953155 l -2.02438,0.172017 -1.13924,-1.011942 c -0.62659,-0.556567 -1.3609,-1.067423 -1.63181,-1.135234 -0.57016,-0.142717 -0.58801,-0.214537 0.37455,1.507357 0.88256,1.578797 1.02689,2.261958 0.64699,3.062538 -0.75836,1.59811 -3.60245,2.071 -7.54026,1.25372 -2.15628,-0.44753 -2.47738,-0.63411 -2.48222,-1.44239 -0.005,-0.886364 -0.27422,-0.914474 -0.59548,-0.0623 -0.67425,1.7886 -1.79733,2.94674 -3.39191,3.49779 -1.16964,0.4042 -2.1204,0.39534 -2.81178,-0.0262 z m 15.14308,-9.670864 c 0.62927,-0.440764 0.48913,-0.86969 -0.3268,-1.000162 -0.90035,-0.143972 -1.0106,-0.03172 -0.31972,0.325548 0.52379,0.270866 0.53304,0.293843 0.24589,0.611134 -0.35888,0.39656 -0.1273,0.433253 0.40063,0.06348 z m -0.82415,-2.293105 c 0.41931,-0.27817 1.1696,-0.905183 1.66732,-1.393361 0.77546,-0.760594 0.90495,-0.979801 0.90495,-1.531999 0,-0.573387 -0.0552,-0.656518 -0.50054,-0.754339 -0.91658,-0.201315 -2.62847,0.98884 -3.61273,2.511675 -0.37207,0.575666 -0.64638,1.076774 -0.60958,1.113573 0.0368,0.0368 0.77693,-0.475871 1.64475,-1.139265 2.17189,-1.660292 2.43451,-1.646832 0.97752,0.0501 -1.04878,1.221485 -1.38668,1.651136 -1.29775,1.650113 0.035,-3.42e-4 0.40676,-0.228326 0.82606,-0.506496 z m 16.01957,6.355023 c -0.24793,-0.357757 -0.45078,-0.704046 -0.45078,-0.769531 0,-0.06549 0.42324,-0.119064 0.94054,-0.119064 0.92701,0 0.94054,0.0072 0.94054,0.503325 0,0.326264 -0.1337,0.596969 -0.38007,0.769531 -0.51758,0.362527 -0.53785,0.355111 -1.05023,-0.384261 z m -49.96303,-4.05714 c -0.15807,-0.843566 -0.42836,-1.918609 -0.60064,-2.388984 -1.2443,-3.397286 -0.70746,-8.782496 1.23988,-12.437505 0.64352,-1.207843 2.25034,-2.902772 3.72719,-3.931562 1.49117,-1.03876 3.57589,-3.252055 4.6821,-4.97085 0.49706,-0.772307 1.65706,-2.90478 2.57779,-4.738829 4.1545,-8.275577 5.01343,-9.794687 5.89169,-10.42006 1.30451,-0.928892 3.61332,0.03755 6.85623,2.869947 3.12531,2.729687 8.42073,8.19917 11.02994,11.39251 0.37622,0.46044 0.88157,1.073226 1.123,1.361748 1.26551,1.512332 5.3086,7.096142 6.28071,8.674125 l 0.38517,0.625234 -1.15833,0.82656 -1.15833,0.826558 -1.62456,0.011 c -2.8642,0.01937 -4.86571,1.093597 -5.82739,3.127593 -0.26995,0.570947 -0.41653,0.71368 -0.63886,0.622078 -0.15869,-0.06538 -0.78872,-0.237195 -1.40007,-0.381805 -0.90275,-0.21354 -1.32066,-0.22742 -2.22479,-0.07389 -2.2397,0.380319 -4.39282,1.585536 -5.53604,3.098833 -0.63271,0.837521 -0.68113,0.866635 -1.02604,0.616921 -1.51822,-1.099178 -3.26807,-1.599746 -4.67507,-1.33737 -1.17745,0.21957 -2.75386,0.911575 -3.20025,1.404832 -0.17627,0.194782 -0.41285,0.354148 -0.52573,0.354148 -0.22624,0 -1.62284,-1.905625 -1.62284,-2.214332 0,-0.106364 0.15353,-0.494321 0.34117,-0.862128 0.76294,-1.495503 1.19789,-3.436908 1.19789,-5.346828 0,-0.990018 0.0438,-1.16935 0.27419,-1.122889 0.15081,0.03041 0.41676,0.431493 0.59101,0.891296 0.43435,1.146174 0.93536,1.643594 1.65546,1.643594 0.31897,0 0.74804,-0.08955 0.95348,-0.198992 0.74185,-0.39522 4.25895,-3.350824 3.79366,-3.188013 -0.0941,0.03291 -1.0797,0.500636 -2.19032,1.039393 -2.15036,1.043125 -2.73942,1.17188 -3.01402,0.658785 -0.15525,-0.290085 -0.0892,-0.32869 0.69003,-0.403569 2.13447,-0.205095 3.78279,-2.485772 4.85276,-6.714459 0.49585,-1.959672 0.69138,-3.505641 0.44338,-3.505641 -0.10082,0 -0.18331,0.10166 -0.18331,0.225912 0,0.858121 -3.56605,6.844169 -4.48242,7.524276 -0.44328,0.328995 -0.53881,0.334255 -2.16385,0.119173 -3.23982,-0.428807 -4.75697,0.07152 -6.94323,2.289722 -2.9563,2.999497 -4.90777,6.786056 -5.7367,11.131275 -0.4384,2.298064 -0.9168,3.48007 -1.85406,4.580886 -0.35117,0.412462 -0.44489,0.215785 -0.79988,-1.678687 z m 3.75561,-2.004413 c 1.34992,-4.3052 3.30538,-8.074496 5.2808,-10.179148 0.8375,-0.892286 2.21313,-1.91959 2.57047,-1.91959 0.31048,0 -0.0349,2.475643 -0.60838,4.360676 l -0.57226,1.881076 -0.90874,0.04766 c -0.49981,0.02621 -1.21314,0.202944 -1.58517,0.392743 -0.76664,0.391106 -1.61806,1.594923 -1.79495,2.537857 -0.10316,0.549884 0.0834,1.899218 0.35824,2.59091 0.0829,0.208589 -0.22643,0.403851 -1.39613,0.881368 -0.82642,0.337377 -1.55435,0.620802 -1.61761,0.629833 -0.0633,0.009 0.0599,-0.541491 0.27373,-1.223381 z"
           id="path1098" /><path
           style="fill:#f70202;stroke-width:1.60099"
           d="m -210.29498,96.111891 c 0.93726,-1.100816 1.41566,-2.282822 1.85406,-4.580886 0.82893,-4.345219 2.7804,-8.131778 5.7367,-11.131275 2.18626,-2.218206 3.70341,-2.718529 6.94323,-2.289722 1.62504,0.215082 1.72057,0.209822 2.16385,-0.119173 0.91637,-0.680107 4.48242,-6.666155 4.48242,-7.524276 0,-0.124252 0.0825,-0.225912 0.18331,-0.225912 0.38886,0 -0.38079,3.84844 -1.20686,6.034645 -0.5186,1.372477 -1.66095,3.011207 -2.51282,3.604693 -0.47781,0.332887 -1.00041,0.52541 -1.57646,0.580762 -0.77927,0.07488 -0.84528,0.113484 -0.69003,0.403569 0.2746,0.513095 0.86366,0.38434 3.01402,-0.658785 1.11062,-0.538757 2.09626,-1.006483 2.19032,-1.039393 0.46529,-0.162811 -3.05181,2.792793 -3.79366,3.188013 -0.20544,0.109446 -0.63451,0.198992 -0.95348,0.198992 -0.7201,0 -1.22111,-0.49742 -1.65546,-1.643594 -0.17425,-0.459803 -0.4402,-0.860888 -0.59101,-0.891296 -0.2304,-0.04646 -0.27419,0.132871 -0.27419,1.122889 0,1.90992 -0.43495,3.851325 -1.19789,5.346823 -0.18764,0.367807 -0.34117,0.755763 -0.34117,0.862128 0,0.308707 1.3966,2.214332 1.62284,2.214332 0.11288,0 0.34946,-0.159366 0.52573,-0.354148 0.44639,-0.493258 2.0228,-1.185263 3.20025,-1.404832 1.407,-0.262376 3.15685,0.238192 4.67507,1.33737 0.34491,0.249714 0.39333,0.2206 1.02604,-0.616921 1.14322,-1.513297 3.29634,-2.718514 5.53604,-3.098833 0.90413,-0.153529 1.32204,-0.139648 2.22479,0.07389 0.61135,0.14461 1.24138,0.316422 1.40007,0.381805 0.22233,0.0916 0.36891,-0.05113 0.63886,-0.622078 0.96168,-2.033996 2.96319,-3.108218 5.82739,-3.127593 l 1.62456,-0.011 1.15833,-0.826559 1.15833,-0.82656 -0.38517,-0.625233 c -0.97211,-1.577983 -5.0152,-7.161793 -6.28071,-8.674125 -0.24143,-0.288523 -0.74678,-0.901309 -1.123,-1.361748 -3.63012,-4.442805 -10.55461,-11.316155 -13.24581,-13.147988 -2.30224,-1.567085 -3.74634,-1.845474 -4.85075,-0.93512 -0.35546,0.292998 -0.61297,0.566038 -0.57226,0.606755 0.0407,0.04072 -0.0762,0.243472 -0.25984,0.450567 -0.37382,0.4216 -1.41751,2.393925 -4.45232,8.413858 -1.13796,2.257291 -2.47613,4.736053 -2.97371,5.50836 -1.10802,1.719794 -3.19289,3.932785 -4.68306,4.97085 -1.47685,1.02879 -3.08367,2.723719 -3.72719,3.931561 -1.94734,3.655009 -2.48418,9.04022 -1.23988,12.437506 0.17228,0.470375 0.44257,1.545418 0.60064,2.388983 0.35499,1.894473 0.44871,2.09115 0.79988,1.678688 z"
           id="path1100" /><path
           style="fill:#fcfcfc;stroke-width:1.60099"
           d="m -217.97129,109.09327 c 0.25716,-0.63008 0.51347,-1.41494 0.56955,-1.74413 0.17301,-1.0154 0.93254,-3.21275 1.1821,-3.41986 0.29152,-0.24194 0.35198,0.0782 0.58129,3.07785 0.0899,1.17567 0.24582,2.35368 0.34654,2.61779 l 0.18313,0.4802 0.52664,-0.30919 c 0.92933,-0.54563 2.2886,-2.15101 3.01997,-3.56677 0.87163,-1.68727 1.58451,-4.07713 1.58451,-5.31191 0,-0.50677 0.0706,-0.921404 0.15696,-0.921404 0.0863,0 0.36199,0.615624 0.61257,1.368054 0.25058,0.75243 0.51552,1.36806 0.58875,1.36806 0.16802,0 0.34956,-1.47876 0.3464,-2.821618 -0.001,-0.564323 -0.13772,-1.55473 -0.30308,-2.200906 l -0.30065,-1.174864 -0.63749,0.77797 c -0.64078,0.781984 -2.58845,2.19071 -3.35369,2.425678 -0.35555,0.109171 -0.39219,0.08329 -0.27316,-0.192909 0.47799,-1.109057 0.75887,-2.126291 0.76371,-2.76584 0.007,-0.930019 -0.3229,-3.100986 -0.53101,-3.493876 -0.40652,-0.767489 -2.50747,-1.191439 -4.05938,-0.81914 -0.48194,0.115614 -0.87625,0.268358 -0.87625,0.33943 0,0.07107 0.51519,0.177331 1.14487,0.236131 1.24853,0.116589 1.79151,0.435731 1.44719,0.850606 -0.11009,0.132657 -0.87301,0.521412 -1.69538,0.863897 -2.52731,1.052543 -4.39376,2.714186 -5.5898,4.976436 -0.51329,0.970855 -1.03368,2.630415 -0.87468,2.789415 0.0589,0.0589 0.97141,-0.75483 2.02783,-1.80826 1.05642,-1.053421 2.01575,-1.915313 2.13184,-1.915313 0.27742,0 0.28953,-0.0493 -0.31578,1.285683 -0.66933,1.47617 -1.1832,3.47637 -1.1832,4.60548 0,1.67185 0.98025,4.29768 1.94149,5.20072 l 0.37063,0.34819 z m 29.31274,-4.96779 c 1.59458,-0.55105 2.71766,-1.70919 3.39191,-3.49779 0.32126,-0.852219 0.59018,-0.824109 0.59548,0.0623 0.005,0.80828 0.32594,0.99486 2.48222,1.44239 3.93781,0.81728 6.7819,0.34439 7.54026,-1.25372 0.3799,-0.80058 0.23557,-1.483736 -0.64699,-3.062533 -0.96256,-1.721894 -0.94471,-1.650074 -0.37455,-1.507357 0.27091,0.06781 1.00522,0.578667 1.63181,1.135234 l 1.13924,1.011942 2.02438,-0.172017 c 2.45863,-0.208918 3.05301,-0.341871 4.26119,-0.953155 1.63418,-0.826815 3.15602,-2.827156 3.4235,-4.499927 0.0611,-0.382279 0.17849,-0.653433 0.26079,-0.602565 0.25417,0.157082 0.1651,2.078862 -0.1306,2.817877 -0.26655,0.666188 -0.26404,0.722116 0.0513,1.144534 0.58883,0.788677 0.81589,0.842243 1.71824,0.405362 1.84371,-0.892655 4.36676,-2.983703 5.09076,-4.219115 0.62287,-1.062856 0.53628,-1.514194 -0.30379,-1.583478 -0.56051,-0.04622 -2.11584,0.202917 -3.61381,0.578884 -0.75252,0.188871 -0.51155,-0.23485 0.93365,-1.641722 1.08646,-1.05765 1.49273,-1.598172 1.94649,-2.589713 1.1966,-2.614796 0.97845,-2.668631 -0.93129,-0.229823 -0.77213,0.986034 -1.4691,1.752472 -1.54884,1.703193 -0.13993,-0.08648 0.0861,-0.752297 0.8675,-2.555447 0.67779,-1.564055 0.44114,-3.751409 -0.53384,-4.934222 -1.04065,-1.262498 -2.5588,-1.576402 -4.98696,-1.031148 -1.79938,0.404057 -1.83106,0.448524 -0.75298,1.056951 0.51715,0.291862 1.1074,0.765362 1.31166,1.052221 0.4271,0.599806 0.39404,0.617651 -0.46968,0.25355 -1.02585,-0.432449 -2.74651,-0.509219 -3.77283,-0.168334 -0.48489,0.161056 -0.88162,0.356132 -0.88162,0.433504 0,0.07737 0.27876,0.364299 0.61945,0.637614 l 0.61945,0.496938 -2.04561,-0.07294 c -2.368,-0.08443 -3.498,0.160278 -4.90801,1.062839 -0.8782,0.562142 -1.98059,1.675196 -1.98059,1.999746 0,0.09696 0.0832,0.331736 0.18487,0.521716 0.10167,0.189981 0.15516,0.375116 0.11886,0.411412 -0.0363,0.0363 -0.60044,-0.122576 -1.25365,-0.353052 -2.0332,-0.717384 -4.52464,-0.478922 -6.61022,0.632678 -1.08861,0.580223 -2.63553,2.129239 -2.80646,2.810246 -0.0581,0.231486 -0.15416,0.398293 -0.21348,0.370682 -0.0593,-0.02761 -0.71948,-0.358012 -1.46703,-0.734227 -1.35155,-0.680183 -1.37029,-0.684026 -3.33464,-0.683797 -2.34722,3.43e-4 -3.02673,0.256607 -4.58402,1.729251 -1.0501,0.993013 -1.23186,0.972446 -1.23646,-0.139904 -0.002,-0.569446 -0.1107,-0.721167 -1.07141,-1.500283 -0.58784,-0.476722 -1.39998,-1.027756 -1.80477,-1.224517 -0.67123,-0.326276 -0.79134,-0.336675 -1.36533,-0.11821 -0.35578,0.13541 -0.8041,0.497074 -1.03132,0.831988 -0.34132,0.503075 -0.38517,0.721131 -0.29069,1.44543 0.19231,1.47436 0.48461,1.870029 1.89707,2.567941 1.27089,0.627958 1.69034,1.058558 0.79946,0.820727 -0.88316,-0.235774 -3.16981,-0.125403 -4.14691,0.200162 -1.29979,0.433082 -1.63883,0.68866 -1.95208,1.471557 -0.35147,0.878406 -0.34226,1.099268 0.0824,1.976569 0.48763,1.00732 0.84194,1.072795 1.84014,0.340049 0.8948,-0.656844 2.43283,-1.475211 2.7725,-1.475211 0.11755,0 -0.17055,0.406319 -0.64023,0.902931 -0.96664,1.02208 -1.56812,1.927381 -1.98552,2.988459 -0.27567,0.7008 -0.27364,0.74041 0.0547,1.06879 0.43415,0.43415 1.81107,0.46032 2.99495,0.0569 0.64886,-0.22109 1.14795,-0.60982 2.25036,-1.75282 0.77912,-0.807792 1.41802,-1.37679 1.41978,-1.264433 0.002,0.112357 -0.27381,0.804934 -0.61238,1.539053 -0.40668,0.88184 -0.64607,1.68908 -0.70545,2.37887 -0.0821,0.95374 -0.0551,1.06842 0.3116,1.3253 0.5066,0.35484 1.37107,0.35768 2.5602,0.008 1.20814,-0.35486 1.90681,-0.78772 3.10916,-1.92626 0.54081,-0.51211 0.99043,-0.86168 0.99915,-0.77683 0.009,0.0849 0.004,0.46387 -0.0105,0.84224 -0.0754,1.96462 1.42894,2.77293 3.69997,1.98812 z m 11.93067,-9.760534 c 0.28715,-0.317291 0.2779,-0.340268 -0.24589,-0.611134 -0.69088,-0.357264 -0.58063,-0.46952 0.31972,-0.325548 0.81593,0.130472 0.95607,0.559398 0.3268,1.000162 -0.52793,0.369773 -0.75951,0.33308 -0.40063,-0.06348 z m -1.08432,-2.021659 c 0.12593,-0.164594 0.63555,-0.772807 1.13249,-1.351583 1.45699,-1.696931 1.19437,-1.710391 -0.97752,-0.0501 -0.86782,0.663394 -1.60795,1.176064 -1.64475,1.139265 -0.0368,-0.0368 0.23751,-0.537907 0.60958,-1.113573 0.98426,-1.522835 2.69615,-2.71299 3.61273,-2.511675 0.44538,0.09782 0.50054,0.180952 0.50054,0.754339 0,0.552198 -0.12949,0.771405 -0.90495,1.531999 -0.76091,0.746325 -2.27146,1.897306 -2.49338,1.899857 -0.035,3.42e-4 0.0393,-0.133936 0.16526,-0.29853 z m 17.7306,6.531318 c 0.24637,-0.172562 0.38007,-0.443267 0.38007,-0.769531 0,-0.496086 -0.0135,-0.503325 -0.94054,-0.503325 -0.5173,0 -0.94054,0.05358 -0.94054,0.119064 0,0.178023 0.88447,1.419998 1.01125,1.419998 0.0603,0 0.28073,-0.119794 0.48976,-0.266206 z"
           id="path1102" /></g></g></g><style
     id="style1208">
		.eye, .bubble {
			fill: #fff;
		}
		.eyeball {
			fill: #00f;
		}
		.tailfin, .sidefin {
			fill: #baba23;
		}
		.fishbody {
			fill: #8f8f22;
		}
		.lips {
 			fill: #d1d138;
		}
		.text {
			fill: #fff;

		}
	</style></svg>
