<?xml version="1.0" encoding="UTF-8" standalone="no"?>
<!-- Created with Inkscape (http://www.inkscape.org/) -->

<svg
   width="72.886581mm"
   height="72.886581mm"
   viewBox="0 0 72.886581 72.886581"
   version="1.1"
   id="svg1"
   xml:space="preserve"
   inkscape:version="1.3 (0e150ed6c4, 2023-07-21)"
   sodipodi:docname="nealfun.svg"
   xmlns:inkscape="http://www.inkscape.org/namespaces/inkscape"
   xmlns:sodipodi="http://sodipodi.sourceforge.net/DTD/sodipodi-0.dtd"
   xmlns="http://www.w3.org/2000/svg"
   xmlns:svg="http://www.w3.org/2000/svg"><sodipodi:namedview
     id="namedview1"
     pagecolor="#ffffff"
     bordercolor="#000000"
     borderopacity="0.25"
     inkscape:showpageshadow="2"
     inkscape:pageopacity="0.0"
     inkscape:pagecheckerboard="0"
     inkscape:deskcolor="#d1d1d1"
     inkscape:document-units="mm"
     inkscape:zoom="1.8696268"
     inkscape:cx="109.38012"
     inkscape:cy="165.27362"
     inkscape:window-width="1920"
     inkscape:window-height="948"
     inkscape:window-x="0"
     inkscape:window-y="0"
     inkscape:window-maximized="1"
     inkscape:current-layer="layer1" /><defs
     id="defs1" /><g
     inkscape:label="Layer 1"
     inkscape:groupmode="layer"
     id="layer1"
     transform="translate(-43.727882,-59.157024)"><rect
       style="fill:#ffffff;stroke-width:1.2;stroke-linecap:round;stroke-miterlimit:11.1;stroke:none"
       id="rect1"
       width="72.886581"
       height="72.886581"
       x="43.727882"
       y="59.157024" /><g
       style="clip-rule:evenodd;fill-rule:evenodd;stroke-linejoin:round;stroke-miterlimit:2"
       id="g1"
       transform="matrix(0.32759717,0,0,0.32759717,57.092792,89.987366)"><g
         transform="translate(-322.599,-52.5985)"
         id="g20">&#10;        <g
   transform="scale(1.03258,1.69762)"
   id="g19">&#10;            <g
   transform="matrix(2.13932,0,0,0.628751,-443.791,9.43172)"
   id="g18">&#10;                <g
   transform="matrix(0.752129,0,0,1,87.6626,0)"
   id="g8">&#10;                    <path
   d="m 364.204,65.961 c -0.06,0.031 -0.135,0.046 -0.226,0.046 -0.332,0 -0.588,-0.181 -0.769,-0.543 -0.422,-0.785 -0.694,-1.388 -0.814,-1.81 -1.78,-5.158 -3.439,-10.723 -4.977,-16.695 -0.242,-0.935 -0.438,-1.78 -0.588,-2.534 -0.272,-1.146 -0.543,-2.24 -0.815,-3.28 -0.271,-1.041 -0.482,-1.561 -0.633,-1.561 -0.121,0 -0.181,0.588 -0.181,1.764 -0.061,2.353 -0.091,4.314 -0.091,5.882 0,1.539 0.046,2.971 0.136,4.298 0.03,0.393 0.045,0.996 0.045,1.81 v 2.172 c 0,0.784 0.015,1.704 0.046,2.76 0.03,1.056 0.06,1.855 0.09,2.398 l 0.091,1.764 0.135,2.217 c 0,0.332 -0.03,0.558 -0.09,0.679 -0.061,0.09 -0.144,0.188 -0.249,0.294 -0.106,0.106 -0.189,0.143 -0.249,0.113 -0.302,0 -0.528,-0.136 -0.679,-0.407 -0.09,-0.121 -0.143,-0.271 -0.158,-0.452 -0.015,-0.181 -0.023,-0.317 -0.023,-0.408 -0.331,-3.499 -0.467,-6.289 -0.407,-8.37 0.03,-0.754 0.015,-1.885 -0.045,-3.393 -0.06,-1.086 -0.091,-1.9 -0.091,-2.443 0,-1.267 0.031,-3.137 0.091,-5.611 0.06,-2.835 0.121,-4.962 0.181,-6.379 0.03,-0.603 0.136,-1.508 0.317,-2.715 0.03,-0.121 0.105,-0.234 0.226,-0.339 0.121,-0.106 0.241,-0.189 0.362,-0.249 h 0.136 c 0.331,0 0.558,0.181 0.678,0.543 0.091,0.271 0.166,0.558 0.226,0.86 0.061,0.301 0.136,0.588 0.227,0.859 l 0.678,2.217 c 0.302,0.965 0.634,2.081 0.996,3.348 l 3.393,12.035 1.086,3.891 c 0.543,2.112 1.041,3.725 1.493,4.841 0,-1.055 -0.06,-3.212 -0.181,-6.47 -0.151,-2.805 -0.226,-5.127 -0.226,-6.967 0,-4.253 0.045,-8.506 0.136,-12.759 0,-0.513 0.09,-1.282 0.271,-2.308 0.03,-0.09 0.098,-0.173 0.204,-0.248 0.105,-0.076 0.218,-0.129 0.339,-0.159 h 0.136 c 0.241,0 0.407,0.151 0.497,0.453 0.031,0.241 0.046,0.603 0.046,1.086 0,3.317 -0.015,5.806 -0.046,7.465 0,1.568 -0.015,2.745 -0.045,3.529 l -0.045,3.574 v 12.533 c 0,0.392 -0.03,1.01 -0.091,1.855 0,0.392 -0.181,0.664 -0.543,0.814 z"
   style="fill:none;fill-rule:nonzero;stroke:#000000;stroke-width:0.57px"
   id="path1" />&#10;                    <path
   d="m 372.348,65.961 c -1.719,0 -3.001,-0.015 -3.845,-0.045 -0.543,0 -0.845,-0.271 -0.905,-0.814 -0.03,-0.242 -0.091,-0.867 -0.181,-1.878 -0.091,-1.01 -0.106,-1.968 -0.045,-2.873 0.03,-0.694 0.045,-1.719 0.045,-3.077 v -3.031 c 0,-1.056 -0.03,-2.609 -0.091,-4.66 -0.06,-3.077 -0.09,-5.384 -0.09,-6.923 0,-1.87 0.045,-3.725 0.136,-5.565 0,-0.241 0.06,-0.814 0.181,-1.719 0.211,-0.03 0.46,-0.083 0.746,-0.158 0.287,-0.076 0.535,-0.113 0.747,-0.113 0.331,-0.03 0.814,-0.046 1.447,-0.046 0.664,0 1.162,0.016 1.494,0.046 0.271,0 0.497,0.045 0.678,0.135 0.272,0.212 0.407,0.377 0.407,0.498 -0.06,0.362 -0.181,0.588 -0.362,0.679 -0.301,0.12 -0.754,0.211 -1.357,0.271 L 369,36.643 c -0.12,0.603 -0.181,0.95 -0.181,1.041 0,4.916 0.015,8.611 0.046,11.085 0,0.09 0.03,0.316 0.09,0.678 0.241,0.091 0.603,0.136 1.086,0.136 l 1.357,-0.045 c 0.724,0 1.252,0.03 1.584,0.09 0.121,0.03 0.226,0.098 0.317,0.204 0.09,0.105 0.165,0.234 0.226,0.384 l 0.045,0.091 c 0,0.12 -0.068,0.249 -0.204,0.384 -0.135,0.136 -0.263,0.219 -0.384,0.249 -1.086,0.061 -1.9,0.121 -2.443,0.181 -0.332,0 -0.83,0.03 -1.493,0.091 -0.121,0.362 -0.181,0.573 -0.181,0.633 0.06,5.188 0.12,9.079 0.181,11.673 0,0.061 0.06,0.332 0.181,0.815 l 1.538,0.045 1.945,0.09 c 0.393,0.061 0.634,0.257 0.724,0.589 v 0.045 c 0,0.181 -0.075,0.347 -0.226,0.497 -0.151,0.151 -0.317,0.257 -0.498,0.317 -0.09,0.03 -0.211,0.045 -0.362,0.045 z"
   style="fill:none;fill-rule:nonzero;stroke:#000000;stroke-width:0.57px"
   id="path2" />&#10;                    <path
   d="m 385.727,65.961 c -0.03,0.031 -0.09,0.046 -0.181,0.046 -0.12,0 -0.241,-0.053 -0.361,-0.159 -0.121,-0.105 -0.212,-0.233 -0.272,-0.384 l -0.226,-1.358 -0.136,-1.357 c -0.633,-5.61 -1.101,-9.577 -1.402,-11.899 0,-0.091 -0.023,-0.196 -0.068,-0.317 -0.046,-0.121 -0.083,-0.241 -0.113,-0.362 -1.207,-0.06 -2.097,-0.09 -2.67,-0.09 -0.573,0 -1.463,0.03 -2.669,0.09 -0.181,0.694 -0.287,1.161 -0.317,1.403 -0.181,1.749 -0.302,3.137 -0.362,4.162 l -0.362,4.841 -0.136,2.082 c -0.12,1.146 -0.226,2.005 -0.316,2.578 -0.061,0.362 -0.272,0.574 -0.634,0.634 -0.181,0 -0.339,-0.075 -0.475,-0.226 -0.136,-0.151 -0.203,-0.332 -0.203,-0.543 -0.031,-0.543 -0.031,-1.071 0,-1.584 l 0.226,-2.805 c 0.03,-0.483 0.158,-2.194 0.384,-5.135 0.227,-2.941 0.506,-5.693 0.837,-8.257 0.181,-1.629 0.604,-4.012 1.267,-7.149 0.061,-0.422 0.181,-1.056 0.362,-1.9 0.272,-1.237 0.724,-2.157 1.357,-2.76 0.513,-0.513 0.936,-0.769 1.267,-0.769 0.423,0 0.905,0.301 1.448,0.905 0.241,0.271 0.415,0.565 0.52,0.882 0.106,0.317 0.204,0.731 0.295,1.244 0.392,2.051 0.769,4.494 1.131,7.33 0.422,2.865 0.935,6.651 1.538,11.356 0.271,1.991 0.558,4.404 0.86,7.239 l 0.045,0.679 c 0,0.211 -0.03,0.558 -0.091,1.04 -0.06,0.242 -0.241,0.423 -0.543,0.543 z m -2.94,-17.645 c -0.091,-0.543 -0.196,-1.387 -0.317,-2.534 l -1.041,-7.194 c -0.09,-0.542 -0.188,-0.957 -0.294,-1.244 -0.105,-0.286 -0.309,-0.55 -0.611,-0.792 -0.362,0.242 -0.61,0.513 -0.746,0.815 -0.136,0.302 -0.264,0.739 -0.385,1.312 -0.181,0.694 -0.392,1.765 -0.633,3.212 -0.091,0.423 -0.174,0.935 -0.249,1.539 -0.075,0.603 -0.128,1.07 -0.158,1.402 -0.181,1.508 -0.347,2.655 -0.498,3.439 0.754,0.151 1.674,0.226 2.76,0.226 0.935,0 1.659,-0.06 2.172,-0.181 z"
   style="fill:none;fill-rule:nonzero;stroke:#000000;stroke-width:0.57px"
   id="path3" />&#10;                    <path
   d="m 394.414,65.916 c -0.422,0.06 -1.04,0.091 -1.855,0.091 -1.055,0 -1.96,-0.076 -2.714,-0.227 -0.724,-0.09 -1.131,-0.527 -1.222,-1.312 l -0.09,-0.859 -0.181,-10.452 c -0.061,-7.179 -0.121,-12.517 -0.181,-16.016 0,-0.543 0.015,-0.966 0.045,-1.267 0,-0.151 0.06,-0.377 0.181,-0.679 0.151,-0.362 0.377,-0.482 0.679,-0.362 0.09,0.03 0.188,0.091 0.294,0.181 0.105,0.091 0.158,0.181 0.158,0.272 0.121,0.512 0.181,1.101 0.181,1.764 l 0.045,4.208 c 0,1.87 0.03,4.675 0.091,8.415 l 0.135,3.394 c 0.061,1.448 0.091,2.533 0.091,3.257 0.06,1.81 0.09,3.137 0.09,3.982 l 0.046,1.991 v 1.764 c 0.482,0.211 1.086,0.317 1.809,0.317 l 1.584,-0.045 c 0.181,0 0.392,-0.023 0.633,-0.068 0.242,-0.046 0.438,-0.053 0.589,-0.023 0.12,0.03 0.248,0.098 0.384,0.204 0.136,0.105 0.219,0.218 0.249,0.339 v 0.091 c 0,0.271 -0.09,0.497 -0.271,0.678 -0.181,0.181 -0.438,0.302 -0.77,0.362 z"
   style="fill:none;fill-rule:nonzero;stroke:#000000;stroke-width:0.57px"
   id="path4" />&#10;                    <path
   d="m 398.532,65.645 c -0.332,0 -0.626,-0.121 -0.883,-0.362 -0.256,-0.242 -0.384,-0.543 -0.384,-0.905 0,-0.302 0.105,-0.558 0.317,-0.769 0.211,-0.211 0.467,-0.317 0.769,-0.317 0.331,0 0.618,0.128 0.859,0.385 0.242,0.256 0.362,0.58 0.362,0.972 0,0.272 -0.098,0.506 -0.294,0.702 -0.196,0.196 -0.445,0.294 -0.746,0.294 z"
   style="fill:none;fill-rule:nonzero;stroke:#000000;stroke-width:0.57px"
   id="path5" />&#10;                    <path
   d="m 404.64,66.007 c -0.151,0 -0.287,-0.076 -0.408,-0.227 -0.12,-0.15 -0.181,-0.346 -0.181,-0.588 l -0.09,-1.448 c -0.03,-0.482 -0.06,-1.07 -0.091,-1.764 -0.03,-0.694 -0.045,-1.508 -0.045,-2.443 l 0.045,-5.068 c 0,-1.508 -0.045,-3.212 -0.135,-5.112 -0.03,-0.362 -0.045,-0.966 -0.045,-1.81 l 0.045,-4.072 -0.045,-3.258 c -0.031,-0.724 -0.046,-1.794 -0.046,-3.212 0,-0.543 0.03,-1.267 0.091,-2.172 h 7.013 c 0.301,0 0.528,0.015 0.678,0.045 0.302,0.121 0.453,0.287 0.453,0.498 0,0.121 -0.053,0.264 -0.159,0.43 -0.105,0.166 -0.218,0.264 -0.339,0.294 -0.362,0.091 -0.754,0.136 -1.176,0.136 h -2.624 c -1.599,0 -2.383,0.045 -2.353,0.136 v 3.619 c -0.03,0.754 -0.015,1.9 0.045,3.439 0.03,0.452 0.038,0.874 0.023,1.266 -0.015,0.393 -0.023,0.724 -0.023,0.996 0,0.754 0.03,1.523 0.091,2.307 0.512,0.151 1.063,0.219 1.651,0.204 0.588,-0.015 0.988,-0.023 1.199,-0.023 l 2.986,0.181 c 0.181,0 0.347,0.046 0.498,0.136 0.211,0.272 0.316,0.452 0.316,0.543 0,0.09 -0.03,0.196 -0.09,0.317 -0.06,0.12 -0.136,0.211 -0.226,0.271 -0.332,0.091 -0.679,0.136 -1.041,0.136 l -4.389,-0.045 c -0.211,0 -0.467,0.03 -0.769,0.09 -0.03,0.06 -0.068,0.121 -0.113,0.181 -0.045,0.06 -0.068,0.121 -0.068,0.181 l 0.046,6.018 0.045,0.859 c -0.061,1.267 -0.091,2.202 -0.091,2.805 0,1.267 0.046,2.579 0.136,3.937 0,0.573 -0.015,1.025 -0.045,1.357 -0.061,0.513 -0.287,0.799 -0.679,0.86 z"
   style="fill:none;fill-rule:nonzero;stroke:#000000;stroke-width:0.57px"
   id="path6" />&#10;                    <path
   d="m 417.489,65.237 c -1.568,-1.146 -2.594,-2.714 -3.077,-4.705 -0.362,-1.538 -0.542,-2.911 -0.542,-4.117 l -0.046,-8.054 0.046,-8.053 c 0.03,-1.116 0.15,-2.594 0.361,-4.434 0.061,-0.211 0.181,-0.438 0.362,-0.679 0.091,-0.09 0.257,-0.136 0.498,-0.136 0.121,0 0.234,0.031 0.339,0.091 0.106,0.06 0.174,0.136 0.204,0.226 0.091,0.211 0.106,0.453 0.045,0.724 0,0.211 -0.03,0.649 -0.09,1.312 l -0.136,2.262 v 9.773 c 0,1.538 -0.015,2.685 -0.045,3.439 l -0.045,1.764 c 0,2.082 0.196,3.891 0.588,5.43 0.362,1.508 1.101,2.699 2.217,3.574 0.573,0.483 1.176,0.724 1.81,0.724 0.542,0 1.018,-0.181 1.425,-0.543 0.407,-0.362 0.701,-0.875 0.882,-1.538 0.392,-1.478 0.656,-3.017 0.792,-4.615 0.136,-1.599 0.203,-3.394 0.203,-5.384 0,-1.147 -0.045,-2.504 -0.135,-4.072 l -0.046,-1.584 -0.135,-8.868 c 0,-0.332 -0.015,-0.656 -0.046,-0.973 -0.03,-0.316 -0.045,-0.61 -0.045,-0.882 0.06,-0.422 0.287,-0.633 0.679,-0.633 h 0.09 c 0.211,0 0.377,0.06 0.498,0.181 0.121,0.12 0.196,0.286 0.226,0.497 0.03,0.211 0.038,0.43 0.023,0.656 -0.015,0.227 -0.008,0.46 0.022,0.702 l 0.408,12.849 0.045,1.946 c 0,2.322 -0.151,4.916 -0.453,7.782 -0.12,0.905 -0.331,1.915 -0.633,3.031 -0.271,0.935 -0.769,1.682 -1.493,2.24 -0.724,0.558 -1.523,0.837 -2.398,0.837 -0.875,0 -1.674,-0.257 -2.398,-0.77 z"
   style="fill:none;fill-rule:nonzero;stroke:#000000;stroke-width:0.57px"
   id="path7" />&#10;                    <path
   d="m 437.216,65.961 c -0.061,0.031 -0.136,0.046 -0.227,0.046 -0.331,0 -0.588,-0.181 -0.769,-0.543 -0.422,-0.785 -0.693,-1.388 -0.814,-1.81 -1.78,-5.158 -3.439,-10.723 -4.977,-16.695 -0.241,-0.935 -0.437,-1.78 -0.588,-2.534 -0.272,-1.146 -0.543,-2.24 -0.815,-3.28 -0.271,-1.041 -0.482,-1.561 -0.633,-1.561 -0.121,0 -0.181,0.588 -0.181,1.764 -0.06,2.353 -0.09,4.314 -0.09,5.882 0,1.539 0.045,2.971 0.135,4.298 0.03,0.393 0.046,0.996 0.046,1.81 v 2.172 c 0,0.784 0.015,1.704 0.045,2.76 0.03,1.056 0.06,1.855 0.09,2.398 l 0.091,1.764 0.135,2.217 c 0,0.332 -0.03,0.558 -0.09,0.679 -0.06,0.09 -0.143,0.188 -0.249,0.294 -0.105,0.106 -0.188,0.143 -0.249,0.113 -0.301,0 -0.528,-0.136 -0.678,-0.407 -0.091,-0.121 -0.144,-0.271 -0.159,-0.452 -0.015,-0.181 -0.022,-0.317 -0.022,-0.408 -0.332,-3.499 -0.468,-6.289 -0.408,-8.37 0.031,-0.754 0.016,-1.885 -0.045,-3.393 -0.06,-1.086 -0.09,-1.9 -0.09,-2.443 0,-1.267 0.03,-3.137 0.09,-5.611 0.061,-2.835 0.121,-4.962 0.181,-6.379 0.03,-0.603 0.136,-1.508 0.317,-2.715 0.03,-0.121 0.105,-0.234 0.226,-0.339 0.121,-0.106 0.241,-0.189 0.362,-0.249 h 0.136 c 0.332,0 0.558,0.181 0.678,0.543 0.091,0.271 0.166,0.558 0.227,0.86 0.06,0.301 0.135,0.588 0.226,0.859 l 0.679,2.217 c 0.301,0.965 0.633,2.081 0.995,3.348 l 3.393,12.035 1.086,3.891 c 0.543,2.112 1.041,3.725 1.493,4.841 0,-1.055 -0.06,-3.212 -0.181,-6.47 -0.151,-2.805 -0.226,-5.127 -0.226,-6.967 0,-4.253 0.045,-8.506 0.136,-12.759 0,-0.513 0.09,-1.282 0.271,-2.308 0.03,-0.09 0.098,-0.173 0.204,-0.248 0.105,-0.076 0.219,-0.129 0.339,-0.159 h 0.136 c 0.241,0 0.407,0.151 0.498,0.453 0.03,0.241 0.045,0.603 0.045,1.086 0,3.317 -0.015,5.806 -0.045,7.465 0,1.568 -0.015,2.745 -0.046,3.529 l -0.045,3.574 v 12.533 c 0,0.392 -0.03,1.01 -0.09,1.855 0,0.392 -0.181,0.664 -0.543,0.814 z"
   style="fill:none;fill-rule:nonzero;stroke:#000000;stroke-width:0.57px"
   id="path8" />&#10;                </g>&#10;                <g
   transform="matrix(0.752129,0,0,1,87.6626,0)"
   id="g17">&#10;                    <g
   transform="matrix(45.2445,0,0,45.2445,353.662,66.0519)"
   id="g9">&#10;                        <path
   d="M 0.233,-0.002 C 0.232,-0.001 0.23,-0.001 0.228,-0.001 0.221,-0.001 0.215,-0.005 0.211,-0.013 0.202,-0.03 0.196,-0.044 0.193,-0.053 0.154,-0.167 0.117,-0.29 0.083,-0.422 0.078,-0.443 0.073,-0.461 0.07,-0.478 0.064,-0.503 0.058,-0.528 0.052,-0.551 0.046,-0.574 0.041,-0.585 0.038,-0.585 c -0.003,0 -0.004,0.013 -0.004,0.039 -0.001,0.052 -0.002,0.095 -0.002,0.13 0,0.034 0.001,0.066 0.003,0.095 10e-4,0.009 10e-4,0.022 10e-4,0.04 v 0.048 c 0,0.017 0,0.038 0.001,0.061 0.001,0.023 0.001,0.041 0.002,0.053 l 0.002,0.039 0.003,0.049 c 0,0.007 -0.001,0.012 -0.002,0.015 C 0.041,-0.014 0.039,-0.012 0.037,-0.01 0.034,-0.007 0.032,-0.006 0.031,-0.007 0.024,-0.007 0.019,-0.01 0.016,-0.016 0.014,-0.019 0.013,-0.022 0.013,-0.026 0.012,-0.03 0.012,-0.033 0.012,-0.035 0.005,-0.112 0.002,-0.174 0.003,-0.22 0.004,-0.237 0.003,-0.262 0.002,-0.295 0.001,-0.319 0,-0.337 0,-0.349 c 0,-0.028 0.001,-0.069 0.002,-0.124 0.001,-0.063 0.003,-0.11 0.004,-0.141 0.001,-0.013 0.003,-0.033 0.007,-0.06 0.001,-0.003 0.002,-0.005 0.005,-0.008 0.003,-0.002 0.005,-0.004 0.008,-0.005 h 0.003 c 0.007,0 0.012,0.004 0.015,0.012 0.002,0.006 0.004,0.012 0.005,0.019 0.001,0.007 0.003,0.013 0.005,0.019 l 0.015,0.049 c 0.007,0.021 0.014,0.046 0.022,0.074 l 0.075,0.266 0.024,0.086 c 0.012,0.047 0.023,0.082 0.033,0.107 0,-0.023 -0.001,-0.071 -0.004,-0.143 -0.003,-0.062 -0.005,-0.113 -0.005,-0.154 0,-0.094 0.001,-0.188 0.003,-0.282 0,-0.011 0.002,-0.028 0.006,-0.051 0.001,-0.002 0.002,-0.004 0.005,-0.006 0.002,-0.001 0.004,-0.002 0.007,-0.003 h 0.003 c 0.005,0 0.009,0.003 0.011,0.01 0.001,0.005 0.001,0.013 0.001,0.024 0,0.073 0,0.128 -0.001,0.165 0,0.035 0,0.061 -0.001,0.078 l -0.001,0.079 v 0.277 c 0,0.009 -0.001,0.022 -0.002,0.041 0,0.009 -0.004,0.015 -0.012,0.018 z"
   style="fill-rule:nonzero"
   id="path9" />&#10;                    </g>&#10;                    <g
   transform="matrix(45.2445,0,0,45.2445,367.236,66.0519)"
   id="g10">&#10;                        <path
   d="m 0.113,-0.002 c -0.038,0 -0.066,0 -0.085,-0.001 -0.012,0 -0.019,-0.006 -0.02,-0.018 C 0.007,-0.026 0.006,-0.04 0.004,-0.063 0.002,-0.085 0.002,-0.106 0.003,-0.126 0.004,-0.141 0.004,-0.164 0.004,-0.194 V -0.261 C 0.004,-0.284 0.003,-0.319 0.002,-0.364 0.001,-0.432 0,-0.483 0,-0.517 0,-0.558 0.001,-0.599 0.003,-0.64 c 0,-0.005 0.001,-0.018 0.004,-0.038 0.005,-0.001 0.01,-0.002 0.017,-0.004 0.006,-0.001 0.011,-0.002 0.016,-0.002 0.007,-0.001 0.018,-0.001 0.032,-0.001 0.015,0 0.026,0 0.033,0.001 0.006,0 0.011,0.001 0.015,0.003 0.006,0.005 0.009,0.008 0.009,0.011 -0.001,0.008 -0.004,0.013 -0.008,0.015 -0.007,0.003 -0.017,0.005 -0.03,0.006 L 0.039,-0.65 c -0.003,0.013 -0.004,0.021 -0.004,0.023 0,0.109 0,0.19 10e-4,0.245 0,0.002 0.001,0.007 0.002,0.015 0.005,0.002 0.013,0.003 0.024,0.003 l 0.03,-0.001 c 0.016,0 0.028,0.001 0.035,0.002 0.003,0.001 0.005,0.002 0.007,0.004 0.002,0.003 0.004,0.006 0.005,0.009 l 0.001,0.002 c 0,0.003 -0.001,0.005 -0.004,0.008 -0.003,0.003 -0.006,0.005 -0.009,0.006 -0.024,0.001 -0.042,0.003 -0.054,0.004 -0.007,0 -0.018,0.001 -0.033,0.002 -0.003,0.008 -0.004,0.013 -0.004,0.014 0.001,0.115 0.003,0.201 0.004,0.258 0,0.001 0.001,0.007 0.004,0.018 l 0.034,0.001 0.043,0.002 c 0.009,0.001 0.014,0.006 0.016,0.013 v 10e-4 c 0,0.004 -0.002,0.008 -0.005,0.011 -0.003,0.003 -0.007,0.006 -0.011,0.007 -0.002,0.001 -0.005,0.001 -0.008,0.001 z"
   style="fill-rule:nonzero"
   id="path10" />&#10;                    </g>&#10;                    <g
   transform="matrix(45.2445,0,0,45.2445,374.778,66.0519)"
   id="g11">&#10;                        <path
   d="M 0.242,-0.002 C 0.241,-0.001 0.24,-0.001 0.238,-0.001 0.235,-0.001 0.233,-0.002 0.23,-0.005 0.227,-0.007 0.225,-0.01 0.224,-0.013 L 0.219,-0.043 0.216,-0.073 C 0.202,-0.197 0.192,-0.285 0.185,-0.336 c 0,-0.002 0,-0.004 -0.001,-0.007 C 0.183,-0.346 0.182,-0.348 0.181,-0.351 0.154,-0.352 0.135,-0.353 0.122,-0.353 0.109,-0.353 0.09,-0.352 0.063,-0.351 0.059,-0.336 0.057,-0.325 0.056,-0.32 0.052,-0.281 0.049,-0.251 0.048,-0.228 L 0.04,-0.121 0.037,-0.075 C 0.034,-0.05 0.032,-0.031 0.03,-0.018 0.029,-0.01 0.024,-0.005 0.016,-0.004 0.012,-0.004 0.009,-0.006 0.006,-0.009 0.003,-0.012 0.001,-0.016 0.001,-0.021 0,-0.033 0,-0.045 0.001,-0.056 L 0.006,-0.118 C 0.007,-0.129 0.01,-0.167 0.015,-0.232 0.02,-0.297 0.026,-0.357 0.033,-0.414 0.037,-0.45 0.046,-0.503 0.061,-0.572 0.062,-0.581 0.065,-0.595 0.069,-0.614 0.075,-0.641 0.085,-0.662 0.099,-0.675 0.11,-0.686 0.12,-0.692 0.127,-0.692 c 0.009,0 0.02,0.007 0.032,0.02 0.005,0.006 0.009,0.012 0.012,0.019 0.002,0.007 0.004,0.017 0.006,0.028 0.009,0.045 0.017,0.099 0.025,0.162 0.009,0.063 0.021,0.147 0.034,0.251 0.006,0.044 0.012,0.097 0.019,0.16 l 0.001,0.015 c 0,0.005 -0.001,0.012 -0.002,0.023 -0.001,0.005 -0.005,0.009 -0.012,0.012 z M 0.177,-0.392 C 0.175,-0.404 0.173,-0.423 0.17,-0.448 L 0.147,-0.607 C 0.145,-0.619 0.143,-0.628 0.141,-0.635 0.138,-0.641 0.134,-0.647 0.127,-0.652 0.119,-0.647 0.114,-0.641 0.111,-0.634 0.108,-0.627 0.105,-0.618 0.102,-0.605 0.098,-0.59 0.093,-0.566 0.088,-0.534 0.086,-0.525 0.084,-0.513 0.083,-0.5 0.081,-0.487 0.08,-0.476 0.079,-0.469 0.075,-0.436 0.071,-0.41 0.068,-0.393 c 0.017,0.003 0.037,0.005 0.061,0.005 0.021,0 0.037,-0.001 0.048,-0.004 z"
   style="fill-rule:nonzero"
   id="path11" />&#10;                    </g>&#10;                    <g
   transform="matrix(45.2445,0,0,45.2445,388.171,66.0519)"
   id="g12">&#10;                        <path
   d="m 0.138,-0.003 c -0.009,0.001 -0.023,0.002 -0.041,0.002 -0.023,0 -0.043,-0.002 -0.06,-0.005 C 0.021,-0.008 0.012,-0.018 0.01,-0.035 L 0.008,-0.054 0.004,-0.285 C 0.003,-0.444 0.001,-0.562 0,-0.639 0,-0.651 0,-0.66 0.001,-0.667 c 0,-0.003 0.001,-0.008 0.004,-0.015 0.003,-0.008 0.008,-0.011 0.015,-0.008 0.002,0.001 0.004,0.002 0.007,0.004 0.002,0.002 0.003,0.004 0.003,0.006 0.003,0.011 0.004,0.024 0.004,0.039 l 0.001,0.093 c 0,0.041 10e-4,0.103 0.002,0.186 l 0.003,0.075 c 0.001,0.032 0.002,0.056 0.002,0.072 10e-4,0.04 0.002,0.069 0.002,0.088 l 0.001,0.044 v 0.039 c 0.011,0.005 0.024,0.007 0.04,0.007 L 0.12,-0.038 c 0.004,0 0.009,-0.001 0.014,-0.002 0.005,-0.001 0.01,-0.001 0.013,0 0.003,0.001 0.006,0.002 0.009,0.004 0.003,0.003 0.004,0.005 0.005,0.008 v 0.002 c 0,0.006 -0.002,0.011 -0.006,0.015 -0.004,0.004 -0.01,0.007 -0.017,0.008 z"
   style="fill-rule:nonzero"
   id="path12" />&#10;                    </g>&#10;                    <g
   transform="matrix(45.2445,0,0,45.2445,397.265,66.0519)"
   id="g13">&#10;                        <path
   d="M 0.028,-0.009 C 0.021,-0.009 0.014,-0.012 0.009,-0.017 0.003,-0.022 0,-0.029 0,-0.037 c 0,-0.007 0.002,-0.012 0.007,-0.017 0.005,-0.005 0.01,-0.007 0.017,-0.007 0.007,0 0.014,0.003 0.019,0.008 0.005,0.006 0.008,0.013 0.008,0.022 0,0.006 -0.002,0.011 -0.006,0.015 -0.005,0.005 -0.01,0.007 -0.017,0.007 z"
   style="fill-rule:nonzero"
   id="path13" />&#10;                    </g>&#10;                    <g
   transform="matrix(45.2445,0,0,45.2445,403.644,66.0519)"
   id="g14">&#10;                        <path
   d="M 0.022,-0.001 C 0.019,-0.001 0.016,-0.003 0.013,-0.006 0.01,-0.009 0.009,-0.014 0.009,-0.019 L 0.007,-0.051 C 0.006,-0.062 0.006,-0.075 0.005,-0.09 0.004,-0.105 0.004,-0.123 0.004,-0.144 L 0.005,-0.256 C 0.005,-0.289 0.004,-0.327 0.002,-0.369 0.001,-0.377 0.001,-0.39 0.001,-0.409 L 0.002,-0.499 0.001,-0.571 C 0,-0.587 0,-0.611 0,-0.642 0,-0.654 0.001,-0.67 0.002,-0.69 h 0.155 c 0.007,0 0.012,0 0.015,0.001 0.007,0.003 0.01,0.006 0.01,0.011 0,0.003 -0.001,0.006 -0.003,0.009 -0.003,0.004 -0.005,0.006 -0.008,0.007 -0.008,0.002 -0.017,0.003 -0.026,0.003 H 0.087 c -0.035,0 -0.053,0.001 -0.052,0.003 v 0.08 c -0.001,0.017 0,0.042 10e-4,0.076 0.001,0.01 0.001,0.019 0.001,0.028 -0.001,0.009 -0.001,0.016 -0.001,0.022 0,0.017 0.001,0.034 0.002,0.051 0.011,0.003 0.024,0.005 0.037,0.004 0.013,0 0.021,0 0.026,0 l 0.066,0.004 c 0.004,0 0.008,0.001 0.011,0.003 0.005,0.006 0.007,0.01 0.007,0.012 0,0.002 -0.001,0.004 -0.002,0.007 C 0.182,-0.366 0.18,-0.364 0.178,-0.363 0.171,-0.361 0.163,-0.36 0.155,-0.36 L 0.058,-0.361 c -0.005,0 -0.01,0.001 -0.017,0.002 -0.001,0.001 -0.001,0.003 -0.002,0.004 -0.001,0.001 -0.002,0.003 -0.002,0.004 l 0.001,0.133 0.001,0.019 c -0.001,0.028 -0.002,0.049 -0.002,0.062 0,0.028 0.001,0.057 0.003,0.087 0,0.013 0,0.023 -0.001,0.03 -0.001,0.011 -0.006,0.018 -0.015,0.019 z"
   style="fill-rule:nonzero"
   id="path14" />&#10;                    </g>&#10;                    <g
   transform="matrix(45.2445,0,0,45.2445,413.824,66.0519)"
   id="g15">&#10;                        <path
   d="M 0.081,-0.018 C 0.046,-0.043 0.024,-0.078 0.013,-0.122 0.005,-0.156 0.001,-0.186 0.001,-0.213 L 0,-0.391 0.001,-0.569 c 0.001,-0.025 0.003,-0.057 0.008,-0.098 0.001,-0.005 0.004,-0.01 0.008,-0.015 0.002,-0.002 0.006,-0.003 0.011,-0.003 0.003,0 0.005,0.001 0.008,0.002 0.002,0.001 0.003,0.003 0.004,0.005 0.002,0.005 0.002,0.01 0.001,0.016 0,0.005 -0.001,0.014 -0.002,0.029 l -0.003,0.05 v 0.216 c 0,0.034 0,0.059 -10e-4,0.076 l -0.001,0.039 c 0,0.046 0.004,0.086 0.013,0.12 0.008,0.033 0.024,0.06 0.049,0.079 0.013,0.011 0.026,0.016 0.04,0.016 0.012,0 0.023,-0.004 0.032,-0.012 0.009,-0.008 0.015,-0.019 0.019,-0.034 0.009,-0.033 0.015,-0.067 0.018,-0.102 0.003,-0.035 0.004,-0.075 0.004,-0.119 0,-0.025 -0.001,-0.055 -0.003,-0.09 L 0.205,-0.429 0.202,-0.625 c 0,-0.007 0,-0.015 -0.001,-0.022 C 0.2,-0.654 0.2,-0.66 0.2,-0.666 0.201,-0.675 0.206,-0.68 0.215,-0.68 h 0.002 c 0.005,0 0.008,0.001 0.011,0.004 0.003,0.003 0.004,0.006 0.005,0.011 0.001,0.005 0.001,0.009 0.001,0.014 -0.001,0.005 -0.001,0.011 0,0.016 l 0.009,0.284 0.001,0.043 c 0,0.051 -0.003,0.109 -0.01,0.172 -0.003,0.02 -0.007,0.042 -0.014,0.067 -0.006,0.021 -0.017,0.037 -0.033,0.049 -0.016,0.013 -0.034,0.019 -0.053,0.019 -0.019,0 -0.037,-0.006 -0.053,-0.017 z"
   style="fill-rule:nonzero"
   id="path15" />&#10;                    </g>&#10;                    <g
   transform="matrix(45.2445,0,0,45.2445,426.674,66.0519)"
   id="g16">&#10;                        <path
   d="M 0.233,-0.002 C 0.232,-0.001 0.23,-0.001 0.228,-0.001 0.221,-0.001 0.215,-0.005 0.211,-0.013 0.202,-0.03 0.196,-0.044 0.193,-0.053 0.154,-0.167 0.117,-0.29 0.083,-0.422 0.078,-0.443 0.073,-0.461 0.07,-0.478 0.064,-0.503 0.058,-0.528 0.052,-0.551 0.046,-0.574 0.041,-0.585 0.038,-0.585 c -0.003,0 -0.004,0.013 -0.004,0.039 -0.001,0.052 -0.002,0.095 -0.002,0.13 0,0.034 0.001,0.066 0.003,0.095 10e-4,0.009 10e-4,0.022 10e-4,0.04 v 0.048 c 0,0.017 0,0.038 0.001,0.061 0.001,0.023 0.001,0.041 0.002,0.053 l 0.002,0.039 0.003,0.049 c 0,0.007 -0.001,0.012 -0.002,0.015 C 0.041,-0.014 0.039,-0.012 0.037,-0.01 0.034,-0.007 0.032,-0.006 0.031,-0.007 0.024,-0.007 0.019,-0.01 0.016,-0.016 0.014,-0.019 0.013,-0.022 0.013,-0.026 0.012,-0.03 0.012,-0.033 0.012,-0.035 0.005,-0.112 0.002,-0.174 0.003,-0.22 0.004,-0.237 0.003,-0.262 0.002,-0.295 0.001,-0.319 0,-0.337 0,-0.349 c 0,-0.028 0.001,-0.069 0.002,-0.124 0.001,-0.063 0.003,-0.11 0.004,-0.141 0.001,-0.013 0.003,-0.033 0.007,-0.06 0.001,-0.003 0.002,-0.005 0.005,-0.008 0.003,-0.002 0.005,-0.004 0.008,-0.005 h 0.003 c 0.007,0 0.012,0.004 0.015,0.012 0.002,0.006 0.004,0.012 0.005,0.019 0.001,0.007 0.003,0.013 0.005,0.019 l 0.015,0.049 c 0.007,0.021 0.014,0.046 0.022,0.074 l 0.075,0.266 0.024,0.086 c 0.012,0.047 0.023,0.082 0.033,0.107 0,-0.023 -0.001,-0.071 -0.004,-0.143 -0.003,-0.062 -0.005,-0.113 -0.005,-0.154 0,-0.094 0.001,-0.188 0.003,-0.282 0,-0.011 0.002,-0.028 0.006,-0.051 0.001,-0.002 0.002,-0.004 0.005,-0.006 0.002,-0.001 0.004,-0.002 0.007,-0.003 h 0.003 c 0.005,0 0.009,0.003 0.011,0.01 0.001,0.005 0.001,0.013 0.001,0.024 0,0.073 0,0.128 -0.001,0.165 0,0.035 0,0.061 -0.001,0.078 l -0.001,0.079 v 0.277 c 0,0.009 -0.001,0.022 -0.002,0.041 0,0.009 -0.004,0.015 -0.012,0.018 z"
   style="fill-rule:nonzero"
   id="path16" />&#10;                    </g>&#10;                </g>&#10;            </g>&#10;        </g>&#10;    </g></g></g></svg>
