<?xml version="1.0" encoding="UTF-8" standalone="no"?>
<!-- Created with Inkscape (http://www.inkscape.org/) -->

<svg
   width="126.23707mm"
   height="126.23707mm"
   viewBox="0 0 126.23707 126.23707"
   version="1.1"
   id="svg5"
   xmlns="http://www.w3.org/2000/svg"
   xmlns:svg="http://www.w3.org/2000/svg">
  <defs
     id="defs2">
    <rect
       x="31.613212"
       y="97.766959"
       width="413.73986"
       height="84.209352"
       id="rect3617" />
  </defs>
  <g
     id="layer1"
     transform="translate(-32.922523,-42.980961)"><rect
   style="fill:#141d2b;fill-opacity:1;stroke-width:0;stroke:none"
   id="rect846"
   width="126.23707"
   height="126.23707"
   x="32.922523"
   y="42.980961" />

<style
   type="text/css"
   id="style44079">
	.st0{fill:#9FEF00;}
	.st1{fill:#FFFFFF;}
</style>

<path
   class="st0"
   d="m 133.38274,87.297202 c 0,0 0,0 0,0 0,-0.796635 -0.26546,-1.59277 -0.79633,-2.123727 0,0 0,0 0,0 0,0 0,0 -0.26546,-0.26588 0,0 -0.2655,0 -0.2655,-0.265881 0,0 0,0 0,0 L 98.872697,65.793924 c 0,0 -0.26548,0 -0.26548,0 -0.26547,-0.530758 -0.79633,-0.530758 -1.3273,-0.530758 -0.26548,0 -0.53096,0 -0.79634,0.265881 -0.26547,0 -0.26547,0.265881 -0.53095,0.265881 L 63.035329,84.642717 c 0,0 0,0 0,0 0,0 0,0 0,0 0,0 0,0 0,0 -0.530956,0.265881 -0.796335,0.530758 -0.796335,0.530758 0,0 0,0 0,0 -0.530957,0.530756 -0.796336,1.327393 -0.796336,2.123727 0,0 0,0 0,0 0,0 0,0 0,0 v 37.961058 c 0,1.06191 0.530956,2.12373 1.592771,2.65467 l 32.917298,18.84781 c 0,0 0,0 0.26548,0 0,0 0,0 0,0 0.26547,0 0.26547,0.26587 0.53095,0.26587 0,0 0,0 0,0 0.26548,0 0.53096,0 0.53096,0 0.26548,0 0.53096,0 0.53096,0 0,0 0,0 0,0 0.26548,0 0.26548,0 0.53096,-0.26587 0,0 0,0 0,0 0,0 0,0 0.26548,0 l 32.917313,-18.84781 c 1.06182,-0.53074 1.59276,-1.59276 1.59276,-2.65467 l 0.26549,-37.961058 c 0,0 0,0 0,0 z M 74.450165,85.969911 96.748977,73.22773 c 0.53096,-0.265878 1.06185,-0.265878 1.32732,0 l 22.298813,13.007661 c 1.06185,0.265878 1.06185,1.858251 0,2.389111 L 98.076297,101.63215 c -0.53096,0.26588 -1.06186,0.26588 -1.32732,0 L 74.450165,88.624502 c -1.061843,-0.53076 -1.061843,-2.123634 0,-2.654591 z m 19.113272,49.110449 c 0,1.06182 -1.06185,1.85825 -2.1237,1.32729 L 69.140921,123.40001 c -0.530956,-0.26588 -0.796336,-0.79664 -0.796336,-1.06183 V 96.588362 c 0,-1.06182 1.061856,-1.85825 2.1237,-1.32729 l 22.298812,13.007648 c 0.53096,0.26588 0.79634,0.79664 0.79634,1.3273 z m 32.917293,-12.74218 c 0,0.53077 -0.26549,1.06183 -0.79633,1.32729 l -22.29882,13.00767 c -1.06184,0.53075 -2.12369,-0.26587 -2.12369,-1.32729 v -25.74983 c 0,-0.53076 0.26548,-1.06182 0.79634,-1.3273 l 22.29881,-13.007648 c 1.06185,-0.53076 2.12369,0.26587 2.12369,1.32729 z"
   id="path44081"
   style="stroke-width:2.65463" />

<desc
   id="desc44083">Created with Sketch.</desc>


</g>
</svg>
