<?xml version="1.0" encoding="UTF-8" standalone="no"?>
<!-- Created with Inkscape (http://www.inkscape.org/) -->

<svg
   width="91.154739mm"
   height="91.154739mm"
   viewBox="0 0 91.154739 91.154739"
   version="1.1"
   id="svg1"
   xml:space="preserve"
   inkscape:version="1.3 (0e150ed6c4, 2023-07-21)"
   sodipodi:docname="logo.svg"
   xmlns:inkscape="http://www.inkscape.org/namespaces/inkscape"
   xmlns:sodipodi="http://sodipodi.sourceforge.net/DTD/sodipodi-0.dtd"
   xmlns:xlink="http://www.w3.org/1999/xlink"
   xmlns="http://www.w3.org/2000/svg"
   xmlns:svg="http://www.w3.org/2000/svg"><sodipodi:namedview
     id="namedview1"
     pagecolor="#ffffff"
     bordercolor="#000000"
     borderopacity="0.25"
     inkscape:showpageshadow="2"
     inkscape:pageopacity="0.0"
     inkscape:pagecheckerboard="0"
     inkscape:deskcolor="#d1d1d1"
     inkscape:document-units="mm"
     inkscape:zoom="1.4912879"
     inkscape:cx="163.61697"
     inkscape:cy="213.57379"
     inkscape:window-width="1920"
     inkscape:window-height="1043"
     inkscape:window-x="0"
     inkscape:window-y="0"
     inkscape:window-maximized="1"
     inkscape:current-layer="g10" /><defs
     id="defs1"><linearGradient
       id="linearGradient6"
       inkscape:collect="always"><stop
         style="stop-color:#ec4899;stop-opacity:1;"
         offset="0"
         id="stop7" /><stop
         style="stop-color:#ef4444;stop-opacity:1;"
         offset="0.5"
         id="stop10" /><stop
         style="stop-color:#eab308;stop-opacity:1;"
         offset="1"
         id="stop8" /></linearGradient><linearGradient
       inkscape:collect="always"
       xlink:href="#linearGradient6"
       id="linearGradient8"
       x1="32.681198"
       y1="182.45779"
       x2="123.83594"
       y2="91.303047"
       gradientUnits="userSpaceOnUse" /></defs><g
     inkscape:label="Layer 1"
     inkscape:groupmode="layer"
     id="layer1"
     transform="translate(-32.681198,-91.303047)"><rect
       style="fill:url(#linearGradient8);fill-opacity:1;stroke-width:1.2;stroke-linecap:round;stroke-miterlimit:11.1;stroke:none"
       id="rect1"
       width="91.154739"
       height="91.154739"
       x="32.681198"
       y="91.303047" /><g
       style="fill:none"
       id="g10"
       transform="matrix(0.10139449,0,0,0.10139449,32.681745,106.46258)"><path
         fill="transparent"
         d="M 0,0 H 900 V 600 H 0 Z"
         id="path1" /><path
         d="m 206.279,172.22 a 1.689,1.689 0 0 1 0.232,3.363 223.632,223.632 0 0 0 -12.411,2.119 1.686,1.686 0 0 1 -1.981,-1.328 1.693,1.693 0 0 1 1.325,-1.985 230.84,230.84 0 0 1 12.602,-2.155 c 0.078,-0.007 0.155,-0.014 0.233,-0.014 z m -24.873,4.917 a 1.69,1.69 0 0 1 0.409,3.328 251.826,251.826 0 0 0 -12.116,3.384 1.692,1.692 0 0 1 -2.107,-1.116 1.692,1.692 0 0 1 1.114,-2.113 250.8,250.8 0 0 1 12.284,-3.433 c 0.141,-0.029 0.282,-0.05 0.416,-0.05 z m -24.196,7.468 a 1.687,1.687 0 0 1 0.578,3.271 208.3,208.3 0 0 0 -11.65,4.698 1.683,1.683 0 0 1 -2.22,-0.869 1.69,1.69 0 0 1 0.867,-2.226 204.89,204.89 0 0 1 11.84,-4.768 c 0.191,-0.078 0.388,-0.106 0.585,-0.106 z m -23.167,10.194 c 0.607,0 1.199,0.332 1.495,0.912 0.43,0.826 0.105,1.851 -0.719,2.274 a 171.553,171.553 0 0 0 -10.897,6.196 1.674,1.674 0 0 1 -2.318,-0.551 1.687,1.687 0 0 1 0.542,-2.324 172.623,172.623 0 0 1 11.115,-6.323 c 0.254,-0.12 0.522,-0.184 0.782,-0.184 z m -21.475,13.367 c 0.515,0 1.022,0.233 1.353,0.685 a 1.696,1.696 0 0 1 -0.352,2.367 133.342,133.342 0 0 0 -9.67,7.912 1.688,1.688 0 0 1 -2.382,-0.127 1.698,1.698 0 0 1 0.127,-2.388 135.279,135.279 0 0 1 9.916,-8.11 c 0.31,-0.233 0.663,-0.339 1.008,-0.339 z m -18.734,16.948 c 0.402,0 0.804,0.141 1.128,0.438 0.69,0.622 0.747,1.696 0.12,2.388 a 110.91,110.91 0 0 0 -7.795,9.707 1.6896594,1.6896594 0 1 1 -2.75,-1.964 114.144,114.144 0 0 1 8.036,-10.011 1.734,1.734 0 0 1 1.261,-0.558 z M 79.217,245.68 a 1.69,1.69 0 0 1 1.473,2.501 102.788,102.788 0 0 0 -5.272,11.254 1.688,1.688 0 1 1 -3.136,-1.244 105.096,105.096 0 0 1 5.448,-11.628 1.71,1.71 0 0 1 1.487,-0.883 z m -9.304,23.441 a 1.687,1.687 0 0 1 1.628,2.119 112.323,112.323 0 0 0 -2.495,12.187 1.679,1.679 0 0 1 -1.917,1.42 1.691,1.691 0 0 1 -1.423,-1.922 115.5,115.5 0 0 1 2.572,-12.561 1.709,1.709 0 0 1 1.635,-1.243 z m -3.89,24.967 h 0.12 c 0.93,0.063 1.628,0.869 1.564,1.801 a 142.42,142.42 0 0 0 -0.338,9.693 c 0,0.947 0.007,1.893 0.028,2.812 a 1.688,1.688 0 0 1 -1.65,1.724 1.687,1.687 0 0 1 -1.719,-1.654 C 64.007,307.518 64,306.543 64,305.575 c 0,-3.222 0.12,-6.556 0.345,-9.926 a 1.69,1.69 0 0 1 1.678,-1.561 z m 0.634,25.285 c 0.832,0 1.558,0.621 1.67,1.469 0.557,4.232 1.368,8.336 2.41,12.194 0.24,0.904 -0.288,1.83 -1.183,2.07 a 1.686,1.686 0 0 1 -2.065,-1.194 C 66.41,329.906 65.572,325.66 64.994,321.28 a 1.687,1.687 0 0 1 1.663,-1.907 z m 6.675,24.331 c 0.64,0 1.254,0.374 1.536,0.996 1.727,3.836 3.764,7.446 6.061,10.724 a 1.691,1.691 0 0 1 -0.408,2.353 1.681,1.681 0 0 1 -2.347,-0.41 c -2.418,-3.448 -4.56,-7.242 -6.379,-11.275 a 1.689,1.689 0 0 1 0.846,-2.233 1.61,1.61 0 0 1 0.69,-0.155 z m 55.299,1.964 c 0.881,0 1.628,0.692 1.677,1.582 a 1.691,1.691 0 0 1 -1.579,1.795 c -3.904,0.24 -7.985,1.144 -11.798,2.614 a 1.684,1.684 0 0 1 -2.178,-0.975 1.69,1.69 0 0 1 0.973,-2.183 c 4.13,-1.59 8.556,-2.565 12.799,-2.833 0.035,0.007 0.077,0 0.106,0 z m 12.425,1.709 c 0.212,0 0.423,0.043 0.627,0.12 5.251,2.127 8.409,5.85 8.881,10.485 a 1.686,1.686 0 0 1 -1.501,1.85 1.687,1.687 0 0 1 -1.847,-1.511 c -0.437,-4.267 -3.933,-6.542 -6.787,-7.701 a 1.68,1.68 0 0 1 0.627,-3.243 z m -35.677,7.242 c 0.5,0 0.994,0.219 1.325,0.643 a 1.695,1.695 0 0 1 -0.275,2.373 37.352,37.352 0 0 0 -8.12,8.909 1.683,1.683 0 0 1 -2.332,0.495 1.692,1.692 0 0 1 -0.493,-2.339 40.492,40.492 0 0 1 8.852,-9.714 1.652,1.652 0 0 1 1.043,-0.367 z m -17.535,9.608 c 0.408,0 0.817,0.148 1.141,0.445 a 51.935,51.935 0 0 0 9.882,7.192 1.6865916,1.6865916 0 0 1 -1.643,2.946 55.722,55.722 0 0 1 -10.522,-7.658 1.69,1.69 0 0 1 -0.099,-2.388 c 0.338,-0.354 0.79,-0.537 1.24,-0.537 z m 56.884,3.885 a 1.695,1.695 0 0 1 1.318,2.749 c -2.713,3.377 -6.357,6.012 -10.833,7.827 a 1.688,1.688 0 0 1 -1.261,-3.129 c 3.933,-1.597 7.118,-3.886 9.465,-6.811 a 1.672,1.672 0 0 1 1.311,-0.636 z m -52.945,7.341 c 0.148,0 0.296,0.021 0.444,0.056 a 1.688,1.688 0 0 1 1.184,2.077 c -1.022,3.752 -1.571,7.821 -1.628,12.088 a 1.69,1.69 0 0 1 -1.684,1.667 h -0.021 a 1.686,1.686 0 0 1 -1.664,-1.709 c 0.064,-4.557 0.649,-8.909 1.748,-12.936 a 1.684,1.684 0 0 1 1.621,-1.243 z m 17.952,0.939 c 0.141,0 0.289,0.022 0.43,0.057 4.031,1.06 8.098,1.547 12.038,1.441 a 1.686,1.686 0 0 1 1.726,1.646 1.681,1.681 0 0 1 -1.642,1.731 c -4.257,0.113 -8.648,-0.41 -12.982,-1.554 a 1.693,1.693 0 0 1 -1.205,-2.063 1.7,1.7 0 0 1 1.635,-1.258 z M 91.17,400.575 c 0.804,0 1.516,0.579 1.656,1.399 0.677,3.857 1.692,7.92 3.017,12.06 a 1.695,1.695 0 0 1 -1.092,2.126 1.69,1.69 0 0 1 -2.122,-1.095 c -1.374,-4.288 -2.424,-8.492 -3.122,-12.505 a 1.69,1.69 0 0 1 1.663,-1.985 z m 7.563,24.112 a 1.69,1.69 0 0 1 1.543,1.01 157.729,157.729 0 0 0 5.477,11.269 1.7,1.7 0 0 1 -0.691,2.289 1.691,1.691 0 0 1 -2.284,-0.693 164.84,164.84 0 0 1 -5.589,-11.508 1.69,1.69 0 0 1 1.544,-2.367 z m 12.066,22.219 c 0.536,0 1.057,0.254 1.388,0.728 a 96.904,96.904 0 0 0 7.732,9.721 1.691,1.691 0 0 1 -0.113,2.388 1.682,1.682 0 0 1 -2.382,-0.113 100.185,100.185 0 0 1 -8.006,-10.068 1.693,1.693 0 0 1 1.381,-2.656 z m 16.915,18.707 c 0.388,0 0.783,0.135 1.1,0.41 3.08,2.657 6.406,5.2 9.881,7.574 0.768,0.522 0.973,1.575 0.444,2.345 a 1.677,1.677 0 0 1 -2.34,0.445 113.654,113.654 0 0 1 -10.184,-7.806 1.685,1.685 0 0 1 -0.176,-2.381 1.67,1.67 0 0 1 1.275,-0.587 z m 280.407,13.212 c 0.676,0 1.311,0.409 1.571,1.073 a 1.697,1.697 0 0 1 -0.951,2.191 c -3.404,1.335 -7.464,2.734 -12.08,4.161 a 1.687,1.687 0 0 1 -2.108,-1.117 1.692,1.692 0 0 1 1.114,-2.112 c 4.532,-1.406 8.521,-2.776 11.841,-4.083 0.197,-0.078 0.408,-0.113 0.613,-0.113 z m -259.566,1.052 c 0.268,0 0.55,0.064 0.804,0.205 a 141.472,141.472 0 0 0 11.234,5.461 1.684,1.684 0 0 1 0.874,2.219 1.677,1.677 0 0 1 -2.213,0.876 148.29,148.29 0 0 1 -11.502,-5.589 1.69,1.69 0 0 1 0.803,-3.172 z m 235.44,6.549 c 0.747,0 1.431,0.502 1.628,1.258 a 1.68,1.68 0 0 1 -1.198,2.063 400.824,400.824 0 0 1 -12.327,3.059 1.686,1.686 0 0 1 -2.023,-1.265 1.687,1.687 0 0 1 1.262,-2.027 c 4.208,-0.982 8.324,-2 12.228,-3.038 0.141,-0.036 0.289,-0.05 0.43,-0.05 z m -212.287,3.554 c 0.183,0 0.367,0.028 0.55,0.092 a 191.133,191.133 0 0 0 11.975,3.688 1.69,1.69 0 0 1 1.184,2.07 1.683,1.683 0 0 1 -2.065,1.186 192.812,192.812 0 0 1 -12.194,-3.751 1.69,1.69 0 0 1 0.55,-3.285 z m 187.654,2.197 c 0.783,0 1.488,0.551 1.65,1.349 a 1.691,1.691 0 0 1 -1.311,1.993 c -4.088,0.84 -8.282,1.646 -12.461,2.395 a 1.693,1.693 0 0 1 -1.96,-1.364 1.696,1.696 0 0 1 1.361,-1.964 533.601,533.601 0 0 0 12.383,-2.381 c 0.113,-0.021 0.226,-0.028 0.338,-0.028 z m -24.893,4.472 c 0.817,0 1.536,0.593 1.663,1.434 a 1.69,1.69 0 0 1 -1.41,1.929 c -4.172,0.65 -8.394,1.257 -12.559,1.801 a 1.674,1.674 0 0 1 -1.889,-1.455 1.687,1.687 0 0 1 1.452,-1.893 546.36,546.36 0 0 0 12.482,-1.788 c 0.092,-0.021 0.176,-0.028 0.261,-0.028 z m -138.389,0.007 c 0.113,0 0.233,0.014 0.346,0.035 3.989,0.841 8.147,1.604 12.348,2.275 a 1.69,1.69 0 0 1 1.402,1.929 c -0.148,0.925 -1,1.547 -1.931,1.406 a 246.397,246.397 0 0 1 -12.517,-2.303 1.692,1.692 0 0 1 -1.304,-2 1.706,1.706 0 0 1 1.656,-1.342 z m 113.312,3.285 c 0.853,0 1.579,0.643 1.677,1.512 a 1.688,1.688 0 0 1 -1.494,1.858 c -4.215,0.452 -8.465,0.855 -12.63,1.194 a 1.691,1.691 0 0 1 -0.275,-3.37 c 4.137,-0.339 8.359,-0.742 12.546,-1.187 0.056,0 0.119,-0.007 0.176,-0.007 z m -88.34,0.693 c 0.063,0 0.126,0 0.19,0.007 4.067,0.459 8.281,0.84 12.524,1.144 a 1.682,1.682 0 0 1 1.558,1.809 1.68,1.68 0 0 1 -1.804,1.561 328.688,328.688 0 0 1 -12.659,-1.159 1.687,1.687 0 0 1 0.191,-3.362 z m 63.143,1.37 c 0.888,0 1.635,0.7 1.684,1.597 a 1.688,1.688 0 0 1 -1.585,1.78 c -4.25,0.233 -8.514,0.417 -12.68,0.53 a 1.707,1.707 0 0 1 -1.734,-1.646 1.687,1.687 0 0 1 1.636,-1.738 c 4.13,-0.113 8.366,-0.29 12.587,-0.53 a 0.382,0.382 0 0 0 0.092,0.007 z m -37.926,0.452 h 0.064 c 4.109,0.149 8.345,0.226 12.588,0.233 0.93,0 1.684,0.763 1.684,1.696 a 1.68,1.68 0 0 1 -1.684,1.681 h -0.007 c -4.279,-0.007 -8.55,-0.091 -12.701,-0.24 a 1.682,1.682 0 0 1 -1.621,-1.745 1.681,1.681 0 0 1 1.677,-1.625 z m 442.425,-64.899 a 1.738,1.738 0 0 1 -0.239,-3.461 229.285,229.285 0 0 0 12.763,-2.182 1.734,1.734 0 0 1 2.037,1.367 1.744,1.744 0 0 1 -1.363,2.044 c -4.45,0.887 -8.806,1.629 -12.958,2.218 -0.08,0.007 -0.16,0.014 -0.24,0.014 z m 25.577,-5.061 a 1.74,1.74 0 0 1 -0.421,-3.425 260.18,260.18 0 0 0 12.459,-3.483 1.739,1.739 0 0 1 1.022,3.323 258.234,258.234 0 0 1 -12.633,3.534 2.209,2.209 0 0 1 -0.427,0.051 z m 24.881,-7.687 a 1.737,1.737 0 0 1 -0.595,-3.366 215.214,215.214 0 0 0 11.98,-4.836 1.73,1.73 0 0 1 2.283,0.894 1.74,1.74 0 0 1 -0.891,2.291 210.22,210.22 0 0 1 -12.176,4.908 c -0.196,0.08 -0.399,0.109 -0.601,0.109 z m 23.822,-10.493 a 1.726,1.726 0 0 1 -1.536,-0.938 1.736,1.736 0 0 1 0.739,-2.341 176.15,176.15 0 0 0 11.205,-6.378 1.722,1.722 0 0 1 2.384,0.567 1.739,1.739 0 0 1 -0.558,2.393 177.614,177.614 0 0 1 -11.429,6.508 1.886,1.886 0 0 1 -0.805,0.189 z m 22.083,-13.758 c -0.529,0 -1.051,-0.24 -1.391,-0.706 a 1.746,1.746 0 0 1 0.362,-2.436 137.014,137.014 0 0 0 9.944,-8.144 1.734,1.734 0 0 1 2.449,0.131 1.75,1.75 0 0 1 -0.13,2.458 139.359,139.359 0 0 1 -10.197,8.348 c -0.319,0.24 -0.682,0.349 -1.037,0.349 z m 19.264,-17.446 c -0.413,0 -0.826,-0.145 -1.159,-0.45 a 1.741,1.741 0 0 1 -0.124,-2.458 c 2.878,-3.2 5.574,-6.567 8.016,-9.992 a 1.735,1.735 0 0 1 2.421,-0.407 c 0.783,0.56 0.957,1.643 0.406,2.429 a 117.303,117.303 0 0 1 -8.262,10.304 1.784,1.784 0 0 1 -1.298,0.574 z m 15.032,-21.168 a 1.68,1.68 0 0 1 -0.827,-0.211 1.74,1.74 0 0 1 -0.688,-2.363 105.93,105.93 0 0 0 5.421,-11.584 1.732,1.732 0 0 1 2.254,-0.975 1.736,1.736 0 0 1 0.971,2.254 108.13,108.13 0 0 1 -5.602,11.97 1.757,1.757 0 0 1 -1.529,0.909 z m 9.566,-24.128 a 1.738,1.738 0 0 1 -1.674,-2.182 115.733,115.733 0 0 0 2.566,-12.544 1.725,1.725 0 0 1 1.971,-1.461 1.74,1.74 0 0 1 1.464,1.978 118.945,118.945 0 0 1 -2.645,12.929 1.758,1.758 0 0 1 -1.682,1.28 z m 4.001,-25.699 h -0.123 a 1.733,1.733 0 0 1 -1.609,-1.854 c 0.232,-3.389 0.348,-6.741 0.348,-9.977 0,-0.975 -0.008,-1.949 -0.029,-2.895 a 1.735,1.735 0 0 1 1.696,-1.774 1.736,1.736 0 0 1 1.768,1.702 c 0.022,0.974 0.029,1.978 0.029,2.974 0,3.316 -0.123,6.748 -0.355,10.217 a 1.738,1.738 0 0 1 -1.725,1.607 z m -0.652,-26.026 c -0.856,0 -1.602,-0.64 -1.718,-1.513 -0.573,-4.356 -1.406,-8.581 -2.479,-12.551 a 1.74,1.74 0 0 1 1.218,-2.131 1.733,1.733 0 0 1 2.123,1.229 c 1.109,4.123 1.972,8.494 2.566,13.002 a 1.735,1.735 0 0 1 -1.71,1.964 z m -6.864,-25.045 a 1.74,1.74 0 0 1 -1.58,-1.025 c -1.775,-3.949 -3.87,-7.664 -6.233,-11.039 a 1.741,1.741 0 0 1 0.421,-2.421 1.727,1.727 0 0 1 2.413,0.422 c 2.486,3.548 4.689,7.453 6.559,11.606 a 1.737,1.737 0 0 1 -0.869,2.297 c -0.232,0.11 -0.472,0.16 -0.711,0.16 z m -56.864,-2.021 a 1.732,1.732 0 0 1 -1.725,-1.629 1.74,1.74 0 0 1 1.624,-1.847 c 4.015,-0.247 8.211,-1.178 12.132,-2.691 a 1.732,1.732 0 0 1 2.24,1.004 1.741,1.741 0 0 1 -1.001,2.247 c -4.247,1.636 -8.798,2.64 -13.161,2.916 -0.036,-0.007 -0.08,0 -0.109,0 z m -12.777,-1.76 a 1.81,1.81 0 0 1 -0.645,-0.124 c -5.4,-2.188 -8.646,-6.021 -9.132,-10.791 a 1.736,1.736 0 0 1 1.544,-1.905 1.735,1.735 0 0 1 1.899,1.556 c 0.449,4.392 4.044,6.734 6.979,7.926 a 1.733,1.733 0 0 1 0.957,2.262 1.728,1.728 0 0 1 -1.602,1.076 z m 36.687,-7.454 a 1.721,1.721 0 0 1 -1.363,-0.661 1.747,1.747 0 0 1 0.283,-2.444 38.411,38.411 0 0 0 8.349,-9.17 1.73,1.73 0 0 1 2.399,-0.509 c 0.804,0.524 1.029,1.6 0.507,2.407 a 41.66,41.66 0 0 1 -9.103,9.999 1.69,1.69 0 0 1 -1.072,0.378 z m 18.032,-9.889 a 1.73,1.73 0 0 1 -1.174,-0.459 53.456,53.456 0 0 0 -10.161,-7.402 1.737,1.737 0 0 1 1.688,-3.033 57.301,57.301 0 0 1 10.821,7.883 c 0.703,0.647 0.753,1.753 0.101,2.458 a 1.766,1.766 0 0 1 -1.275,0.553 z m -58.495,-4 c -0.384,0 -0.768,-0.124 -1.087,-0.385 a 1.746,1.746 0 0 1 -0.268,-2.444 c 2.79,-3.476 6.537,-6.188 11.139,-8.057 a 1.728,1.728 0 0 1 2.254,0.96 1.737,1.737 0 0 1 -0.957,2.261 c -4.044,1.644 -7.32,4 -9.733,7.011 a 1.718,1.718 0 0 1 -1.348,0.654 z m 54.443,-7.555 c -0.152,0 -0.304,-0.022 -0.456,-0.059 a 1.737,1.737 0 0 1 -1.218,-2.138 c 1.051,-3.861 1.616,-8.05 1.674,-12.442 a 1.74,1.74 0 0 1 1.732,-1.716 h 0.022 c 0.957,0.015 1.725,0.8 1.711,1.76 -0.066,4.69 -0.667,9.17 -1.798,13.315 a 1.732,1.732 0 0 1 -1.667,1.28 z m -18.459,-0.968 c -0.145,0 -0.297,-0.021 -0.442,-0.058 -4.146,-1.091 -8.328,-1.592 -12.379,-1.483 a 1.736,1.736 0 0 1 -1.776,-1.695 1.731,1.731 0 0 1 1.689,-1.781 c 4.378,-0.117 8.893,0.422 13.35,1.6 a 1.743,1.743 0 0 1 1.239,2.123 1.747,1.747 0 0 1 -1.681,1.294 z m 19.09,-24.891 a 1.733,1.733 0 0 1 -1.703,-1.44 c -0.696,-3.971 -1.74,-8.152 -3.102,-12.413 a 1.745,1.745 0 0 1 1.123,-2.189 1.738,1.738 0 0 1 2.182,1.127 c 1.413,4.414 2.493,8.741 3.21,12.871 a 1.74,1.74 0 0 1 -1.71,2.044 z m -7.777,-24.819 a 1.737,1.737 0 0 1 -1.587,-1.04 162.729,162.729 0 0 0 -5.631,-11.599 1.749,1.749 0 0 1 0.71,-2.356 1.737,1.737 0 0 1 2.348,0.713 c 2.138,4.021 4.073,7.999 5.747,11.846 a 1.739,1.739 0 0 1 -1.587,2.436 z m -12.408,-22.87 c -0.55,0 -1.087,-0.262 -1.427,-0.749 a 99.774,99.774 0 0 0 -7.951,-10.006 1.742,1.742 0 0 1 0.116,-2.458 1.727,1.727 0 0 1 2.45,0.116 103.13,103.13 0 0 1 8.233,10.362 1.744,1.744 0 0 1 -1.421,2.735 z m -17.394,-19.256 a 1.72,1.72 0 0 1 -1.13,-0.422 114.65,114.65 0 0 0 -10.161,-7.796 c -0.79,-0.538 -1,-1.621 -0.457,-2.414 a 1.724,1.724 0 0 1 2.406,-0.458 116.958,116.958 0 0 1 10.473,8.035 c 0.725,0.626 0.812,1.724 0.181,2.451 -0.34,0.4 -0.826,0.604 -1.312,0.604 z M 481.14,121.964 a 1.737,1.737 0 0 1 -1.616,-1.105 1.746,1.746 0 0 1 0.978,-2.254 c 3.501,-1.375 7.675,-2.815 12.422,-4.284 a 1.734,1.734 0 0 1 2.167,1.149 1.742,1.742 0 0 1 -1.145,2.175 c -4.66,1.447 -8.762,2.858 -12.176,4.203 -0.203,0.08 -0.42,0.116 -0.63,0.116 z m 266.911,-1.083 a 1.71,1.71 0 0 1 -0.826,-0.211 145.571,145.571 0 0 0 -11.552,-5.621 1.734,1.734 0 0 1 -0.899,-2.284 1.723,1.723 0 0 1 2.276,-0.901 152.592,152.592 0 0 1 11.828,5.752 1.74,1.74 0 0 1 -0.827,3.265 z M 505.948,114.14 a 1.734,1.734 0 0 1 -1.674,-1.295 1.73,1.73 0 0 1 1.232,-2.123 411.079,411.079 0 0 1 12.676,-3.149 1.733,1.733 0 0 1 2.08,1.302 1.736,1.736 0 0 1 -1.297,2.087 425.28,425.28 0 0 0 -12.575,3.127 1.852,1.852 0 0 1 -0.442,0.051 z m 218.295,-3.658 c -0.188,0 -0.376,-0.029 -0.565,-0.095 a 196.477,196.477 0 0 0 -12.313,-3.796 1.738,1.738 0 0 1 -1.218,-2.13 1.732,1.732 0 0 1 2.123,-1.222 199.037,199.037 0 0 1 12.539,3.861 1.738,1.738 0 0 1 -0.566,3.382 z M 531.278,108.22 a 1.736,1.736 0 0 1 -1.696,-1.389 1.74,1.74 0 0 1 1.348,-2.05 506.653,506.653 0 0 1 12.814,-2.465 1.74,1.74 0 0 1 0.616,3.425 544.99,544.99 0 0 0 -12.734,2.45 1.858,1.858 0 0 1 -0.348,0.029 z m 25.598,-4.603 a 1.73,1.73 0 0 1 -1.71,-1.476 1.74,1.74 0 0 1 1.45,-1.985 c 4.29,-0.67 8.631,-1.295 12.915,-1.855 a 1.723,1.723 0 0 1 1.942,1.498 1.736,1.736 0 0 1 -1.493,1.949 560.57,560.57 0 0 0 -12.835,1.84 1.164,1.164 0 0 1 -0.269,0.029 z m 142.305,-0.007 c -0.115,0 -0.239,-0.015 -0.355,-0.036 a 262.786,262.786 0 0 0 -12.697,-2.342 1.74,1.74 0 0 1 -1.443,-1.985 1.735,1.735 0 0 1 1.986,-1.447 c 4.378,0.69 8.712,1.49 12.872,2.37 a 1.742,1.742 0 0 1 1.341,2.058 1.755,1.755 0 0 1 -1.704,1.382 z m -116.518,-3.381 a 1.743,1.743 0 0 1 -1.725,-1.557 1.737,1.737 0 0 1 1.537,-1.912 c 4.334,-0.466 8.704,-0.88 12.987,-1.23 a 1.738,1.738 0 0 1 1.87,1.594 c 0.08,0.96 -0.63,1.796 -1.587,1.876 -4.254,0.349 -8.596,0.763 -12.901,1.221 -0.058,0 -0.123,0.008 -0.181,0.008 z m 90.841,-0.713 c -0.066,0 -0.131,0 -0.196,-0.007 a 317.278,317.278 0 0 0 -12.879,-1.178 1.73,1.73 0 0 1 -1.602,-1.862 c 0.066,-0.96 0.899,-1.68 1.856,-1.607 4.406,0.32 8.784,0.72 13.016,1.193 a 1.737,1.737 0 0 1 -0.195,3.46 z m -64.931,-1.41 c -0.913,0 -1.681,-0.72 -1.732,-1.644 a 1.737,1.737 0 0 1 1.631,-1.833 c 4.37,-0.24 8.755,-0.429 13.038,-0.545 a 1.756,1.756 0 0 1 1.783,1.694 c 0.029,0.96 -0.725,1.76 -1.682,1.789 -4.247,0.116 -8.603,0.298 -12.944,0.545 -0.029,-0.007 -0.058,-0.007 -0.094,-0.007 z m 38.999,-0.466 h -0.065 A 377.455,377.455 0 0 0 634.563,97.4 1.742,1.742 0 0 1 632.83,95.654 c 0,-0.96 0.776,-1.73 1.733,-1.73 h 0.007 c 4.399,0.007 8.791,0.094 13.06,0.247 a 1.73,1.73 0 0 1 1.667,1.796 1.73,1.73 0 0 1 -1.725,1.673 z"
         fill="#e1e4e5"
         id="path2" /><path
         fill-rule="evenodd"
         clip-rule="evenodd"
         d="m 192.136,149.418 h 182.072 c 23.394,0 42.342,18.949 42.342,42.343 V 530.499 L 283.341,461.206 149.793,530.499 V 191.761 c 0,-23.394 18.949,-42.343 42.343,-42.343 z"
         fill="#666af6"
         stroke="#666af6"
         stroke-width="11.75"
         stroke-linecap="round"
         stroke-linejoin="round"
         id="path3"
         style="fill:#000000;fill-opacity:1;stroke:#000000;stroke-opacity:1" /><path
         d="m 240.826,297.616 h 84.685 m -42.343,-42.343 v 84.685"
         stroke="#ffffff"
         stroke-width="20"
         stroke-linecap="round"
         stroke-linejoin="round"
         id="path4" /><path
         fill-rule="evenodd"
         clip-rule="evenodd"
         d="m 497.623,70 h 182.071 c 23.395,0 42.343,18.948 42.343,42.342 V 451.081 L 588.828,381.787 455.28,451.081 V 112.342 C 455.28,88.948 474.228,70 497.623,70 Z"
         fill="#666af6"
         stroke="#666af6"
         stroke-width="11.75"
         stroke-linecap="round"
         stroke-linejoin="round"
         id="path5"
         style="fill:#000000;fill-opacity:1;stroke:#000000;stroke-opacity:1" /><path
         d="m 546.313,218.198 h 84.684 m -42.342,-42.344 v 84.685"
         stroke="#ffffff"
         stroke-width="20"
         stroke-linecap="round"
         stroke-linejoin="round"
         id="path6" /><rect
         x="420.54901"
         y="101.542"
         width="38.397999"
         height="4.474"
         rx="2.237"
         transform="rotate(135,420.549,101.542)"
         fill="#e1e4e5"
         id="rect6" /><rect
         x="405.827"
         y="101.438"
         width="14.257"
         height="4.474"
         rx="2.237"
         transform="rotate(135,405.827,101.438)"
         fill="#e1e4e5"
         id="rect7" /><rect
         x="572.92603"
         y="447.84399"
         width="33.002998"
         height="3.845"
         rx="1.9220001"
         transform="rotate(-45,572.926,447.844)"
         fill="#e1e4e5"
         id="rect8" /><rect
         x="585.58002"
         y="447.93399"
         width="12.254"
         height="3.845"
         rx="1.9220001"
         transform="rotate(-45,585.58,447.934)"
         fill="#e1e4e5"
         id="rect9" /><rect
         x="451.13101"
         y="503.543"
         width="54.869999"
         height="6.3930001"
         rx="3.1960001"
         transform="rotate(-45,451.131,503.543)"
         fill="#e1e4e5"
         id="rect10" /><rect
         x="472.17001"
         y="503.69199"
         width="20.372999"
         height="6.3930001"
         rx="3.1960001"
         transform="rotate(-45,472.17,503.692)"
         fill="#e1e4e5"
         id="rect11" /></g></g></svg>
