<?xml version="1.0" encoding="UTF-8" standalone="no"?>
<svg
   width="172.89458mm"
   height="172.89458mm"
   viewBox="0 0 172.89458 172.89458"
   version="1.1"
   id="svg827"
   xmlns="http://www.w3.org/2000/svg"
   xmlns:svg="http://www.w3.org/2000/svg">
  <defs
     id="defs824" />
  <g
     id="layer1"
     transform="translate(-17.342266,-63.021091)">
    <rect
       style="fill:#f7c945;fill-opacity:1;stroke:none;stroke-width:0;stroke-miterlimit:4;stroke-dasharray:none"
       id="rect910"
       width="172.89458"
       height="172.89458"
       x="17.342266"
       y="63.021091" />
    <g
       style="fill:none"
       id="g955"
       transform="matrix(0.6209772,0,0,0.6209772,26.210099,132.60532)">
      <path
         d="m 4.55386,12.651 c 1.70773,0 3.51033,-1.0336 3.51033,-3.38285 0,-1.87936 -1.13849,-3.19491 -3.32058,-3.19491 -2.27697,0 -3.60521,1.59746 -3.51033,3.10094 V 9.26815 C 1.32815,11.4294 2.84613,12.651 4.55386,12.651 Z"
         fill="#000000"
         id="path934" />
      <path
         d="m 85.0023,18.8532 c -0.1897,-1.1277 1.7076,-1.3156 1.5179,-2.2553 -0.1897,-1.3155 -1.3282,-1.3155 -2.0871,-1.2216 -4.2691,0.4699 -5.1229,1.8794 -5.5024,4.6045 -0.1897,1.5974 0.8538,3.0069 1.8974,4.2285 0.0948,1.4095 -0.2846,3.8527 -0.759,6.3898 -0.3794,0.188 -0.6641,0.4699 -0.7589,0.8458 -0.3795,1.4095 -1.2333,5.638 -2.5615,9.1148 -0.3794,0.5639 -0.9487,1.3156 -0.9487,1.7854 0,0.188 0,0.3759 0,0.4699 -0.9486,1.7854 -1.9922,3.1009 -3.2255,3.1009 -0.5692,0 -0.7589,-1.5035 -0.7589,-3.4768 0,-3.4768 1.8025,-13.1555 1.8025,-15.2228 0,-2.7251 0.4743,-5.0743 0.4743,-7.3295 0,-0.9397 -0.6641,-1.2216 -1.5179,-1.2216 -0.6641,0 -1.0436,0.4699 -1.7076,0.4699 -2.7512,0 -3.1307,1.5034 -3.1307,3.7587 0,0.9397 0,14.2831 -0.1897,15.9745 -0.1898,2.8191 -1.8025,6.2959 -4.8383,6.2959 -2.7512,0 -4.0794,-3.7587 -4.0794,-7.7994 0,-3.6647 0.6641,-8.2691 1.1384,-9.8666 0.2846,-0.9397 1.5179,-5.2622 1.5179,-5.826 0,-1.0337 -0.0948,-1.3156 -1.2333,-1.3156 -4.3639,0.094 -5.2177,0.4699 -5.8818,2.8191 -0.6641,2.725 -1.423,7.2355 -1.423,11.652 0,0.3759 0,0.8457 0,1.2216 -1.0436,3.1949 -2.182,6.7657 -5.1229,6.9536 -1.9923,0.094 -2.6564,-4.8863 -2.6564,-10.0546 0,-10.2425 2.941,-20.2031 3.3204,-30.44557 0.0949,-0.93968 -0.5692,-1.597457 -1.7076,-1.597457 -1.5179,0.187937 -1.9922,0.093968 -2.6563,0.093968 -1.1384,0 -1.6128,0.469839 -1.7077,1.597459 -0.9486,10.2425 -3.0358,22.7402 -3.0358,32.7008 0,0.094 0,0.094 0,0.188 -1.0435,3.2889 -2.1819,7.5174 -5.3126,7.7053 -1.9922,0.094 -2.6563,-4.8863 -2.6563,-10.0545 0,-10.2425 2.9409,-20.2031 3.3204,-30.44564 0.0949,-0.93968 -0.5692,-1.59745 -1.7077,-1.59745 -1.5179,0 -1.9922,-0.093969 -2.7511,-0.093969 -1.1385,0 -1.6128,0.469839 -1.7077,1.597459 -0.9487,10.2425 -3.0358,22.7402 -3.0358,32.7008 0,0.094 0,0.094 0,0.188 -1.0435,3.2889 -2.182,7.5174 -5.3126,7.7053 -1.9923,0.094 -2.6563,-4.8863 -2.6563,-10.0545 0,-10.2425 2.9409,-20.2031 3.3204,-30.44564 0.0948,-0.93968 -0.5692,-1.59745 -1.7077,-1.59745 -1.6127,0 -2.0871,-0.093969 -2.846,-0.093969 -1.1385,0 -1.6128,0.469839 -1.7077,1.597459 -0.9487,10.2425 -3.0358,22.7402 -3.0358,32.7008 0,0.4699 0,0.9397 0,1.5035 -0.9487,3.2889 -2.37168,6.8597 -4.17418,6.8597 -0.85382,-0.094 -1.5179,-1.3156 -1.5179,-4.1346 0,-5.1682 0.47434,-12.3098 0.94868,-17.7599 0.09487,-0.6578 -0.18973,-1.3156 -0.94868,-1.3156 -0.66408,-0.094 -2.75119,-0.2819 -3.51014,-0.2819 -1.13843,0 -1.612768,0.6578 -1.612768,1.8794 v 1.8793 C 0.66408,30.2233 0,35.2036 0,41.1236 c 0,4.2285 2.27685,7.1415 5.12291,7.1415 3.03579,0 5.40749,-2.5371 7.02029,-5.5441 0.8538,3.1949 2.4666,6.014 5.6921,6.014 3.0358,0 5.9767,-3.2889 7.969,-6.9537 0.7589,3.5708 2.3717,6.9537 5.8818,6.9537 3.0358,0 5.9767,-3.2889 7.969,-6.9537 0.7589,3.5708 2.3717,6.9537 5.8818,6.9537 2.941,0 5.8819,-3.195 7.8741,-6.6718 1.0436,4.2286 3.4153,7.4235 7.8741,7.4235 3.6999,0 4.7435,-1.5035 7.1152,-4.8863 0.7589,1.8793 1.0435,5.4501 3.2255,5.4501 3.0358,0 5.5973,-3.4768 7.3049,-7.4235 1.8025,3.101 6.1665,5.2622 9.4869,5.2622 5.1229,0 9.4868,-3.6647 9.1074,-9.2088 C 97.0506,31.1629 85.8561,23.0817 85.0023,18.8532 Z m 1.3282,25.2773 c -1.5179,0 -3.8897,-0.9397 -3.9845,-2.913 -0.0949,-1.1276 2.5614,-1.6914 3.5101,-2.2552 0.759,-0.4698 0.9487,-0.8457 0.9487,-1.1276 -0.0949,-0.6578 -1.0436,-1.1276 -2.0871,-1.1276 -0.8538,0 -2.0871,0.2819 -3.5101,1.2215 0.2846,-1.3155 2.2768,-8.0812 2.7511,-11.3701 3.6999,2.7251 7.1152,8.927 7.4947,13.5314 0.2846,3.6648 -3.8896,4.0406 -5.1229,4.0406 z"
         fill="#000000"
         id="path936" />
      <path
         d="m 171.333,12.651 c 1.708,0 3.51,-1.0336 3.51,-3.38285 0,-1.87936 -1.138,-3.19491 -3.32,-3.19491 -2.277,0 -3.605,1.59746 -3.51,3.10094 v 0.09397 c 0.094,2.16125 1.612,3.38285 3.32,3.38285 z"
         fill="#000000"
         id="path938" />
      <path
         d="m 226.167,49.6747 c -1.708,-1.1276 -2.941,-2.913 -2.656,-10.2425 0.189,-4.6984 1.138,-11.1822 1.138,-15.7866 0,-2.0673 -0.949,-4.4165 -3.605,-4.4165 -3.32,0 -8.159,6.7657 -9.677,9.7727 0.19,-1.7854 0.759,-7.0476 0.854,-8.833 0.095,-1.7854 0.095,-1.8794 -3.036,-1.8794 -2.087,0 -2.276,0.3759 -2.276,1.1276 0,4.3225 -0.38,9.3028 -0.759,14.2831 -1.139,2.4432 -2.657,4.8864 -4.839,4.8864 -0.664,0 -1.328,-0.188 -1.897,-0.4699 0.949,-1.4095 1.613,-4.6044 1.613,-6.2958 0,-2.6311 -1.898,-4.6984 -4.554,-4.6984 -3.51,0 -5.597,2.4432 -5.597,5.826 0,2.6311 2.751,5.6381 4.838,7.0476 -1.233,2.4432 -3.7,3.9467 -6.546,3.9467 -4.079,0 -5.502,-7.4235 -5.502,-10.1486 0,-5.2622 1.897,-11.1822 8.158,-11.1822 4.27,0 4.27,2.8191 6.072,2.8191 0.19,0 0.759,-0.2819 0.759,-0.5638 0,-3.101 -4.933,-5.6381 -7.495,-5.6381 -8.728,0 -14.799,6.8596 -14.799,15.4107 0,1.6914 0.284,3.4768 0.854,5.1683 -0.854,2.1612 -1.898,3.8527 -3.226,3.8527 -0.854,0 -1.518,-1.2216 -1.518,-4.0407 0,-5.1682 0.475,-12.3098 0.949,-17.7599 0.095,-0.6578 -0.19,-1.3156 -0.949,-1.3156 -0.664,-0.0939 -2.751,-0.2819 -3.51,-0.2819 -1.138,0 -1.613,0.6578 -1.613,1.8794 v 1.8794 c 0,3.2888 -0.189,6.1079 -0.284,8.9269 -0.095,0.094 -0.19,0.2819 -0.285,0.4698 -1.043,2.8191 -2.372,10.6184 -5.502,10.6184 -0.949,0 -2.941,-1.3155 -2.941,-4.9803 0,-5.92 1.992,-17.7599 2.277,-19.8272 3.035,-0.6578 5.692,-0.4699 9.297,-1.5035 1.613,-0.4698 0.664,-2.3492 -1.139,-2.1613 -1.043,0.094 -3.889,0.2819 -7.874,0 0.095,-3.1009 0.854,-5.0742 0.854,-8.26914 V 7.01325 c 0,-0.84571 -0.379,-1.50348 -1.233,-1.50348 -1.708,0 -4.364,0.5638 -4.364,2.913 0,2.44313 -0.474,4.60443 -0.38,7.04763 -1.707,0.0939 -3.225,-0.3759 -4.933,-0.3759 -1.233,0 -1.518,2.2552 -1.518,3.1009 0,0.9397 0.095,1.5975 0.664,1.5975 2.372,0 4.459,-0.3759 5.408,-0.4698 -0.474,6.2018 -1.233,9.6787 -1.708,14.0012 0,0.2819 -0.095,0.6578 -0.095,1.0336 -1.043,3.2889 -3.035,8.3632 -4.648,8.3632 -0.664,0 -1.613,-1.0337 -1.613,-1.7854 0,-4.6044 0.474,-10.3365 1.708,-14.9409 0.284,-0.9397 0.948,-2.6311 0.948,-3.6648 0,-1.2216 -1.992,-1.8793 -3.035,-1.8793 -1.708,0 -1.613,0.9396 -2.277,2.4431 -1.234,-0.9396 -1.518,-2.6311 -4.839,-2.6311 -6.071,0 -9.771,9.7727 -9.771,15.8806 0,1.0337 -0.095,1.5975 -0.095,2.1613 0,3.4768 -1.992,7.7993 -4.079,7.7993 -1.803,0 -2.372,-4.8863 -2.372,-6.9536 0,-2.913 1.328,-9.3968 2.467,-12.2158 0.474,-1.0337 1.328,-2.1613 1.328,-3.2889 0,-1.3156 -1.518,-3.4768 -3.036,-3.4768 -1.708,0 -2.751,0.9396 -4.554,0.9396 -2.846,0 -4.743,-1.7853 -6.356,-1.7853 -1.043,0 -1.613,0.6577 -1.613,1.5974 0,2.5371 2.752,2.0673 2.087,5.2622 -0.664,3.007 -2.656,11.1822 -3.794,14.2831 -0.095,0.094 -0.095,0.2819 -0.095,0.4699 0,0.3759 0.095,0.6578 0.19,0.9397 -0.665,1.1276 -1.423,1.8793 -2.372,1.8793 -0.949,0 -2.941,-1.3155 -2.941,-4.9803 0,-5.92 1.992,-17.7599 2.277,-19.8272 3.036,-0.6578 5.692,-0.4699 9.297,-1.5035 1.613,-0.4698 0.664,-2.3492 -1.139,-2.1613 -1.043,0.094 -3.889,0.2819 -7.874,0 0.095,-3.1009 0.854,-5.0742 0.854,-8.26915 v 0 c 0,-0.84571 -0.379,-1.50348 -1.233,-1.50348 -1.708,0 -4.364,0.5638 -4.364,2.913 0,2.44313 -0.474,4.60443 -0.38,7.04763 -1.707,0.0939 -3.2251,-0.3759 -4.9327,-0.3759 -1.2333,0 -1.5179,2.2552 -1.5179,3.1009 0,0.9397 0.0948,1.5975 0.6641,1.5975 2.3717,0 4.4585,-0.3759 5.4075,-0.4698 -0.474,6.2018 -1.233,9.6787 -1.708,14.0012 -0.2843,2.2552 -0.6637,5.826 -0.6637,8.0812 0,4.0406 3.5097,7.3295 6.4507,7.3295 5.218,0 9.487,-10.5244 9.487,-14.8469 0,-0.188 0,-0.3759 0,-0.5638 0.569,-2.5372 0.949,-5.0743 1.423,-7.2356 0.095,-0.2819 0.38,-1.1276 1.139,-1.1276 1.707,0 1.897,1.2216 1.897,2.5372 0,3.4768 -1.233,9.6787 -1.233,13.3434 0,3.5708 0.948,7.9873 5.123,7.9873 3.51,0 6.356,-2.2552 7.969,-5.2622 1.138,2.7251 3.035,4.8863 5.692,4.8863 2.561,0 4.743,-1.8793 6.261,-3.6647 0.38,0.9396 0.949,3.4768 3.7,3.4768 2.561,0 4.554,-2.1613 6.072,-4.8864 0.853,3.195 3.699,5.4502 6.166,5.4502 2.941,0 5.692,-3.4768 7.4,-7.2355 0.189,3.9466 2.371,6.5777 5.123,6.5777 2.846,0 5.217,-2.2552 6.83,-5.0743 1.803,2.913 4.649,4.8864 8.349,4.8864 5.217,0 8.348,-3.3829 11.099,-7.4235 0.949,0.1879 1.803,0.4698 2.657,0.4698 1.802,0 3.605,-1.2215 5.028,-2.913 -0.19,3.007 -0.38,5.92 -0.38,8.5511 0,0.9397 0.19,1.3156 0.854,1.5035 0.664,0.2819 1.897,0.094 2.656,0.094 0.949,0 1.139,0.0939 1.328,-1.1276 0.095,-0.8457 0.665,-10.9003 0.665,-11.6521 0,-2.0673 5.028,-10.8063 7.494,-10.8063 0.475,0 0.854,0.8457 0.854,1.4095 0,4.5105 -1.423,11.84 -1.423,16.5384 0,4.9803 2.467,6.6717 3.51,7.2355 0.759,0.4699 2.941,1.1276 4.079,1.0337 0.38,-0.2819 1.044,-0.8457 0.38,-1.2216 z M 142.872,40.09 c -0.095,1.3155 -2.466,4.6984 -4.269,4.6984 -1.992,0 -2.846,-5.6381 -2.751,-9.3968 0.095,-4.4165 2.277,-12.3098 4.364,-12.3098 2.751,0 3.131,6.5777 3.131,8.645 0,2.3492 -0.285,6.014 -0.475,8.3632 z m 54.455,-3.101 c -1.233,-0.7517 -1.992,-3.1009 -1.992,-4.5104 0,-0.8457 0.284,-2.7251 1.518,-2.7251 1.138,0 1.517,2.0673 1.517,2.913 0,1.1276 -0.664,3.3828 -1.043,4.3225 z"
         fill="#000000"
         id="path940" />
      <path
         d="m 247.986,38.5864 c -0.474,-7.4235 -11.764,-15.5048 -12.523,-19.7333 -0.189,-1.1276 1.708,-1.3156 1.518,-2.2552 -0.189,-1.3156 -1.328,-1.3156 -2.087,-1.2216 -4.269,0.4698 -5.123,1.8793 -5.502,4.6044 -0.19,1.5975 0.854,3.007 1.897,4.2286 0.095,3.2888 -1.707,12.4037 -3.795,15.9745 -0.474,0.6578 -1.138,1.5975 -1.233,2.1613 -0.19,1.1276 0.664,1.6914 1.423,0.9397 0.664,-0.5639 0.569,-0.9397 1.233,-1.4096 1.518,3.4769 6.262,5.92 9.867,5.92 5.218,0 9.487,-3.6647 9.202,-9.2088 z m -11.194,5.5441 c -1.518,0 -3.89,-0.9397 -3.985,-2.913 -0.095,-1.1277 2.562,-1.6915 3.51,-2.2553 0.759,-0.4698 0.949,-0.8457 0.949,-1.1276 -0.095,-0.6578 -1.044,-1.1276 -2.087,-1.1276 -0.854,0 -2.087,0.2819 -3.51,1.2216 0.284,-1.3156 2.277,-8.0813 2.751,-11.3701 3.7,2.725 7.115,8.9269 7.494,13.5313 0.285,3.6648 -3.889,4.0407 -5.122,4.0407 z"
         fill="#000000"
         id="path942" />
    </g>
  </g>
</svg>
