<?xml version="1.0" encoding="UTF-8" standalone="no"?>
<svg
   width="305.6434"
   height="305.6434"
   fill="none"
   version="1.1"
   id="svg1070"
   sodipodi:docname="storyset.svg"
   inkscape:version="1.1.2 (0a00cf5339, 2022-02-04)"
   xmlns:inkscape="http://www.inkscape.org/namespaces/inkscape"
   xmlns:sodipodi="http://sodipodi.sourceforge.net/DTD/sodipodi-0.dtd"
   xmlns="http://www.w3.org/2000/svg"
   xmlns:svg="http://www.w3.org/2000/svg">
  <sodipodi:namedview
     id="namedview1072"
     pagecolor="#ffffff"
     bordercolor="#666666"
     borderopacity="1.0"
     inkscape:pageshadow="2"
     inkscape:pageopacity="0.0"
     inkscape:pagecheckerboard="0"
     showgrid="false"
     inkscape:zoom="1.95"
     inkscape:cx="173.07692"
     inkscape:cy="171.79487"
     inkscape:window-width="1920"
     inkscape:window-height="947"
     inkscape:window-x="0"
     inkscape:window-y="32"
     inkscape:window-maximized="1"
     inkscape:current-layer="svg1070" />
  <rect
     style="fill:#ffffff;fill-opacity:1;stroke-width:0"
     id="rect1153"
     width="305.6434"
     height="305.6434"
     x="0"
     y="0" />
  <g
     clip-path="url(#a)"
     id="g1063"
     transform="translate(-185.19303,29.636309)">
    <path
       d="m 258.307,118.787 a 20.018,20.018 0 0 0 -7.975,-2.042 c -2.556,0 -3.838,0.898 -3.838,2.303 0,1.405 1.804,1.804 4.076,2.141 l 2.218,0.338 c 5.427,0.822 8.443,3.255 8.443,7.484 0,5.166 -4.237,8.497 -11.513,8.497 -3.408,0 -7.875,-0.645 -11.122,-2.94 l 2.656,-5.112 a 14.657,14.657 0 0 0 8.543,2.449 c 3.124,0 4.605,-0.875 4.605,-2.349 0,-1.213 -1.259,-1.888 -4.153,-2.303 l -2.041,-0.284 c -5.788,-0.767 -8.651,-3.331 -8.651,-7.591 0,-5.143 3.976,-8.19 10.562,-8.19 a 22.371,22.371 0 0 1 10.424,2.379 z m 26.129,0.384 h -9.058 v 7.752 c 0,3.124 1.651,4.26 3.739,4.26 a 10.602,10.602 0 0 0 4.881,-1.696 l 2.303,5.373 a 14.014,14.014 0 0 1 -8.29,2.564 c -6.202,0 -9.38,-3.508 -9.38,-9.979 v -8.274 h -5.664 l 2.533,-5.987 h 3.131 v -8.766 h 6.747 v 8.789 h 9.058 z m 30.414,4.88 c 0,7.545 -5.765,13.172 -13.563,13.172 -7.799,0 -13.502,-5.627 -13.502,-13.172 0,-7.545 5.772,-13.164 13.502,-13.164 7.729,0 13.563,5.626 13.563,13.164 z m -20.195,0 c 0,4.06 2.84,6.908 6.632,6.908 3.792,0 6.662,-2.84 6.662,-6.908 0,-4.068 -2.863,-6.908 -6.662,-6.908 -3.8,0 -6.632,2.855 -6.632,6.908 z m 55.109,23.213 h -7.391 l 8.742,-15.751 -10.746,-19.703 h 7.676 l 6.862,12.864 6.663,-12.864 h 7.391 z m -11.36,-34.925 -2.748,6.287 a 8.152,8.152 0 0 0 -3.462,-0.768 c -3.224,0 -5.426,1.965 -5.426,5.734 v 13.916 h -6.909 v -25.56 h 6.694 v 2.825 c 1.535,-2.434 4.083,-3.455 7.23,-3.455 1.59,0.054 3.156,0.4 4.621,1.021 z"
       fill="#0e2a47"
       id="path1057" />
    <path
       d="M 231.496,115.548 H 226 a 16.53,16.53 0 0 1 4.84,-11.663 16.53,16.53 0 0 1 11.663,-4.84 v 5.542 a 11.021,11.021 0 0 0 -11.007,10.961 z m 217.868,16.671 h 5.527 a 16.53,16.53 0 0 1 -16.503,16.503 v -5.526 a 10.88,10.88 0 0 0 10.976,-10.746 z"
       fill="#1273eb"
       id="path1059" />
    <path
       d="m 388.726,117.39 a 15.283,15.283 0 0 0 -8.021,-2.303 c -3.485,0 -5.788,1.474 -5.788,3.838 0,2.042 1.781,3.07 4.99,3.439 l 2.893,0.361 c 5.197,0.675 8.229,2.824 8.229,6.831 0,4.652 -4.191,7.576 -10.746,7.576 A 17.175,17.175 0 0 1 370.066,134 l 1.774,-2.893 c 1.865,1.45 4.344,2.663 8.489,2.663 4.145,0 6.747,-1.374 6.747,-3.953 0,-1.973 -1.658,-3.155 -5.12,-3.569 l -2.917,-0.338 c -5.511,-0.675 -8.098,-3.132 -8.098,-6.778 0,-4.605 3.907,-7.422 9.779,-7.422 3.432,-0.052 6.807,0.88 9.726,2.686 z m 29.352,6.985 c 0.001,0.485 -0.025,0.969 -0.077,1.451 h -19.627 c 0.545,5.273 4.245,7.99 8.666,7.99 a 11.33,11.33 0 0 0 7.752,-3.07 l 2.073,2.64 a 13.747,13.747 0 0 1 -4.641,2.944 c -1.729,0.66 -3.573,0.964 -5.422,0.894 -7.238,0 -12.381,-5.143 -12.381,-12.719 0,-7.576 5.166,-12.749 12.151,-12.749 6.647,-0.054 11.46,5.112 11.506,12.619 z m -19.65,-1.681 h 15.72 c -0.492,-4.606 -3.493,-7.522 -7.676,-7.522 -4.506,-0.008 -7.423,3.062 -8.044,7.491 z m 40.904,-6.24 h -10.577 v 11.59 c 0,3.838 2.019,5.511 4.866,5.511 a 8.925,8.925 0 0 0 5.143,-1.735 l 1.812,2.925 a 11.79,11.79 0 0 1 -7.269,2.425 c -5.274,0 -8.444,-2.893 -8.444,-9.049 v -11.667 h -5.373 v -3.493 h 5.373 v -7.775 h 3.838 v 7.775 h 10.577 z"
       fill="#0e2a47"
       id="path1061" />
  </g>
  <defs
     id="defs1068">
    <clipPath
       id="a">
      <path
         fill="#ffffff"
         transform="translate(226,99.045)"
         d="M 0,0 H 228.947 V 50 H 0 Z"
         id="path1065" />
    </clipPath>
  </defs>
</svg>
