<?xml version="1.0" encoding="UTF-8" standalone="no"?>
<!-- Created with Inkscape (http://www.inkscape.org/) -->

<svg
   width="175.77704mm"
   height="175.77704mm"
   viewBox="0 0 175.77704 175.77704"
   version="1.1"
   id="svg5"
   inkscape:version="1.1.2 (0a00cf5339, 2022-02-04)"
   sodipodi:docname="devresources.svg"
   xmlns:inkscape="http://www.inkscape.org/namespaces/inkscape"
   xmlns:sodipodi="http://sodipodi.sourceforge.net/DTD/sodipodi-0.dtd"
   xmlns="http://www.w3.org/2000/svg"
   xmlns:svg="http://www.w3.org/2000/svg">
  <sodipodi:namedview
     id="namedview7"
     pagecolor="#ffffff"
     bordercolor="#666666"
     borderopacity="1.0"
     inkscape:pageshadow="2"
     inkscape:pageopacity="0.0"
     inkscape:pagecheckerboard="0"
     inkscape:document-units="mm"
     showgrid="false"
     inkscape:zoom="0.64052329"
     inkscape:cx="359.86201"
     inkscape:cy="293.51002"
     inkscape:window-width="1920"
     inkscape:window-height="947"
     inkscape:window-x="0"
     inkscape:window-y="32"
     inkscape:window-maximized="1"
     inkscape:current-layer="layer1" />
  <defs
     id="defs2" />
  <g
     inkscape:label="Layer 1"
     inkscape:groupmode="layer"
     id="layer1"
     transform="translate(-9.8571177,-71.039688)">
    <rect
       style="fill:#0d0e12;fill-opacity:1;stroke-width:0;stroke:none"
       id="rect990"
       width="175.77704"
       height="175.77704"
       x="9.8571177"
       y="71.039688" />
    <g
       style="fill:none"
       id="g1034"
       transform="matrix(0.49342794,0,0,0.49342794,31.223639,152.23001)">
      <path
         d="M 0.604004,30 V 0.599976 H 13.204 c 0.812,0 1.512,0.294 2.1,0.882004 0.588,0.588 0.882,1.302 0.882,2.142 V 26.976 c 0,0.84 -0.294,1.554 -0.882,2.142 C 14.716,29.706 14.016,30 13.204,30 Z M 4.51,26.094 h 6.3 c 0.392,0 0.742,-0.14 1.05,-0.42 0.308,-0.308 0.462,-0.672 0.462,-1.092 V 6.01798 c 0,-0.42 -0.154,-0.77 -0.462,-1.05 -0.308,-0.308 -0.658,-0.462 -1.05,-0.462 h -6.3 z"
         fill="#ffffff"
         id="path992" />
      <path
         d="M 23.5071,30 V 0.599976 h 15.624 V 4.46398 H 27.4131 V 11.772 h 7.812 l -0.882,3.906 h -6.93 v 10.416 h 11.718 V 30 Z"
         fill="#ffffff"
         id="path994" />
      <path
         d="M 50.9338,30 45.1798,0.599976 h 3.906 L 52.9918,20.466 56.8978,0.599976 h 3.906 L 55.0078,30 Z"
         fill="#ffffff"
         id="path996" />
      <path
         d="M 78.5153,30 V 0.599976 h 12.6 c 0.812,0 1.512,0.294 2.1,0.882004 0.588,0.588 0.882,1.302 0.882,2.142 V 12.654 c 0,0.84 -0.294,1.554 -0.882,2.142 -0.588,0.588 -1.288,0.882 -2.1,0.882 h -0.882 L 94.0973,30 h -3.864 l -3.906,-14.322 h -3.906 V 30 Z m 3.906,-18.228 h 6.3 c 0.392,0 0.742,-0.14 1.05,-0.42 0.308,-0.308 0.462,-0.672 0.462,-1.092 V 6.01798 c 0,-0.42 -0.154,-0.77 -0.462,-1.05 -0.308,-0.308 -0.658,-0.462 -1.05,-0.462 h -6.3 z"
         fill="#ffffff"
         id="path998" />
      <path
         d="M 101.338,30 V 0.599976 h 15.624 V 4.46398 H 105.244 V 11.772 h 7.812 l -0.882,3.906 h -6.93 v 10.416 h 11.718 V 30 Z"
         fill="#ffffff"
         id="path1000" />
      <path
         d="m 126.73,30 c -0.84,0 -1.554,-0.294 -2.142,-0.882 -0.588,-0.588 -0.882,-1.302 -0.882,-2.142 v -6.51 l 3.906,0.882 v 3.234 c 0,0.42 0.14,0.784 0.42,1.092 0.308,0.28 0.658,0.42 1.05,0.42 h 4.788 c 0.42,0 0.77,-0.14 1.05,-0.42 0.308,-0.308 0.462,-0.672 0.462,-1.092 V 17.19 c 0,-0.42 -0.154,-0.77 -0.462,-1.05 -0.28,-0.308 -0.63,-0.462 -1.05,-0.462 h -7.14 c -0.84,0 -1.554,-0.294 -2.142,-0.882 -0.588,-0.588 -0.882,-1.302 -0.882,-2.142 V 3.62398 c 0,-0.84 0.294,-1.554 0.882,-2.142 0.588,-0.588004 1.302,-0.882004 2.142,-0.882004 h 9.534 c 0.84,0 1.554,0.294 2.142,0.882004 0.588,0.588 0.882,1.302 0.882,2.142 v 4.536 l -3.906,-0.924 v -1.218 c 0,-0.42 -0.154,-0.77 -0.462,-1.05 -0.28,-0.308 -0.63,-0.462 -1.05,-0.462 h -4.788 c -0.392,0 -0.742,0.154 -1.05,0.462 -0.28,0.28 -0.42,0.63 -0.42,1.05 V 10.26 c 0,0.42 0.14,0.784 0.42,1.092 0.308,0.28 0.658,0.42 1.05,0.42 h 7.182 c 0.84,0 1.554,0.294 2.142,0.882 0.588,0.588 0.882,1.302 0.882,2.142 v 12.18 c 0,0.84 -0.294,1.554 -0.882,2.142 -0.588,0.588 -1.302,0.882 -2.142,0.882 z"
         fill="#ffffff"
         id="path1002" />
      <path
         d="m 149.469,30 c -0.784,0 -1.47,-0.294 -2.058,-0.882 -0.588,-0.588 -0.882,-1.316 -0.882,-2.184 V 3.66598 c 0,-0.868 0.294,-1.596 0.882,-2.184 0.588,-0.588004 1.274,-0.882004 2.058,-0.882004 h 9.534 c 0.896,0 1.624,0.294 2.184,0.882004 0.588,0.588 0.882,1.316 0.882,2.184 V 26.934 c 0,0.868 -0.294,1.596 -0.882,2.184 -0.56,0.588 -1.288,0.882 -2.184,0.882 z m 2.394,-3.864 h 4.746 c 0.476,0 0.854,-0.154 1.134,-0.462 0.308,-0.308 0.462,-0.686 0.462,-1.134 V 6.05998 c 0,-0.476 -0.154,-0.854 -0.462,-1.134 -0.28,-0.308 -0.658,-0.462 -1.134,-0.462 h -4.746 c -0.392,0 -0.742,0.154 -1.05,0.462 -0.28,0.28 -0.42,0.658 -0.42,1.134 V 24.54 c 0,0.448 0.14,0.826 0.42,1.134 0.308,0.308 0.658,0.462 1.05,0.462 z"
         fill="#ffffff"
         id="path1004" />
      <path
         d="m 172.416,30 c -0.84,0 -1.554,-0.294 -2.142,-0.882 -0.588,-0.588 -0.882,-1.302 -0.882,-2.142 V 0.599976 h 3.906 V 24.624 c 0,0.392 0.14,0.742 0.42,1.05 0.308,0.28 0.672,0.42 1.092,0.42 h 4.746 c 0.42,0 0.77,-0.14 1.05,-0.42 0.308,-0.308 0.462,-0.658 0.462,-1.05 V 0.599976 h 3.906 V 26.976 c 0,0.84 -0.294,1.554 -0.882,2.142 C 183.504,29.706 182.79,30 181.95,30 Z"
         fill="#ffffff"
         id="path1006" />
      <path
         d="M 192.621,30 V 0.599976 h 12.6 c 0.812,0 1.512,0.294 2.1,0.882004 0.588,0.588 0.882,1.302 0.882,2.142 V 12.654 c 0,0.84 -0.294,1.554 -0.882,2.142 -0.588,0.588 -1.288,0.882 -2.1,0.882 h -0.882 L 208.203,30 h -3.864 l -3.906,-14.322 h -3.906 V 30 Z m 3.906,-18.228 h 6.3 c 0.392,0 0.742,-0.14 1.05,-0.42 0.308,-0.308 0.462,-0.672 0.462,-1.092 V 6.01798 c 0,-0.42 -0.154,-0.77 -0.462,-1.05 -0.308,-0.308 -0.658,-0.462 -1.05,-0.462 h -6.3 z"
         fill="#ffffff"
         id="path1008" />
      <path
         d="m 218.56,30 c -0.784,0 -1.484,-0.294 -2.1,-0.882 -0.616,-0.588 -0.924,-1.302 -0.924,-2.142 V 3.62398 c 0,-0.812 0.308,-1.512 0.924,-2.1 0.616,-0.616004 1.316,-0.924004 2.1,-0.924004 h 9.534 c 0.868,0 1.582,0.308 2.142,0.924004 0.588,0.588 0.882,1.288 0.882,2.1 v 5.46 l -3.906,0.882 v -3.948 c 0,-0.392 -0.14,-0.742 -0.42,-1.05 -0.252,-0.308 -0.602,-0.462 -1.05,-0.462 h -4.788 c -0.392,0 -0.742,0.154 -1.05,0.462 -0.308,0.308 -0.462,0.658 -0.462,1.05 V 24.582 c 0,0.448 0.154,0.812 0.462,1.092 0.308,0.28 0.658,0.42 1.05,0.42 h 4.788 c 0.448,0 0.798,-0.14 1.05,-0.42 0.28,-0.28 0.42,-0.644 0.42,-1.092 v -3.066 l 3.906,-0.924 v 6.384 c 0,0.84 -0.294,1.554 -0.882,2.142 -0.56,0.588 -1.274,0.882 -2.142,0.882 z"
         fill="#ffffff"
         id="path1010" />
      <path
         d="M 238.531,30 V 0.599976 h 15.624 V 4.46398 H 242.437 V 11.772 h 7.812 l -0.882,3.906 h -6.93 v 10.416 h 11.718 V 30 Z"
         fill="#ffffff"
         id="path1012" />
      <path
         d="m 263.923,30 c -0.84,0 -1.554,-0.294 -2.142,-0.882 -0.588,-0.588 -0.883,-1.302 -0.883,-2.142 v -6.51 l 3.907,0.882 v 3.234 c 0,0.42 0.14,0.784 0.42,1.092 0.308,0.28 0.658,0.42 1.05,0.42 h 4.787 c 0.421,0 0.771,-0.14 1.051,-0.42 0.308,-0.308 0.462,-0.672 0.462,-1.092 V 17.19 c 0,-0.42 -0.154,-0.77 -0.462,-1.05 -0.28,-0.308 -0.63,-0.462 -1.051,-0.462 h -7.139 c -0.84,0 -1.554,-0.294 -2.142,-0.882 -0.588,-0.588 -0.883,-1.302 -0.883,-2.142 V 3.62398 c 0,-0.84 0.295,-1.554 0.883,-2.142 0.588,-0.588004 1.302,-0.882004 2.142,-0.882004 h 9.534 c 0.84,0 1.553,0.294 2.142,0.882004 0.588,0.588 0.881,1.302 0.881,2.142 v 4.536 l -3.905,-0.924 v -1.218 c 0,-0.42 -0.154,-0.77 -0.462,-1.05 -0.28,-0.308 -0.63,-0.462 -1.051,-0.462 h -4.787 c -0.392,0 -0.742,0.154 -1.05,0.462 -0.28,0.28 -0.42,0.63 -0.42,1.05 V 10.26 c 0,0.42 0.14,0.784 0.42,1.092 0.308,0.28 0.658,0.42 1.05,0.42 h 7.182 c 0.84,0 1.553,0.294 2.142,0.882 0.588,0.588 0.881,1.302 0.881,2.142 v 12.18 c 0,0.84 -0.293,1.554 -0.881,2.142 C 275.01,29.706 274.297,30 273.457,30 Z"
         fill="#ffffff"
         id="path1014" />
    </g>
  </g>
</svg>
