<?xml version="1.0" encoding="UTF-8" standalone="no"?>
<!-- Created with Inkscape (http://www.inkscape.org/) -->

<svg
   width="175.77704mm"
   height="175.77704mm"
   viewBox="0 0 175.77704 175.77704"
   version="1.1"
   id="svg5"
   inkscape:version="1.1.2 (0a00cf5339, 2022-02-04)"
   sodipodi:docname="publicapis.svg"
   xmlns:inkscape="http://www.inkscape.org/namespaces/inkscape"
   xmlns:sodipodi="http://sodipodi.sourceforge.net/DTD/sodipodi-0.dtd"
   xmlns="http://www.w3.org/2000/svg"
   xmlns:svg="http://www.w3.org/2000/svg">
  <sodipodi:namedview
     id="namedview7"
     pagecolor="#ffffff"
     bordercolor="#666666"
     borderopacity="1.0"
     inkscape:pageshadow="2"
     inkscape:pageopacity="0.0"
     inkscape:pagecheckerboard="0"
     inkscape:document-units="mm"
     showgrid="false"
     inkscape:zoom="0.64052329"
     inkscape:cx="359.86201"
     inkscape:cy="293.51002"
     inkscape:window-width="1920"
     inkscape:window-height="947"
     inkscape:window-x="0"
     inkscape:window-y="32"
     inkscape:window-maximized="1"
     inkscape:current-layer="layer1" />
  <defs
     id="defs2" />
  <g
     inkscape:label="Layer 1"
     inkscape:groupmode="layer"
     id="layer1"
     transform="translate(-9.8571177,-71.039688)">
    <rect
       style="fill:#0d0e12;fill-opacity:1;stroke-width:0;stroke:none"
       id="rect990"
       width="175.77704"
       height="175.77704"
       x="9.8571177"
       y="71.039688" />
    <g
       style="fill:none"
       id="g4158"
       transform="matrix(0.78183704,0,0,0.78183704,19.144856,146.47716)">
      <path
         d="M 0.604,30 V 0.599998 h 12.6 c 0.812,0 1.512,0.294 2.1,0.882002 0.616,0.588 0.924,1.302 0.924,2.142 v 9.03 c 0,0.84 -0.308,1.554 -0.924,2.142 -0.588,0.588 -1.288,0.882 -2.1,0.882 H 4.51 V 30 Z M 4.51,11.772 h 6.3 c 0.42,0 0.77,-0.14 1.05,-0.42 0.308,-0.308 0.462,-0.672 0.462,-1.092 V 5.976 C 12.322,5.584 12.168,5.248 11.86,4.968 11.58,4.66 11.23,4.506 10.81,4.506 H 4.51 Z M 25.7239,30 c -0.84,0 -1.554,-0.294 -2.142,-0.882 -0.588,-0.588 -0.882,-1.302 -0.882,-2.142 V 0.599998 h 3.906 V 24.624 c 0,0.392 0.14,0.742 0.42,1.05 0.308,0.28 0.672,0.42 1.092,0.42 h 4.746 c 0.42,0 0.77,-0.14 1.05,-0.42 0.308,-0.308 0.462,-0.658 0.462,-1.05 V 0.599998 h 3.906 V 26.976 c 0,0.84 -0.294,1.554 -0.882,2.142 -0.588,0.588 -1.302,0.882 -2.142,0.882 z m 20.207,0 V 0.557999 h 10.668 c 0.868,0 1.596,0.308 2.184,0.924001 0.588,0.588 0.882,1.288 0.882,2.1 v 8.358 c 0.56,0.196 1.022,0.56 1.386,1.092 0.364,0.532 0.546,1.106 0.546,1.722 v 12.18 c 0,0.868 -0.294,1.596 -0.882,2.184 -0.588,0.588 -1.302,0.882 -2.142,0.882 z m 3.948,-18.228 h 4.326 c 0.42,0 0.784,-0.154 1.092,-0.462 0.308,-0.308 0.462,-0.658 0.462,-1.05 V 5.976 c 0,-0.42 -0.154,-0.77 -0.462,-1.05 -0.308,-0.308 -0.672,-0.462 -1.092,-0.462 h -4.326 z m 0,14.322 h 6.342 c 0.392,0 0.728,-0.14 1.008,-0.42 0.308,-0.308 0.462,-0.686 0.462,-1.134 v -7.392 c 0,-0.392 -0.154,-0.742 -0.462,-1.05 -0.28,-0.308 -0.616,-0.462 -1.008,-0.462 h -6.342 z M 68.4061,30 V 0.599998 h 3.906 V 26.094 h 10.038 V 30 Z m 19.8483,0 V 0.599998 h 3.906 V 30 Z m 12.9876,0 c -0.784,0 -1.4841,-0.294 -2.1001,-0.882 -0.616,-0.588 -0.924,-1.302 -0.924,-2.142 V 3.624 c 0,-0.812 0.308,-1.512 0.924,-2.1 0.616,-0.616002 1.3161,-0.924002 2.1001,-0.924002 h 9.534 c 0.868,0 1.582,0.308 2.142,0.924002 0.588,0.588 0.882,1.288 0.882,2.1 v 5.46 l -3.906,0.882 V 6.018 c 0,-0.392 -0.14,-0.742 -0.42,-1.05 -0.252,-0.308 -0.602,-0.462 -1.05,-0.462 h -4.788 c -0.392,0 -0.742,0.154 -1.05,0.462 -0.308,0.308 -0.462,0.658 -0.462,1.05 v 18.564 c 0,0.448 0.154,0.812 0.462,1.092 0.308,0.28 0.658,0.42 1.05,0.42 h 4.788 c 0.448,0 0.798,-0.14 1.05,-0.42 0.28,-0.28 0.42,-0.644 0.42,-1.092 v -3.066 l 3.906,-0.924 v 6.384 c 0,0.84 -0.294,1.554 -0.882,2.142 -0.56,0.588 -1.274,0.882 -2.142,0.882 z m 28.676,0.042 5.922,-29.400003 h 3.822 L 145.5,30.042 h -3.906 L 140.46,24.54 h -5.586 l -1.05,5.502 z m 5.712,-9.366 h 4.158 L 137.772,10.218 Z M 151.53,30 V 0.599998 h 12.6 c 0.812,0 1.512,0.294 2.1,0.882002 0.616,0.588 0.924,1.302 0.924,2.142 v 9.03 c 0,0.84 -0.308,1.554 -0.924,2.142 -0.588,0.588 -1.288,0.882 -2.1,0.882 h -8.694 V 30 Z m 3.906,-18.228 h 6.3 c 0.42,0 0.77,-0.14 1.05,-0.42 0.308,-0.308 0.462,-0.672 0.462,-1.092 V 5.976 c 0,-0.392 -0.154,-0.728 -0.462,-1.008 -0.28,-0.308 -0.63,-0.462 -1.05,-0.462 h -6.3 z M 173.626,30 V 0.599998 h 3.906 V 30 Z m 13.724,0 c -0.84,0 -1.554,-0.294 -2.142,-0.882 -0.588,-0.588 -0.882,-1.302 -0.882,-2.142 v -6.51 l 3.906,0.882 v 3.234 c 0,0.42 0.14,0.784 0.42,1.092 0.308,0.28 0.658,0.42 1.05,0.42 h 4.788 c 0.42,0 0.77,-0.14 1.05,-0.42 0.308,-0.308 0.462,-0.672 0.462,-1.092 V 17.19 c 0,-0.42 -0.154,-0.77 -0.462,-1.05 -0.28,-0.308 -0.63,-0.462 -1.05,-0.462 h -7.14 c -0.84,0 -1.554,-0.294 -2.142,-0.882 -0.588,-0.588 -0.882,-1.302 -0.882,-2.142 v -9.03 c 0,-0.84 0.294,-1.554 0.882,-2.142 0.588,-0.588002 1.302,-0.882002 2.142,-0.882002 h 9.534 c 0.84,0 1.554,0.294 2.142,0.882002 0.588,0.588 0.882,1.302 0.882,2.142 V 8.16 L 196.002,7.236 V 6.018 c 0,-0.42 -0.154,-0.77 -0.462,-1.05 -0.28,-0.308 -0.63,-0.462 -1.05,-0.462 h -4.788 c -0.392,0 -0.742,0.154 -1.05,0.462 -0.28,0.28 -0.42,0.63 -0.42,1.05 v 4.242 c 0,0.42 0.14,0.784 0.42,1.092 0.308,0.28 0.658,0.42 1.05,0.42 h 7.182 c 0.84,0 1.554,0.294 2.142,0.882 0.588,0.588 0.882,1.302 0.882,2.142 v 12.18 c 0,0.84 -0.294,1.554 -0.882,2.142 -0.588,0.588 -1.302,0.882 -2.142,0.882 z"
         fill="#ffffff"
         id="path4149" />
    </g>
  </g>
</svg>
