<?xml version="1.0" encoding="UTF-8" standalone="no"?>
<!-- Created with Inkscape (http://www.inkscape.org/) -->

<svg
   width="114.51177mm"
   height="114.51177mm"
   viewBox="0 0 114.51177 114.51177"
   version="1.1"
   id="svg1"
   xml:space="preserve"
   inkscape:version="1.3.2 (091e20ef0f, 2023-11-25)"
   sodipodi:docname="footerdesign.svg"
   xmlns:inkscape="http://www.inkscape.org/namespaces/inkscape"
   xmlns:sodipodi="http://sodipodi.sourceforge.net/DTD/sodipodi-0.dtd"
   xmlns="http://www.w3.org/2000/svg"
   xmlns:svg="http://www.w3.org/2000/svg"><sodipodi:namedview
     id="namedview1"
     pagecolor="#ffffff"
     bordercolor="#000000"
     borderopacity="0.25"
     inkscape:showpageshadow="2"
     inkscape:pageopacity="0.0"
     inkscape:pagecheckerboard="0"
     inkscape:deskcolor="#d1d1d1"
     inkscape:document-units="mm"
     inkscape:zoom="1.3291526"
     inkscape:cx="185.4565"
     inkscape:cy="245.26905"
     inkscape:window-width="1920"
     inkscape:window-height="952"
     inkscape:window-x="0"
     inkscape:window-y="0"
     inkscape:window-maximized="1"
     inkscape:current-layer="layer1" /><defs
     id="defs1"><clipPath
       id="a"><path
         fill="#fff"
         d="M0 0h1600v458.579H0z"
         transform="translate(0 .71)"
         id="path2" /></clipPath></defs><g
     inkscape:label="Layer 1"
     inkscape:groupmode="layer"
     id="layer1"
     transform="translate(-37.958572,-80.755272)"><rect
       style="fill:#141414;fill-opacity:1;stroke:none;stroke-width:2.769;stroke-miterlimit:11.1"
       id="rect1"
       width="114.51177"
       height="114.51177"
       x="37.958572"
       y="80.755272" /><g
       style="fill:none"
       id="g1"
       transform="matrix(0.05703068,0,0,0.05703068,49.581913,121.86774)"><path
         fill="#ffffff"
         fill-rule="evenodd"
         d="m 1539.31,31.288 c -2.03,3.419 -3.05,7.206 -3.05,11.362 0,4.156 1.02,7.957 3.05,11.402 a 23.62,23.62 0 0 0 8.2,8.207 c 3.46,2.025 7.25,3.038 11.41,3.038 3.65,0 6.98,-0.79 9.98,-2.368 3.01,-1.578 5.46,-3.735 7.38,-6.47 1.95,-2.736 3.14,-5.826 3.6,-9.272 h -11.02 c -0.44,2.236 -1.57,4.064 -3.39,5.485 -1.82,1.394 -4,2.09 -6.55,2.09 -2.21,0 -4.23,-0.552 -6.08,-1.657 a 13.01,13.01 0 0 1 -4.38,-4.379 c -1.08,-1.841 -1.62,-3.88 -1.62,-6.115 0,-2.21 0.54,-4.222 1.62,-6.037 1.11,-1.84 2.57,-3.3 4.38,-4.379 1.85,-1.105 3.87,-1.657 6.08,-1.657 2.55,0 4.82,0.71 6.78,2.13 1.98,1.395 3.19,3.21 3.64,5.445 h 11.01 c -0.45,-3.446 -1.69,-6.536 -3.71,-9.271 -2.01,-2.736 -4.54,-4.893 -7.62,-6.47 -3.08,-1.579 -6.45,-2.368 -10.1,-2.368 -4.16,0 -7.95,1.026 -11.41,3.077 -3.41,2.026 -6.15,4.761 -8.2,8.207 z m 3.12,49.79 c 5.05,2.157 10.44,3.235 16.18,3.235 5.76,0 11.16,-1.078 16.21,-3.235 5.06,-2.157 9.49,-5.142 13.3,-8.956 a 42.255,42.255 0 0 0 8.96,-13.296 c 2.16,-5.024 3.23,-10.416 3.2,-16.176 -0.02,-5.76 -1.12,-11.152 -3.28,-16.176 -2.16,-5.023 -5.15,-9.442 -8.95,-13.256 -3.8,-3.84 -8.22,-6.839 -13.27,-8.995 -5.02,-2.157 -10.41,-3.236 -16.17,-3.236 -5.74,0 -11.12,1.079 -16.14,3.236 -5.03,2.156 -9.45,5.155 -13.27,8.995 a 42.377,42.377 0 0 0 -8.99,13.256 c -2.16,5.024 -3.26,10.416 -3.28,16.176 -0.02,5.76 1.04,11.152 3.19,16.176 2.19,5.024 5.19,9.456 9.01,13.296 3.84,3.814 8.26,6.8 13.3,8.956 z m 27.82,-10.89 c -3.64,1.553 -7.52,2.328 -11.64,2.328 -4.13,0 -8.01,-0.775 -11.65,-2.327 a 30.32,30.32 0 0 1 -9.51,-6.431 30.278,30.278 0 0 1 -6.43,-9.509 c -1.52,-3.63 -2.29,-7.482 -2.29,-11.56 0.03,-4.129 0.81,-7.995 2.36,-11.599 1.56,-3.63 3.7,-6.812 6.44,-9.547 a 30.392,30.392 0 0 1 9.5,-6.431 c 3.62,-1.552 7.47,-2.328 11.58,-2.328 4.12,0 7.99,0.776 11.59,2.328 a 30.25,30.25 0 0 1 9.52,6.43 c 2.74,2.71 4.86,5.88 6.39,9.509 1.56,3.63 2.34,7.51 2.37,11.639 0,4.103 -0.78,7.97 -2.34,11.6 -1.52,3.602 -3.64,6.772 -6.38,9.507 -2.72,2.71 -5.89,4.84 -9.51,6.392 z M 0,159.328 V 559.292 H 83.348 V 392.64 H 250.043 V 325.979 H 83.348 v -99.992 h 183.365 v -66.66 H 0 Z M 266.713,9.334 H 0 v 66.66 H 266.713 Z M 1416.91,259.297 v 299.972 h 83.23 V 389.558 c 0,-12.238 2.73,-23.044 8.2,-32.419 5.59,-9.374 13.15,-16.665 22.65,-21.873 19.83,-10.976 47.85,-9.948 69.29,-3.515 v -73.822 c -24.13,-6.031 -51.8,-3.587 -72.01,11.523 -12.9,9.504 -22.08,23.566 -27.55,42.183 h -3.12 v -52.338 z m -327.73,0.007 v 62.495 h -56.45 v 145.299 c 0,7.681 1.17,13.671 3.51,17.968 2.35,4.165 5.6,7.095 9.77,8.787 4.3,1.694 9.25,2.54 14.85,2.54 3.9,0 7.81,-0.326 11.72,-0.977 3.9,-0.782 6.9,-1.367 8.98,-1.758 l 13.09,61.909 c -4.17,1.301 -10.03,2.8 -17.58,4.492 -7.55,1.822 -16.73,2.93 -27.54,3.32 -20.06,0.781 -37.64,-1.888 -52.747,-8.007 -14.977,-6.119 -26.633,-15.624 -34.967,-28.514 -8.335,-12.89 -12.438,-29.164 -12.308,-48.823 V 321.799 h -41.022 v -62.495 h 41.022 v -71.869 h 83.222 v 71.869 z M 602.878,410.47 c 0,87.337 58.233,154.674 147.681,154.674 89.396,0 147.683,-67.409 147.683,-154.674 0,-87.248 -52.954,-155.065 -147.683,-155.065 -94.727,0 -147.681,67.745 -147.681,155.065 z m 210.778,-0.586 c 0,39.359 -15.166,90.811 -62.705,90.811 -48.083,0 -63.488,-50.816 -63.488,-90.811 0,-39.868 14.299,-91.008 63.488,-91.008 49.188,0 62.705,51.776 62.705,91.008 z m -389.455,155.26 c -89.448,0 -147.681,-67.337 -147.681,-154.674 0,-87.32 52.954,-155.065 147.681,-155.065 94.729,0 147.683,67.817 147.683,155.065 0,87.265 -58.287,154.674 -147.683,154.674 z m 0.391,-64.449 c 47.538,0 62.706,-51.452 62.706,-90.811 0,-39.232 -13.517,-91.008 -62.706,-91.008 -49.188,0 -63.488,51.14 -63.488,91.008 0,39.995 15.405,90.811 63.488,90.811 z m 688.858,-7.811 c 25.72,49.474 76.74,72.26 130.87,72.26 59.93,0 122.54,-28.241 135.98,-91.789 l -76.98,-5.078 c -9.16,24.16 -32.99,34.763 -57.62,34.763 -42.09,0 -67.98,-31.532 -67.98,-72.26 v -0.195 h 204.33 v -22.85 c 0,-84.818 -44.88,-152.33 -141.04,-152.33 -96.16,0 -145.53,69.455 -145.53,155.26 0,31.637 5.99,59.044 17.97,82.219 z M 1303.71,379.027 H 1177.8 c 1.76,-34.603 29.51,-61.517 64.57,-61.517 35.99,0 61.34,26.558 61.34,61.517 z"
         clip-rule="evenodd"
         id="path1"
         clip-path="url(#clipPath2)" /></g></g></svg>
