<?xml version="1.0" encoding="UTF-8" standalone="no"?>
<!-- Created with Inkscape (http://www.inkscape.org/) -->

<svg
   width="90.208275mm"
   height="90.208275mm"
   viewBox="0 0 90.208285 90.208281"
   version="1.1"
   id="svg5"
   inkscape:version="1.1.2 (0a00cf5339, 2022-02-04)"
   sodipodi:docname="drive.svg"
   xmlns:inkscape="http://www.inkscape.org/namespaces/inkscape"
   xmlns:sodipodi="http://sodipodi.sourceforge.net/DTD/sodipodi-0.dtd"
   xmlns="http://www.w3.org/2000/svg"
   xmlns:svg="http://www.w3.org/2000/svg">
  <sodipodi:namedview
     id="namedview7"
     pagecolor="#ffffff"
     bordercolor="#666666"
     borderopacity="1.0"
     inkscape:pageshadow="2"
     inkscape:pageopacity="0.0"
     inkscape:pagecheckerboard="0"
     inkscape:document-units="mm"
     showgrid="false"
     inkscape:zoom="1.3808221"
     inkscape:cx="61.195428"
     inkscape:cy="175.98212"
     inkscape:window-width="1920"
     inkscape:window-height="947"
     inkscape:window-x="0"
     inkscape:window-y="32"
     inkscape:window-maximized="1"
     inkscape:current-layer="layer1" />
  <defs
     id="defs2" />
  <g
     inkscape:label="Layer 1"
     inkscape:groupmode="layer"
     id="layer1"
     transform="translate(-41.997002,-78.209167)">
    <rect
       style="fill:#ffffff;stroke-width:0"
       id="rect846"
       width="90.208275"
       height="90.208275"
       x="41.997002"
       y="78.209167" />
    <g
       id="g1822"
       transform="matrix(0.06853762,0,0,0.06853762,55.565546,94.718287)">
      <path
         d="M 641.86,570.64 H 298.27 l -147.13,257 c 17.7,9 37.8,14.77 50.8,14.77 135.16,0 411,-2 547.93,-2 14.08,0 27.26,-4.8 39.08,-12.32 z"
         fill="#4185f3"
         id="path1798" />
      <path
         d="m 151.14,827.65 147.13,-257 H 0.13 c -0.15,17.86 6.2,34.2 16.15,52.84 27.72,51.86 74.62,134.76 102.17,178.06 6.79,10.67 33.75,26.64 32.69,26.1 z"
         fill="#1767d1"
         id="path1800" />
      <path
         d="M 641.86,570.64 789,828.05 c 19.07,-12.12 34.61,-31.32 44.7,-49 22.78,-39.87 61.3,-106.26 87.87,-151.21 12.35,-20.9 17.15,-39.67 16.85,-57.22 z"
         fill="#e94235"
         id="path1802" />
      <path
         d="M 298.3,570.66 469.92,272.3 316.54,16.58 C 299.95,27.49 285.76,42.3 279.32,53.58 212.37,171 77.5,411.65 9.68,530.59 a 73.54,73.54 0 0 0 -9.59,40.07 z"
         fill="#30a753"
         id="path1804" />
      <path
         d="M 641.85,570.66 469.92,272.3 619.09,16.87 c 16.59,10.92 34.8,25.43 41.24,36.72 66.95,117.41 201.82,358.06 269.67,477 7,12.23 9.11,26.07 8.43,40.07 z"
         fill="#f9bc00"
         id="path1806" />
      <path
         d="M 316.52,16.62 469.92,272.3 619.09,16.87 C 603.69,7.87 581.88,2.54 560.76,1.87 502,-0.09 406.74,-0.88 355.47,1.35 342.83,1.9 316.68,16.51 316.52,16.62 Z"
         fill="#0f8038"
         id="path1808" />
    </g>
  </g>
</svg>
