<?xml version="1.0" encoding="UTF-8" standalone="no"?>
<!-- Created with Inkscape (http://www.inkscape.org/) -->

<svg
   width="90.208275mm"
   height="90.208275mm"
   viewBox="0 0 90.208285 90.208281"
   version="1.1"
   id="svg5"
   inkscape:version="1.1.2 (0a00cf5339, 2022-02-04)"
   sodipodi:docname="gmail.svg"
   xmlns:inkscape="http://www.inkscape.org/namespaces/inkscape"
   xmlns:sodipodi="http://sodipodi.sourceforge.net/DTD/sodipodi-0.dtd"
   xmlns="http://www.w3.org/2000/svg"
   xmlns:svg="http://www.w3.org/2000/svg">
  <sodipodi:namedview
     id="namedview7"
     pagecolor="#ffffff"
     bordercolor="#666666"
     borderopacity="1.0"
     inkscape:pageshadow="2"
     inkscape:pageopacity="0.0"
     inkscape:pagecheckerboard="0"
     inkscape:document-units="mm"
     showgrid="false"
     inkscape:zoom="0.97638868"
     inkscape:cx="-176.67145"
     inkscape:cy="65.547667"
     inkscape:window-width="1920"
     inkscape:window-height="947"
     inkscape:window-x="0"
     inkscape:window-y="32"
     inkscape:window-maximized="1"
     inkscape:current-layer="layer1" />
  <defs
     id="defs2" />
  <g
     inkscape:label="Layer 1"
     inkscape:groupmode="layer"
     id="layer1"
     transform="translate(-41.997002,-78.209167)">
    <rect
       style="fill:#ffffff;stroke-width:0"
       id="rect846"
       width="90.208275"
       height="90.208275"
       x="41.997002"
       y="78.209167" />
    <g
       fill="none"
       fill-rule="evenodd"
       id="g1651"
       transform="matrix(0.12159904,0,0,0.12159904,55.035127,93.093075)">
      <g
         fill-rule="nonzero"
         id="g1645">
        <path
           d="m 34.91,448.818 h 81.454 V 251 L 0,163.727 V 413.91 c 0,19.287 15.622,34.91 34.91,34.91 z"
           fill="#4285f4"
           id="path1639" />
        <path
           d="m 395.636,448.818 h 81.455 c 19.287,0 34.909,-15.622 34.909,-34.909 V 163.727 L 395.636,251 Z"
           fill="#34a853"
           id="path1641" />
        <path
           d="M 395.636,99.727 V 251 L 512,163.727 V 117.182 C 512,74.04 462.75,49.4 428.218,75.291 Z"
           fill="#fbbc04"
           id="path1643" />
      </g>
      <path
         d="M 116.364,251 V 99.727 L 256,204.455 395.636,99.727 V 251 L 256,355.727 Z"
         fill="#ea4335"
         id="path1647" />
      <path
         d="m 0,117.182 v 46.545 L 116.364,251 V 99.727 L 83.782,75.291 C 49.25,49.4 0,74.04 0,117.18 Z"
         fill="#c5221f"
         fill-rule="nonzero"
         id="path1649" />
    </g>
  </g>
</svg>
