<?xml version="1.0" encoding="UTF-8" standalone="no"?>
<!-- Created with Inkscape (http://www.inkscape.org/) -->

<svg
   width="90.208275mm"
   height="90.208275mm"
   viewBox="0 0 90.208285 90.208281"
   version="1.1"
   id="svg5"
   inkscape:version="1.1.2 (0a00cf5339, 2022-02-04)"
   sodipodi:docname="maps.svg"
   xmlns:inkscape="http://www.inkscape.org/namespaces/inkscape"
   xmlns:sodipodi="http://sodipodi.sourceforge.net/DTD/sodipodi-0.dtd"
   xmlns="http://www.w3.org/2000/svg"
   xmlns:svg="http://www.w3.org/2000/svg">
  <sodipodi:namedview
     id="namedview7"
     pagecolor="#ffffff"
     bordercolor="#666666"
     borderopacity="1.0"
     inkscape:pageshadow="2"
     inkscape:pageopacity="0.0"
     inkscape:pagecheckerboard="0"
     inkscape:document-units="mm"
     showgrid="false"
     inkscape:zoom="0.97638868"
     inkscape:cx="-32.261742"
     inkscape:cy="77.837855"
     inkscape:window-width="1920"
     inkscape:window-height="947"
     inkscape:window-x="0"
     inkscape:window-y="32"
     inkscape:window-maximized="1"
     inkscape:current-layer="layer1" />
  <defs
     id="defs2" />
  <g
     inkscape:label="Layer 1"
     inkscape:groupmode="layer"
     id="layer1"
     transform="translate(-41.997002,-78.209167)">
    <rect
       style="fill:#ffffff;stroke-width:0"
       id="rect846"
       width="90.208275"
       height="90.208275"
       x="41.997002"
       y="78.209167" />
    <g
       style="clip-rule:evenodd;fill-rule:evenodd;image-rendering:optimizeQuality;shape-rendering:geometricPrecision;text-rendering:geometricPrecision"
       id="g1503"
       transform="matrix(0.00473033,0,0,0.00473033,66.360146,93.672387)">
      <path
         d="M 6138.41,5026.91 7592.75,3683.31 8483.44,2256.13 C 7929.7,1287.59 7003.71,544.15 5891,203.81 L 4223.67,1342.39 3235.38,3267.78 c 316.16,-351.86 774.72,-573.24 1285.02,-573.24 953.87,0 1727.13,773.27 1727.13,1727.14 0,212.92 -38.6,416.89 -109.12,605.23 z m -2941.22,-1715.13 -5.08,5.89 0.08,0.08 z"
         fill="#4285f4"
         id="path1479" />
      <path
         d="m 4520.4,0 c 2496.61,0 4520.4,1947.47 4520.4,4349.87 0,942.42 -311.48,1814.74 -840.72,2527.08 h 0.08 c 0,0 -2379.03,3315.41 -2752.16,4072.39 -373.14,756.99 -447.76,1417.99 -607.74,1663.15 -159.97,245.15 -522.38,127.98 -607.65,-223.88 -85.26,-351.86 -383.85,-1076.77 -1044.85,-2185.62 C 2526.75,9094.15 862.72,6906.36 862.72,6906.36 h 0.32 C 320.35,6188.7 0,5305.35 0,4349.87 0,1947.47 2023.79,0 4520.4,0 Z m 0,2694.54 c 953.87,0 1727.13,773.27 1727.13,1727.14 0,953.86 -773.26,1727.13 -1727.13,1727.13 -953.87,0 -1727.13,-773.27 -1727.13,-1727.13 0,-953.87 773.26,-1727.14 1727.13,-1727.14 z"
         fill="none"
         id="path1481" />
      <path
         d="M 2565.28,9248.72 5384.89,5917.11 c 343.88,-199.22 612.65,-513.6 753.61,-890.36 l 2344.86,-2770.7 c 355.16,621.19 557.44,1334.74 557.44,2093.82 0,942.42 -311.48,1814.74 -840.72,2527.08 h 0.08 c 0,0 -2379.03,3315.41 -2752.16,4072.39 -373.14,756.99 -447.76,1417.99 -607.74,1663.15 -159.97,245.15 -522.38,127.98 -607.65,-223.88 -85.26,-351.86 -383.85,-1076.77 -1044.85,-2185.62 -160.86,-269.89 -381.2,-603.7 -622.48,-954.27 z"
         fill="#34a853"
         id="path1483" />
      <path
         d="m 571.31,6467.63 2620.8,-3149.96 0.08,0.08 c -249.03,299.31 -398.92,684.13 -398.92,1103.93 0,953.86 773.26,1727.13 1727.13,1727.13 315.03,0 610.31,-84.38 864.57,-231.7 L 2565.28,9248.72 C 1815.3,8158.74 862.72,6906.36 862.72,6906.36 h 0.32 A 4348.631,4348.631 0 0 1 571.31,6467.63 Z"
         fill="#fbbc04"
         id="path1485" />
      <path
         d="M 996.34,1625.83 3214.83,3290.91 571.31,6467.63 C 207.52,5840.95 0,5248.86 0,4349.87 0,3450.88 375.55,2370.73 996.34,1625.83 Z"
         fill="#ea4335"
         id="path1487" />
      <path
         d="M 5891,203.81 3214.83,3290.91 996.34,1625.83 C 1824.81,634.57 3095.48,0 4520.4,0 4998.22,0 5458.71,71.56 5891,203.81 Z"
         fill="#1a73e8"
         id="path1489" />
    </g>
  </g>
</svg>
