<?xml version="1.0" encoding="UTF-8" standalone="no"?>
<!-- Created with Inkscape (http://www.inkscape.org/) -->

<svg
   width="90.208275mm"
   height="90.208275mm"
   viewBox="0 0 90.208285 90.208281"
   version="1.1"
   id="svg5"
   inkscape:version="1.1.2 (0a00cf5339, 2022-02-04)"
   sodipodi:docname="photos.svg"
   xmlns:inkscape="http://www.inkscape.org/namespaces/inkscape"
   xmlns:sodipodi="http://sodipodi.sourceforge.net/DTD/sodipodi-0.dtd"
   xmlns="http://www.w3.org/2000/svg"
   xmlns:svg="http://www.w3.org/2000/svg">
  <sodipodi:namedview
     id="namedview7"
     pagecolor="#ffffff"
     bordercolor="#666666"
     borderopacity="1.0"
     inkscape:pageshadow="2"
     inkscape:pageopacity="0.0"
     inkscape:pagecheckerboard="0"
     inkscape:document-units="mm"
     showgrid="false"
     inkscape:zoom="1.3808221"
     inkscape:cx="90.887884"
     inkscape:cy="198.43251"
     inkscape:window-width="1920"
     inkscape:window-height="947"
     inkscape:window-x="0"
     inkscape:window-y="32"
     inkscape:window-maximized="1"
     inkscape:current-layer="layer1" />
  <defs
     id="defs2" />
  <g
     inkscape:label="Layer 1"
     inkscape:groupmode="layer"
     id="layer1"
     transform="translate(-41.997002,-78.209167)">
    <rect
       style="fill:#ffffff;stroke-width:0"
       id="rect846"
       width="90.208275"
       height="90.208275"
       x="41.997002"
       y="78.209167" />
    <g
       id="g1371"
       transform="matrix(0.35642018,0,0,0.35642018,56.492156,88.984466)">
      <path
         d="M 43.6,49.4 C 67,49.4 86,68.4 86,91.8 v 3.9 H 5.1 C 3,95.7 1.3,94 1.2,91.8 1.2,68.4 20.2,49.4 43.6,49.4 Z"
         fill="#f6bc04"
         id="path1353" />
      <path
         d="m 132.2,53.2 c 0,23.4 -19,42.4 -42.4,42.4 H 86 V 14.7 c 0,-2.1 1.7,-3.9 3.8,-3.9 23.5,0 42.4,19 42.4,42.4 z"
         fill="#ea4335"
         id="path1355" />
      <path
         d="M 128.4,141.9 C 105,141.9 86,122.9 86,99.5 v -3.9 h 80.9 c 2.1,0 3.9,1.7 3.9,3.8 0,23.5 -19,42.5 -42.4,42.5 z"
         fill="#4285f4"
         id="path1357" />
      <path
         d="m 39.8,138 c 0,-23.4 19,-42.4 42.4,-42.4 H 86 v 80.9 c 0,2.1 -1.7,3.8 -3.9,3.9 -23.4,0 -42.3,-19 -42.3,-42.4 z"
         fill="#34a853"
         id="path1359" />
    </g>
  </g>
</svg>
