<?xml version="1.0" encoding="UTF-8" standalone="no"?>
<!-- Created with Inkscape (http://www.inkscape.org/) -->

<svg
   width="90.208275mm"
   height="90.208275mm"
   viewBox="0 0 90.208285 90.208281"
   version="1.1"
   id="svg5"
   inkscape:version="1.1.2 (0a00cf5339, 2022-02-04)"
   sodipodi:docname="translate.svg"
   xmlns:inkscape="http://www.inkscape.org/namespaces/inkscape"
   xmlns:sodipodi="http://sodipodi.sourceforge.net/DTD/sodipodi-0.dtd"
   xmlns="http://www.w3.org/2000/svg"
   xmlns:svg="http://www.w3.org/2000/svg">
  <sodipodi:namedview
     id="namedview7"
     pagecolor="#ffffff"
     bordercolor="#666666"
     borderopacity="1.0"
     inkscape:pageshadow="2"
     inkscape:pageopacity="0.0"
     inkscape:pagecheckerboard="0"
     inkscape:document-units="mm"
     showgrid="false"
     inkscape:zoom="1.3808221"
     inkscape:cx="53.229159"
     inkscape:cy="151.35911"
     inkscape:window-width="1920"
     inkscape:window-height="947"
     inkscape:window-x="0"
     inkscape:window-y="32"
     inkscape:window-maximized="1"
     inkscape:current-layer="layer1" />
  <defs
     id="defs2" />
  <g
     inkscape:label="Layer 1"
     inkscape:groupmode="layer"
     id="layer1"
     transform="translate(-41.997002,-78.209167)">
    <rect
       style="fill:#ffffff;stroke-width:0"
       id="rect846"
       width="90.208275"
       height="90.208275"
       x="41.997002"
       y="78.209167" />
    <g
       id="g888"
       transform="matrix(0.0611074,0,0,0.0611074,56.194583,93.426471)">
      <path
         d="m 931.7,998.3 c 36.5,0 66.4,-29.4 66.4,-65.4 V 265.8 c 0,-36 -29.9,-65.4 -66.4,-65.4 H 283.6 l 260.1,797.9 z"
         fill="#dbdbdb"
         id="path858" />
      <path
         d="m 931.7,230.4 c 9.7,0 18.9,3.8 25.8,10.6 6.8,6.7 10.6,15.5 10.6,24.8 v 667.1 c 0,9.3 -3.7,18.1 -10.6,24.8 -6.9,6.8 -16.1,10.6 -25.8,10.6 H 565.5 L 324.9,230.4 Z m 0,-30 H 283.6 l 260.1,797.9 h 388 c 36.5,0 66.4,-29.4 66.4,-65.4 V 265.8 c 0,-36 -29.9,-65.4 -66.4,-65.4 z"
         fill="#dcdcdc"
         id="path860" />
      <path
         d="M 482.3,809.8 543.7,998.3 714.4,809.8 Z"
         fill="#4352b8"
         id="path862" />
      <path
         d="M 936.1,476.1 V 437 H 747.6 V 373.8 H 686.4 V 437 H 566.1 v 39.1 h 239.4 c -12.8,45.1 -41.1,87.7 -68.7,120.8 -48.9,-57.9 -49.1,-76.7 -49.1,-76.7 h -50.8 c 0,0 2.1,28.2 70.7,108.6 -22.3,22.8 -39.2,36.3 -39.2,36.3 l 15.6,48.8 c 0,0 23.6,-20.3 53.1,-51.6 29.6,32.1 67.8,70.7 117.2,116.7 l 32.1,-32.1 C 833.5,698.9 794.7,660.8 766.2,630.2 804.4,585 843.2,528.1 851.4,476 H 936 v 0.1 z"
         fill="#607988"
         id="path864" />
      <path
         d="M 66.4,0 C 29.9,0 0,29.9 0,66.5 v 677 c 0,36.5 29.9,66.4 66.4,66.4 H 714.5 L 454.4,0 Z"
         fill="#4285f4"
         id="path866" />
      <path
         d="m 534.3,200.4 h 397.4 c 36.5,0 66.4,29.4 66.4,65.4 V 666 Z"
         fill="url(#a)"
         id="path868" />
      <path
         d="m 371.4,430.6 c -2.5,30.3 -28.4,75.2 -91.1,75.2 -54.3,0 -98.3,-44.9 -98.3,-100.2 0,-55.3 44,-100.2 98.3,-100.2 30.9,0 51.5,13.4 63.3,24.3 l 41.2,-39.6 c -27.1,-25 -62.4,-40.6 -104.5,-40.6 -86.1,0 -156,69.9 -156,156 0,86.1 69.9,156 156,156 90.2,0 149.8,-63.3 149.8,-152.6 0,-12.8 -1.6,-22.2 -3.7,-31.8 h -146 v 53.4 z"
         fill="#eeeeee"
         id="path870" />
      <path
         d="M 931.7,200.4 H 518.8 L 454.4,0 H 66.4 C 29.9,0 0,29.9 0,66.5 v 677 c 0,36.5 29.9,66.4 66.4,66.4 h 415.9 l 61.4,188.4 h 388 c 36.5,0 66.4,-29.4 66.4,-65.4 V 265.8 c 0,-36 -29.9,-65.4 -66.4,-65.4 z"
         fill="url(#b)"
         id="path872" />
    </g>
  </g>
</svg>
