<?xml version="1.0" encoding="UTF-8" standalone="no"?>
<!-- Created with Inkscape (http://www.inkscape.org/) -->

<svg
   width="173.76869mm"
   height="173.76869mm"
   viewBox="0 0 173.76869 173.76869"
   version="1.1"
   id="svg5"
   inkscape:version="1.1.2 (0a00cf5339, 2022-02-04)"
   sodipodi:docname="youtube.svg"
   xmlns:inkscape="http://www.inkscape.org/namespaces/inkscape"
   xmlns:sodipodi="http://sodipodi.sourceforge.net/DTD/sodipodi-0.dtd"
   xmlns="http://www.w3.org/2000/svg"
   xmlns:svg="http://www.w3.org/2000/svg">
  <sodipodi:namedview
     id="namedview7"
     pagecolor="#ffffff"
     bordercolor="#666666"
     borderopacity="1.0"
     inkscape:pageshadow="2"
     inkscape:pageopacity="0.0"
     inkscape:pagecheckerboard="0"
     inkscape:document-units="mm"
     showgrid="false"
     inkscape:zoom="0.69041105"
     inkscape:cx="393.24399"
     inkscape:cy="362.10312"
     inkscape:window-width="1920"
     inkscape:window-height="947"
     inkscape:window-x="0"
     inkscape:window-y="32"
     inkscape:window-maximized="1"
     inkscape:current-layer="layer1" />
  <defs
     id="defs2">
    <linearGradient
       id="paint0_linear"
       x1="-4.0284499e-07"
       y1="11"
       x2="1.82425"
       y2="4.7760701"
       gradientUnits="userSpaceOnUse"
       gradientTransform="matrix(7.0846007,0,0,7.0846007,41.026409,92.780101)">
      <stop
         stop-color="#7638F4"
         id="stop877" />
      <stop
         offset="1"
         stop-color="#FF5A98"
         id="stop879" />
    </linearGradient>
  </defs>
  <g
     inkscape:label="Layer 1"
     inkscape:groupmode="layer"
     id="layer1"
     transform="translate(-0.70636868,-52.593849)">
    <rect
       style="fill:#ffffff;fill-opacity:1;stroke:none;stroke-width:0"
       id="rect869"
       width="173.76869"
       height="173.76869"
       x="0.70636868"
       y="52.593849" />
    <style
       id="style871">
    .grid {
       fill: black;
       opacity: 0.24;
    }
    @media (prefers-color-scheme: dark) {
      .grid {
        fill: white;
        opacity: 0.24;
      }
    }
  </style>
    <g
       id="g1159"
       transform="matrix(0.29653962,0,0,0.29653962,14.717976,121.92738)">
	<g
   id="g1139">
		<path
   fill="#ff0000"
   d="M 154.3,17.5 C 152.5,10.8 147.2,5.5 140.5,3.7 128.4,0.4 79.7,0.4 79.7,0.4 79.7,0.4 31,0.5 18.9,3.8 12.2,5.6 6.9,10.9 5.1,17.6 1.9,29.7 1.9,55 1.9,55 c 0,0 0,25.3 3.3,37.5 1.8,6.7 7.1,12 13.8,13.8 12.1,3.3 60.8,3.3 60.8,3.3 0,0 48.7,0 60.8,-3.3 6.7,-1.8 12,-7.1 13.8,-13.8 3.3,-12.1 3.3,-37.5 3.3,-37.5 0,0 -0.1,-25.3 -3.4,-37.5 z"
   id="path1135" />

		<polygon
   fill="#ffffff"
   points="64.2,31.6 64.2,78.4 104.6,55 "
   id="polygon1137" />

	</g>

	<g
   id="g1157">
		<g
   id="g1155">
			<path
   fill="#282828"
   d="m 227.9,99.7 c -3.1,-2.1 -5.3,-5.3 -6.6,-9.7 -1.3,-4.4 -1.9,-10.2 -1.9,-17.5 v -9.9 c 0,-7.3 0.7,-13.3 2.2,-17.7 1.5,-4.5 3.8,-7.7 7,-9.7 3.2,-2 7.3,-3.1 12.4,-3.1 5,0 9.1,1 12.1,3.1 3,2.1 5.3,5.3 6.7,9.7 1.4,4.4 2.1,10.3 2.1,17.6 v 9.9 c 0,7.3 -0.7,13.1 -2.1,17.5 -1.4,4.4 -3.6,7.6 -6.7,9.7 -3.1,2 -7.3,3.1 -12.5,3.1 -5.4,0.1 -9.6,-1 -12.7,-3 z M 245.2,89 c 0.9,-2.2 1.3,-5.9 1.3,-10.9 V 56.8 c 0,-4.9 -0.4,-8.5 -1.3,-10.7 -0.9,-2.3 -2.4,-3.4 -4.5,-3.4 -2.1,0 -3.5,1.1 -4.4,3.4 -0.9,2.3 -1.3,5.8 -1.3,10.7 v 21.3 c 0,5 0.4,8.7 1.2,10.9 0.8,2.2 2.3,3.3 4.5,3.3 2.1,0 3.6,-1.1 4.5,-3.3 z"
   id="path1141" />

			<path
   fill="#282828"
   d="m 464.4,72.7 v 3.5 c 0,4.4 0.1,7.7 0.4,9.9 0.3,2.2 0.8,3.8 1.6,4.8 0.8,1 2.1,1.5 3.8,1.5 2.3,0 3.9,-0.9 4.7,-2.7 0.9,-1.8 1.3,-4.8 1.4,-8.9 l 13.3,0.8 c 0.1,0.6 0.1,1.4 0.1,2.4 0,6.3 -1.7,11 -5.2,14.1 -3.5,3.1 -8.3,4.7 -14.6,4.7 -7.6,0 -12.9,-2.4 -15.9,-7.1 -3,-4.7 -4.6,-12.1 -4.6,-22 V 61.6 c 0,-10.2 1.6,-17.7 4.7,-22.4 3.2,-4.7 8.6,-7.1 16.2,-7.1 5.3,0 9.3,1 12.1,2.9 2.8,1.9 4.8,4.9 6,9 1.2,4.1 1.7,9.7 1.7,16.9 v 11.7 h -25.7 z m 2,-28.8 c -0.8,1 -1.3,2.5 -1.6,4.7 -0.3,2.2 -0.4,5.5 -0.4,10 v 4.9 h 11.2 v -4.9 c 0,-4.4 -0.1,-7.7 -0.4,-10 -0.3,-2.3 -0.8,-3.9 -1.6,-4.8 -0.8,-0.9 -2,-1.4 -3.6,-1.4 -1.7,0.1 -2.9,0.6 -3.6,1.5 z"
   id="path1143" />

			<path
   fill="#282828"
   d="M 190.5,71.4 173,8.2 h 15.3 l 6.1,28.6 c 1.6,7.1 2.7,13.1 3.5,18 h 0.4 c 0.5,-3.6 1.7,-9.5 3.5,-17.9 l 6.3,-28.7 h 15.3 l -17.7,63.1 v 30.3 H 190.6 V 71.4 Z"
   id="path1145" />

			<path
   fill="#282828"
   d="m 311.5,33.4 v 68.3 h -12 l -1.3,-8.4 h -0.3 c -3.3,6.3 -8.2,9.5 -14.7,9.5 -4.5,0 -7.9,-1.5 -10,-4.5 -2.2,-3 -3.2,-7.6 -3.2,-13.9 v -51 h 15.4 v 50.1 c 0,3 0.3,5.2 1,6.5 0.7,1.3 1.8,1.9 3.3,1.9 1.3,0 2.6,-0.4 3.8,-1.2 1.2,-0.8 2.1,-1.9 2.7,-3.1 V 33.4 Z"
   id="path1147" />

			<path
   fill="#282828"
   d="m 390.4,33.4 v 68.3 h -12 l -1.3,-8.4 h -0.3 c -3.3,6.3 -8.2,9.5 -14.7,9.5 -4.5,0 -7.9,-1.5 -10,-4.5 -2.2,-3 -3.2,-7.6 -3.2,-13.9 v -51 h 15.4 v 50.1 c 0,3 0.3,5.2 1,6.5 0.7,1.3 1.8,1.9 3.3,1.9 1.3,0 2.6,-0.4 3.8,-1.2 1.2,-0.8 2.1,-1.9 2.7,-3.1 V 33.4 Z"
   id="path1149" />

			<path
   fill="#282828"
   d="M 353.3,20.6 H 338 v 81.1 H 323 V 20.6 H 307.7 V 8.2 h 45.5 v 12.4 z"
   id="path1151" />

			<path
   fill="#282828"
   d="m 441.2,44.3 c -0.9,-4.3 -2.4,-7.4 -4.5,-9.4 -2.1,-1.9 -4.9,-2.9 -8.6,-2.9 -2.8,0 -5.5,0.8 -7.9,2.4 -2.5,1.6 -4.3,3.7 -5.7,6.3 h -0.1 v -36 h -14.8 v 96.9 h 12.7 l 1.6,-6.5 h 0.3 c 1.2,2.3 3,4.1 5.3,5.5 2.4,1.3 5,2 7.9,2 5.2,0 9,-2.4 11.5,-7.2 2.4,-4.8 3.7,-12.3 3.7,-22.4 V 62.2 c 0,-7.6 -0.5,-13.6 -1.4,-17.9 z m -14.1,27.9 c 0,5 -0.2,8.9 -0.6,11.7 -0.4,2.8 -1.1,4.8 -2.1,6 -1,1.2 -2.3,1.8 -3.9,1.8 -1.3,0 -2.4,-0.3 -3.5,-0.9 -1.1,-0.6 -1.9,-1.5 -2.6,-2.7 V 49.3 c 0.5,-1.9 1.4,-3.4 2.7,-4.6 1.3,-1.2 2.6,-1.8 4.1,-1.8 1.6,0 2.8,0.6 3.6,1.8 0.9,1.2 1.4,3.3 1.8,6.2 0.3,2.9 0.5,7 0.5,12.4 z"
   id="path1153" />

		</g>

	</g>

</g>
  </g>
</svg>
