<?xml version="1.0" encoding="UTF-8" standalone="no"?>
<!-- Created with Inkscape (http://www.inkscape.org/) -->

<svg
   width="90.208275mm"
   height="90.208275mm"
   viewBox="0 0 90.208285 90.208281"
   version="1.1"
   id="svg5"
   inkscape:version="1.1.2 (0a00cf5339, 2022-02-04)"
   sodipodi:docname="youtube.svg"
   xmlns:inkscape="http://www.inkscape.org/namespaces/inkscape"
   xmlns:sodipodi="http://sodipodi.sourceforge.net/DTD/sodipodi-0.dtd"
   xmlns="http://www.w3.org/2000/svg"
   xmlns:svg="http://www.w3.org/2000/svg">
  <sodipodi:namedview
     id="namedview7"
     pagecolor="#ffffff"
     bordercolor="#666666"
     borderopacity="1.0"
     inkscape:pageshadow="2"
     inkscape:pageopacity="0.0"
     inkscape:pagecheckerboard="0"
     inkscape:document-units="mm"
     showgrid="false"
     inkscape:zoom="1.3808221"
     inkscape:cx="111.88987"
     inkscape:cy="179.60315"
     inkscape:window-width="1920"
     inkscape:window-height="947"
     inkscape:window-x="0"
     inkscape:window-y="32"
     inkscape:window-maximized="1"
     inkscape:current-layer="layer1" />
  <defs
     id="defs2" />
  <g
     inkscape:label="Layer 1"
     inkscape:groupmode="layer"
     id="layer1"
     transform="translate(-41.997002,-78.209167)">
    <rect
       style="fill:#ffffff;stroke-width:0"
       id="rect846"
       width="90.208275"
       height="90.208275"
       x="41.997002"
       y="78.209167" />
    <g
       id="g1947"
       transform="matrix(0.03135963,0,0,0.03135963,48.521104,84.149265)">
      <path
         d="m 0,1864.11 v 0.11 c 1.5,55.5 2,111.32 11.32,166.47 9.92,58.35 24.1,115.25 51.15,168.21 q 54.86,107.52 150.21,181.66 c 45.52,35.5 95.25,63.69 150.3,81.47 80.26,25.89 163.07,35.81 247.09,36.3 52.42,0.33 104.81,1.64 157.25,1.42 380.82,-1.6 761.65,2.75 1142.49,-2.35 50.53,-0.68 100.24,-6.85 149.84,-15.92 95.06,-17.4 179.07,-58 250.95,-122.09 83.77,-74.71 140.29,-166.16 165.81,-276.52 16.69,-72.14 20.87,-145.32 21.58,-218.77 v -14.65 c 0,-5.68 -2.16,-1247.91 -2.36,-1264.33 -0.55,-45.1 -3.88,-89.87 -12.33,-134.25 -10.29,-54.08 -24.82,-106.78 -50.71,-155.7 -27.35,-51.7 -61.6,-98.17 -104,-138.79 -64.89,-62.23 -139.78,-106.23 -227,-129.51 -78.74,-21 -159.07,-25.68 -240,-25.6 a 2.45,2.45 0 0 1 -0.45,-1.24 H 636.4 c 0,0.42 0,0.83 -0.07,1.24 -45.93,0.84 -91.92,0.49 -137.61,6.16 -50.05,6.22 -99.63,15.59 -147,33.09 -74.62,27.6 -139.46,70.59 -194.84,128 -62.75,65 -107,140.22 -130.44,227.79 C 5.49,474.44 0.93,554.12 0.82,634.37"
         fill="#ffffff"
         id="path1932" />
      <path
         d="m 0,0.79 h 2498 v 2498 H 0 Z"
         fill="none"
         id="path1934" />
      <path
         d="m 1293.24,1938.65 -409.54,-7.49 c -132.6,-2.61 -265.53,2.6 -395.53,-24.44 C 290.41,1866.32 276.4,1668.23 261.74,1502.07 241.54,1268.47 249.36,1030.63 287.48,798.98 309,669 393.69,591.44 524.66,583 c 442.12,-30.63 887.18,-27 1328.32,-12.71 46.59,1.31 93.5,8.47 139.44,16.62 226.77,39.75 232.3,264.23 247,453.2 14.66,190.92 8.47,382.82 -19.55,572.44 -22.48,157 -65.49,288.66 -247,301.37 -227.42,16.62 -449.62,30 -677.68,25.74 0.01,-1.01 -1.3,-1.01 -1.95,-1.01 z m -240.77,-397.48 c 171.38,-98.4 339.49,-195.16 509.89,-292.9 -171.7,-98.4 -339.49,-195.16 -509.89,-292.9 z"
         fill="#ff0000"
         id="path1936" />
    </g>
  </g>
</svg>
