<?xml version="1.0" encoding="UTF-8" standalone="no"?>
<!-- Generator: Adobe Illustrator 19.0.0, SVG Export Plug-In . SVG Version: 6.00 Build 0)  -->

<svg
   version="1.1"
   id="Layer_1"
   x="0px"
   y="0px"
   viewBox="-184 367.3 84.471358 84.471358"
   xml:space="preserve"
   sodipodi:docname="atlasicons.svg"
   width="84.471359"
   height="84.471359"
   inkscape:version="1.3.2 (091e20ef0f, 2023-11-25)"
   xmlns:inkscape="http://www.inkscape.org/namespaces/inkscape"
   xmlns:sodipodi="http://sodipodi.sourceforge.net/DTD/sodipodi-0.dtd"
   xmlns="http://www.w3.org/2000/svg"
   xmlns:svg="http://www.w3.org/2000/svg"><defs
   id="defs2" /><sodipodi:namedview
   id="namedview2"
   pagecolor="#ffffff"
   bordercolor="#000000"
   borderopacity="0.25"
   inkscape:showpageshadow="2"
   inkscape:pageopacity="0.0"
   inkscape:pagecheckerboard="0"
   inkscape:deskcolor="#d1d1d1"
   inkscape:zoom="5.127677"
   inkscape:cx="28.570442"
   inkscape:cy="61.236306"
   inkscape:window-width="1920"
   inkscape:window-height="952"
   inkscape:window-x="0"
   inkscape:window-y="0"
   inkscape:window-maximized="1"
   inkscape:current-layer="Layer_1" />
<style
   type="text/css"
   id="style1">
	.st0{fill:#1A1818;}
</style>


<rect
   style="fill:#ffffff;fill-opacity:1;stroke-width:63.8551;stroke-miterlimit:11.1"
   id="rect2"
   width="84.471359"
   height="84.471359"
   x="-184"
   y="367.29999" /><g
   id="g2"
   transform="translate(11.63568,12.235675)">
	<path
   d="m -153.4,368.3 c -16,0 -29,13 -29,29 0,15.9 13.1,29 29,29 16,0 29,-13 29,-29 -0.1,-15.9 -13.1,-29 -29,-29 z m -17.7,11.3 c 4.7,-4.7 11,-7.3 17.7,-7.3 6.7,0 12.9,2.6 17.7,7.3 4.8,4.7 7.3,11 7.3,17.7 0,3.5 -0.7,6.9 -2.1,10.1 -0.7,1.6 -2.9,1.8 -3.9,0.3 l -1,-1.6 c -1,-1.6 -2.7,-2.5 -4.6,-2.5 v 0 c -1.9,0 -3.6,1 -4.6,2.5 l -0.8,1.3 c -0.4,0.7 -1.2,1.1 -2,1.1 -0.8,0 -1.6,-0.4 -2,-1.1 l -10.8,-17.2 c -0.8,-1.3 -2.2,-2.1 -3.7,-2.1 v 0 c -1.5,0 -2.9,0.8 -3.7,2.1 l -7.5,12 c -0.7,1.2 -2.5,0.8 -2.8,-0.5 -0.3,-1.4 -0.4,-2.9 -0.4,-4.4 -0.1,-6.7 2.5,-13 7.2,-17.7 z"
   id="path1" />
	<path
   d="m -140,400.8 c 3.3,0 6,-2.7 6,-6 0,-3.3 -2.7,-6 -6,-6 -3.3,0 -6,2.7 -6,6 0,3.3 2.7,6 6,6 z"
   id="path2" />
</g></svg>
