<?xml version="1.0" encoding="UTF-8" standalone="no"?>
<!-- Created with Inkscape (http://www.inkscape.org/) -->

<svg
   width="80.294731mm"
   height="80.294731mm"
   viewBox="0 0 80.294731 80.294731"
   version="1.1"
   id="svg1"
   xml:space="preserve"
   xmlns="http://www.w3.org/2000/svg"
   xmlns:svg="http://www.w3.org/2000/svg"><defs
     id="defs1" /><g
     id="layer1"
     transform="translate(-45.569054,-77.62928)"><rect
       style="fill:#ffffff;stroke-width:2.769;stroke-miterlimit:11.1;fill-opacity:1"
       id="rect1"
       width="80.294731"
       height="80.294731"
       x="45.569054"
       y="77.62928" /><path
       d="m 95.914653,96.813619 c -2.186955,0 -3.965976,1.779048 -3.965976,3.965971 0,2.18701 1.779021,3.96596 3.965976,3.96596 2.186944,0 3.965964,-1.77895 3.965964,-3.96596 0,-2.186923 -1.77902,-3.965971 -3.965964,-3.965971 z m 0,-6.232193 c 5.622607,0 10.198157,4.575559 10.198157,10.198164 0,5.62261 -4.57555,10.19826 -10.198157,10.19826 -5.62261,0 -10.198214,-4.57565 -10.198214,-10.19826 0,-5.622605 4.575604,-10.198164 10.198214,-10.198164 z M 83.450174,129.13064 c 0,0 5.754054,6.99597 9.114935,11.20443 2.635666,3.29512 4.589185,4.6368 7.845821,4.6368 3.19771,0 5.70188,-2.41356 5.70188,-5.23287 0,-1.22152 -0.41473,-2.5178 -1.34611,-3.73024 -3.44474,-4.47133 -5.452646,-6.87812 -5.452646,-6.87812 z m -7.107025,-0.0257 h -6.490587 c -1.24872,0 -2.266276,-1.01758 -2.266276,-2.26624 0,-1.24876 1.017556,-2.26632 2.266276,-2.26632 h 30.093783 c 2.023785,0 3.172775,0.56189 4.448685,2.17107 2.17561,2.74445 5.67698,7.16824 5.80616,7.36765 1.66803,-1.9716 2.71044,-4.48717 2.71044,-7.2724 0,-6.25721 -5.07416,-11.33138 -11.33131,-11.33138 H 69.852562 c -6.257173,0 -11.331347,5.07417 -11.331347,11.33138 0,6.25713 5.074174,11.33129 11.331347,11.33129 h 13.917153 c -2.592608,-3.18411 -7.426566,-9.06505 -7.426566,-9.06505 z m 0.113317,-28.32835 4.727429,4.72744 -3.204497,3.20449 -4.727437,-4.72743 -4.727438,4.72743 -3.204506,-3.20449 4.727438,-4.72744 -4.727438,-4.727431 3.204506,-3.204497 4.727438,4.727436 4.727437,-4.727436 3.204497,3.204497 z"
       id="path1"
       style="stroke-width:2.26626" /></g></svg>
