<?xml version="1.0" encoding="UTF-8" standalone="no"?>
<!-- Created with Inkscape (http://www.inkscape.org/) -->

<svg
   width="84.406937mm"
   height="84.406937mm"
   viewBox="0 0 84.406937 84.406937"
   version="1.1"
   id="svg5"
   inkscape:version="1.1.2 (0a00cf5339, 2022-02-04)"
   sodipodi:docname="reshot.svg"
   xmlns:inkscape="http://www.inkscape.org/namespaces/inkscape"
   xmlns:sodipodi="http://sodipodi.sourceforge.net/DTD/sodipodi-0.dtd"
   xmlns="http://www.w3.org/2000/svg"
   xmlns:svg="http://www.w3.org/2000/svg">
  <sodipodi:namedview
     id="namedview7"
     pagecolor="#ffffff"
     bordercolor="#666666"
     borderopacity="1.0"
     inkscape:pageshadow="2"
     inkscape:pageopacity="0.0"
     inkscape:pagecheckerboard="0"
     inkscape:document-units="mm"
     showgrid="false"
     inkscape:snap-global="true"
     inkscape:snap-bbox="true"
     inkscape:snap-bbox-midpoints="true"
     inkscape:bbox-paths="true"
     inkscape:bbox-nodes="true"
     inkscape:snap-bbox-edge-midpoints="true"
     inkscape:zoom="1.2810466"
     inkscape:cx="169.78305"
     inkscape:cy="189.68865"
     inkscape:window-width="1920"
     inkscape:window-height="947"
     inkscape:window-x="0"
     inkscape:window-y="32"
     inkscape:window-maximized="1"
     inkscape:current-layer="layer1" />
  <defs
     id="defs2" />
  <g
     inkscape:label="Layer 1"
     inkscape:groupmode="layer"
     id="layer1"
     transform="translate(-36.909233,-86.059723)">
    <rect
       style="fill:#ffffff;stroke-width:0;stroke:none;stroke-miterlimit:4;stroke-dasharray:none"
       id="rect846"
       width="84.406937"
       height="84.406937"
       x="36.909233"
       y="86.059723" />
    <g
       style="fill:none"
       id="g974"
       transform="matrix(1.1995705,0,0,1.1995705,51.52258,108.45828)">
      <path
         d="M 40,15.2 C 43.7,13.4 45.7,10.4 45.7,7 45.7,3.7 44.1,1.7 41.1,1.4 L 40.7,1.1 c -1.5,-1.2 -4,-1.4 -7,-0.6 L 0,9.5 V 32.2 L 3.5,31.3 V 33 l 6,-1.6 v -8 l 21.8,-5.7 4.2,5.1 2.3,-0.5 1.1,1.3 7.1,-1.8 z m -4.3,7 L 30.4,15.7 6,22.2 v 8 L 0.5,31.5 V 9.8 L 34,1 c 2.8,-0.8 5,-0.6 6.5,0.5 1.2,0.9 1.8,2.4 1.8,4.4 0,3.4 -2,6.2 -5.6,8 h -0.3 l 6,6.6 -6.6,1.7 z"
         fill="#000000"
         id="path962" />
      <path
         d="M 36,6.1 C 35.5,5.7 34.7,5.7 33.7,5.9 L 6,13.2 v 4.5 l 27.8,-7.3 c 1.8,-0.5 2.8,-1.6 2.8,-3 0,-0.5 -0.2,-1 -0.6,-1.3 z M 33.7,10 9.6,16.3 v -1.7 l 26.5,-7 c 0,1 -1,1.9 -2.4,2.3 z"
         fill="#000000"
         id="path964" />
    </g>
  </g>
</svg>
