<?xml version="1.0" encoding="UTF-8" standalone="no"?>
<!-- Created with Inkscape (http://www.inkscape.org/) -->

<svg
   width="152.6622mm"
   height="152.6622mm"
   viewBox="0 0 152.6622 152.6622"
   version="1.1"
   id="svg5"
   inkscape:version="1.1.2 (0a00cf5339, 2022-02-04)"
   sodipodi:docname="svgrepo.svg"
   xmlns:inkscape="http://www.inkscape.org/namespaces/inkscape"
   xmlns:sodipodi="http://sodipodi.sourceforge.net/DTD/sodipodi-0.dtd"
   xmlns="http://www.w3.org/2000/svg"
   xmlns:svg="http://www.w3.org/2000/svg">
  <sodipodi:namedview
     id="namedview7"
     pagecolor="#ffffff"
     bordercolor="#666666"
     borderopacity="1.0"
     inkscape:pageshadow="2"
     inkscape:pageopacity="0.0"
     inkscape:pagecheckerboard="0"
     inkscape:document-units="mm"
     showgrid="false"
     inkscape:zoom="0.64052329"
     inkscape:cx="252.13759"
     inkscape:cy="284.14267"
     inkscape:window-width="1920"
     inkscape:window-height="947"
     inkscape:window-x="0"
     inkscape:window-y="32"
     inkscape:window-maximized="1"
     inkscape:current-layer="layer1" />
  <defs
     id="defs2">
    <clipPath
       id="clip-logo_svg">
      <rect
         width="73"
         height="22"
         id="rect950" />
    </clipPath>
  </defs>
  <g
     inkscape:label="Layer 1"
     inkscape:groupmode="layer"
     id="layer1"
     transform="translate(-38.29171,-73.547913)">
    <rect
       style="fill:#ffffff;fill-opacity:1;stroke-width:0;stroke:none;stroke-miterlimit:4;stroke-dasharray:none"
       id="rect846"
       width="152.6622"
       height="152.6622"
       x="38.29171"
       y="73.547913" />
    <g
       id="logo_svg-2"
       data-name="logo_svg"
       transform="matrix(1.86228,0,0,1.86228,44.809891,133.92381)">
      <path
         id="Path_8"
         data-name="Path 8"
         d="m 2.066,0 h 14.685 a 2.066,2.066 0 0 1 2.066,2.066 V 19.934 A 2.066,2.066 0 0 1 16.751,22 H 2.066 A 2.066,2.066 0 0 1 0,19.934 V 2.066 A 2.066,2.066 0 0 1 2.066,0 Z"
         transform="translate(52.531,-2.437)"
         fill="#6b9bd2" />
      <g
         id="Group_1"
         data-name="Group 1"
         transform="translate(0.467,-0.575)">
        <path
           id="Path_1"
           data-name="Path 1"
           d="M 0.467,18.264 A 4.09,4.09 0 0 0 0.83,17.8 q 0.363,-0.487 0.814,-1.064 0.526,-0.676 1.2,-1.529 a 13.332,13.332 0 0 0 1.378,0.852 9.136,9.136 0 0 0 1.3,0.576 3.953,3.953 0 0 0 1.329,0.251 2.749,2.749 0 0 0 0.764,-0.113 2.7,2.7 0 0 0 0.7,-0.313 1.891,1.891 0 0 0 0.514,-0.476 1,1 0 0 0 0.2,-0.6 A 1.661,1.661 0 0 0 8.152,14.018 11.279,11.279 0 0 0 5.997,12.927 14.436,14.436 0 0 1 4.33,12.113 7.758,7.758 0 0 1 2.76,10.934 5.8,5.8 0 0 1 1.595,9.342 4.467,4.467 0 0 1 1.144,7.313 5.837,5.837 0 0 1 1.508,5.258 4.926,4.926 0 0 1 2.6,3.529 5.21,5.21 0 0 1 4.4,2.338 6.7,6.7 0 0 1 6.932,1.9 a 7.206,7.206 0 0 1 2.055,0.276 10.378,10.378 0 0 1 1.679,0.652 8.533,8.533 0 0 1 1.3,0.79 q 0.551,0.414 0.928,0.689 L 10.59,7.438 C 10.54,7.405 10.39,7.3 10.152,7.124 A 8.349,8.349 0 0 0 9.262,6.573 8.643,8.643 0 0 0 8.084,6.047 3.926,3.926 0 0 0 6.731,5.809 1.952,1.952 0 0 0 5.554,6.172 1.053,1.053 0 0 0 5.054,7.036 1.641,1.641 0 0 0 5.718,8.3 8.172,8.172 0 0 0 7.885,9.468 q 0.727,0.3 1.616,0.752 a 7.848,7.848 0 0 1 1.654,1.128 5.957,5.957 0 0 1 1.278,1.616 4.55,4.55 0 0 1 0.514,2.217 5.227,5.227 0 0 1 -0.4,1.967 5.8,5.8 0 0 1 -1.165,1.8 A 5.989,5.989 0 0 1 9.515,20.276 5.8,5.8 0 0 1 7.034,20.79 8.3,8.3 0 0 1 4.691,20.464 12,12 0 0 1 2.684,19.7 11.216,11.216 0 0 1 1.206,18.848 4.739,4.739 0 0 1 0.467,18.264 Z"
           transform="translate(-0.467,-1.9)"
           fill="#575880" />
        <path
           id="Path_2"
           data-name="Path 2"
           d="m 15.586,2.6 h 4.335 l 4.16,9.522 L 28.24,2.6 h 4.335 l -8.494,18.239 z"
           transform="translate(-0.902,-1.92)"
           fill="#575880" />
        <path
           id="Path_3"
           data-name="Path 3"
           d="m 50.153,14.28 a 6.642,6.642 0 0 1 -1.992,4.447 6.143,6.143 0 0 1 -1.453,1.053 8.41,8.41 0 0 1 -2.03,0.739 11.738,11.738 0 0 1 -2.694,0.276 9.167,9.167 0 0 1 -3.67,-0.74 9.467,9.467 0 0 1 -5.014,-5.037 9.233,9.233 0 0 1 -0.734,-3.67 9.234,9.234 0 0 1 0.734,-3.672 9.467,9.467 0 0 1 5.016,-5.037 9.434,9.434 0 0 1 7.342,0.009 18.038,18.038 0 0 1 2.992,2.016 l -2.756,2.75 A 5.93,5.93 0 0 0 44.14,6.249 5.323,5.323 0 0 0 41.984,5.81 a 5.431,5.431 0 0 0 -2.155,0.428 5.551,5.551 0 0 0 0,10.219 5.428,5.428 0 0 0 2.155,0.428 5.989,5.989 0 0 0 2.469,-0.405 3.458,3.458 0 0 0 1.266,-0.911 2.526,2.526 0 0 0 0.526,-1.315 h -4.262 v -3.909 h 8.169 v 3.935 z"
           transform="translate(-1.39,-1.9)"
           fill="#575880" />
      </g>
      <g
         id="Group_2"
         data-name="Group 2"
         transform="translate(55.63,0.574)">
        <path
           id="Path_4"
           data-name="Path 4"
           d="m 59.5,7.91 h -0.719 v 1.972 h -1.518 v -6.8 h 2.962 a 2.353,2.353 0 0 1 0.937,0.189 2.385,2.385 0 0 1 1.282,1.281 2.358,2.358 0 0 1 0.189,0.938 2.318,2.318 0 0 1 -0.118,0.738 2.522,2.522 0 0 1 -0.321,0.646 2.487,2.487 0 0 1 -0.486,0.524 2.186,2.186 0 0 1 -0.621,0.354 l 1.544,2.127 H 60.769 Z M 58.78,6.482 h 1.447 A 0.944,0.944 0 0 0 60.611,6.404 1,1 0 0 0 61.14,5.875 0.944,0.944 0 0 0 61.218,5.491 0.931,0.931 0 0 0 60.961,4.834 1.014,1.014 0 0 0 60.344,4.509 h -1.567 v 1.973 z"
           transform="translate(-57.263,-3.083)"
           fill="#f7f7f7" />
      </g>
      <g
         id="Group_3"
         data-name="Group 3"
         transform="translate(63.08,0.574)">
        <path
           id="Path_5"
           data-name="Path 5"
           d="m 66.606,8.367 h 3.174 v 1.515 h -4.846 v -6.8 H 69.78 V 4.6 h -3.174 v 1.06 h 2.649 v 1.513 h -2.649 z"
           transform="translate(-64.934,-3.083)"
           fill="#f7f7f7" />
      </g>
      <g
         id="Group_4"
         data-name="Group 4"
         transform="translate(55.428,9.639)">
        <path
           id="Path_6"
           data-name="Path 6"
           d="m 62.425,14.826 a 2.34,2.34 0 0 1 -0.189,0.937 2.509,2.509 0 0 1 -0.514,0.772 2.4,2.4 0 0 1 -0.768,0.52 2.352,2.352 0 0 1 -0.937,0.188 h -1.448 v 1.972 h -1.514 v -6.8 h 2.961 a 2.353,2.353 0 0 1 0.937,0.189 2.376,2.376 0 0 1 1.282,1.281 2.352,2.352 0 0 1 0.19,0.941 z m -3.857,0.991 h 1.447 a 0.952,0.952 0 0 0 0.385,-0.078 1.007,1.007 0 0 0 0.529,-0.529 0.973,0.973 0 0 0 -0.18,-1.04 1.019,1.019 0 0 0 -0.617,-0.325 h -1.564 v 1.973 z"
           transform="translate(-57.055,-12.416)"
           fill="#f7f7f7" />
      </g>
      <g
         id="Group_5"
         data-name="Group 5"
         transform="translate(62.325,9.351)">
        <path
           id="Path_7"
           data-name="Path 7"
           d="m 64.156,15.717 a 3.8,3.8 0 0 1 0.258,-1.408 3.639,3.639 0 0 1 0.706,-1.141 3.334,3.334 0 0 1 1.047,-0.766 3.007,3.007 0 0 1 1.284,-0.281 3.046,3.046 0 0 1 1.3,0.281 3.314,3.314 0 0 1 1.053,0.766 3.639,3.639 0 0 1 0.706,1.141 3.8,3.8 0 0 1 0.258,1.408 3.738,3.738 0 0 1 -0.258,1.394 3.643,3.643 0 0 1 -0.706,1.137 3.3,3.3 0 0 1 -1.053,0.765 3.046,3.046 0 0 1 -1.3,0.281 3,3 0 0 1 -1.284,-0.281 3.316,3.316 0 0 1 -1.047,-0.765 3.654,3.654 0 0 1 -0.706,-1.137 3.734,3.734 0 0 1 -0.258,-1.394 z m 1.369,0 a 2.189,2.189 0 0 0 0.153,0.822 2.153,2.153 0 0 0 0.414,0.664 1.911,1.911 0 0 0 0.611,0.445 1.771,1.771 0 0 0 0.748,0.162 1.827,1.827 0 0 0 0.762,-0.162 1.922,1.922 0 0 0 0.619,-0.445 2.023,2.023 0 0 0 0.414,-0.664 2.206,2.206 0 0 0 0.15,-0.822 2.234,2.234 0 0 0 -0.15,-0.823 2.082,2.082 0 0 0 -0.414,-0.668 1.964,1.964 0 0 0 -0.619,-0.455 1.787,1.787 0 0 0 -0.762,-0.167 1.739,1.739 0 0 0 -0.748,0.167 1.955,1.955 0 0 0 -0.611,0.455 2.238,2.238 0 0 0 -0.414,0.668 2.2,2.2 0 0 0 -0.153,0.823 z"
           transform="translate(-64.156,-12.12)"
           fill="#f7f7f7" />
      </g>
    </g>
  </g>
</svg>
