<svg id="Layer_1" data-name="Layer 1" xmlns="http://www.w3.org/2000/svg" viewBox="0 0 512 512"><defs><style>.cls-1{fill:#0cc87e;}.cls-2{fill:#fff;}</style></defs><rect class="cls-1" width="512" height="512"/><path class="cls-2" d="M138.78,165.2c0,43.12-3.32,86.59.78,129.34,6.26,66,71.91,113.62,134.23,101.72,70.93-13.55,112.77-75.69,97-144.14-17.44-75.89-116.5-114.54-176.29-69.7,3.31,10.25,7.72,20,9.34,30.12,1.57,9.9.35,20.25.35,32.89,5.87-5.55,9-8.79,12.37-11.63,23.13-19.24,55.54-19.3,79.1-.25,22.38,18.13,28.67,50.83,14.67,76.28-13.23,24.06-39.84,36-67.78,30.37-25.27-5.07-45.54-27.07-47.2-53.65-1.38-22-.28-44.21-1-66.31C193.33,187.2,170.52,164.53,138.78,165.2Zm27.92-15.48c15.1-.32,27.14-13.05,27-28.51A27.16,27.16,0,0,0,166.55,94c-.33,0-.66,0-1,0a27.78,27.78,0,0,0-27.21,28.29C138.76,137.51,151.64,150.05,166.7,149.72Z"/><path class="cls-2" d="M138.78,165.2c31.74-.67,54.58,22,55.6,55,.68,22.1-.43,44.28,1,66.3,1.66,26.59,21.93,48.56,47.2,53.65,28,5.61,54.55-6.31,67.78-30.37,14-25.45,7.72-58.14-14.67-76.28-23.53-19.05-55.95-19-79.09.25-3.42,2.85-6.5,6.09-12.38,11.63,0-12.62,1.25-23-.34-32.89-1.63-10.18-6-19.86-9.34-30.11,59.79-44.81,158.84-6.16,176.28,69.69,15.73,68.46-26.09,130.6-97,144.15-62.32,11.9-127.94-35.7-134.23-101.72C135.46,251.79,138.78,208.35,138.78,165.2Z"/><path class="cls-2" d="M166.7,149.72c-15,.33-27.92-12.13-28.32-27.41A27.72,27.72,0,0,1,165.58,94a27.17,27.17,0,0,1,28.08,26.22c0,.32,0,.63,0,1C193.82,136.67,181.78,149.4,166.7,149.72Z"/></svg>