<?xml version="1.0" encoding="UTF-8" standalone="no"?>
<!-- Created with Inkscape (http://www.inkscape.org/) -->

<svg
   width="152.26176mm"
   height="152.26176mm"
   viewBox="0 0 152.26176 152.26176"
   version="1.1"
   id="svg5"
   xml:space="preserve"
   xmlns="http://www.w3.org/2000/svg"
   xmlns:svg="http://www.w3.org/2000/svg"><defs
     id="defs2"><radialGradient
       id="a"
       cx="217.75999"
       cy="3290.99"
       r="4271.9199"
       gradientUnits="userSpaceOnUse"><stop
         offset=".09"
         stop-color="#fa8f21"
         id="stop115" /><stop
         offset=".78"
         stop-color="#d82d7e"
         id="stop117" /></radialGradient><radialGradient
       id="b"
       cx="2330.6101"
       cy="3182.95"
       r="3759.3301"
       gradientUnits="userSpaceOnUse"><stop
         offset=".64"
         stop-color="#8c3aaa"
         stop-opacity="0"
         id="stop120" /><stop
         offset="1"
         stop-color="#8c3aaa"
         id="stop122" /></radialGradient></defs><g
     id="layer1"
     transform="translate(-31.527142,-85.624855)"><rect
       style="fill:#ffffff;stroke-width:0.264583"
       id="rect61"
       width="152.26176"
       height="152.26176"
       x="31.527142"
       y="85.624855" /><g
       id="g146"
       transform="matrix(0.03147539,0,0,0.03147539,55.343989,110.41284)"><path
         d="M 853.2,3352.8 C 653.1,3343.7 544.4,3310.4 472.1,3282.2 376.3,3244.9 308,3200.5 236.1,3128.7 164.2,3056.9 119.7,2988.6 82.6,2892.8 54.4,2820.5 21.1,2711.8 12,2511.7 2,2295.4 0,2230.5 0,1682.5 0,1134.5 2.2,1069.7 11.9,853.2 21,653.1 54.5,544.6 82.5,472.1 119.8,376.3 164.3,308 236,236 307.8,164.2 376.1,119.6 472,82.5 544.3,54.3 653,21 853.1,11.9 1069.5,2 1134.5,0 1682.3,0 c 548,0 612.8,2.2 829.3,11.9 200.1,9.1 308.6,42.6 381.1,70.6 95.8,37.1 164.1,81.7 236,153.5 71.9,71.8 116.2,140.2 153.5,236 28.2,72.3 61.5,181 70.6,381.1 9.9,216.5 11.9,281.3 11.9,829.3 0,547.8 -2,612.8 -11.9,829.3 -9.1,200.1 -42.6,308.8 -70.6,381.1 -37.3,95.8 -81.7,164.1 -153.5,235.9 -71.8,71.8 -140.2,116.2 -236,153.5 -72.3,28.2 -181,61.5 -381.1,70.6 -216.3,9.9 -281.3,11.9 -829.3,11.9 -547.8,0 -612.8,-1.9 -829.1,-11.9"
         fill="url(#a)"
         id="path127"
         style="fill:url(#a)" /><path
         d="M 853.2,3352.8 C 653.1,3343.7 544.4,3310.4 472.1,3282.2 376.3,3244.9 308,3200.5 236.1,3128.7 164.2,3056.9 119.7,2988.6 82.6,2892.8 54.4,2820.5 21.1,2711.8 12,2511.7 2,2295.4 0,2230.5 0,1682.5 0,1134.5 2.2,1069.7 11.9,853.2 21,653.1 54.5,544.6 82.5,472.1 119.8,376.3 164.3,308 236,236 307.8,164.2 376.1,119.6 472,82.5 544.3,54.3 653,21 853.1,11.9 1069.5,2 1134.5,0 1682.3,0 c 548,0 612.8,2.2 829.3,11.9 200.1,9.1 308.6,42.6 381.1,70.6 95.8,37.1 164.1,81.7 236,153.5 71.9,71.8 116.2,140.2 153.5,236 28.2,72.3 61.5,181 70.6,381.1 9.9,216.5 11.9,281.3 11.9,829.3 0,547.8 -2,612.8 -11.9,829.3 -9.1,200.1 -42.6,308.8 -70.6,381.1 -37.3,95.8 -81.7,164.1 -153.5,235.9 -71.8,71.8 -140.2,116.2 -236,153.5 -72.3,28.2 -181,61.5 -381.1,70.6 -216.3,9.9 -281.3,11.9 -829.3,11.9 -547.8,0 -612.8,-1.9 -829.1,-11.9"
         fill="url(#b)"
         id="path129"
         style="fill:url(#b)" /><path
         d="m 1269.25,1689.52 c 0,-230.11 186.49,-416.7 416.6,-416.7 230.11,0 416.7,186.59 416.7,416.7 0,230.11 -186.59,416.7 -416.7,416.7 -230.11,0 -416.6,-186.59 -416.6,-416.7 m -225.26,0 c 0,354.5 287.36,641.86 641.86,641.86 354.5,0 641.86,-287.36 641.86,-641.86 0,-354.5 -287.36,-641.86 -641.86,-641.86 -354.5,0 -641.85,287.34 -641.85,641.86 m 1159.13,-667.31 a 150,150 0 1 0 150.06,-149.94 h -0.06 a 150.07,150.07 0 0 0 -150,149.94 M 1180.85,2707 c -121.87,-5.55 -188.11,-25.85 -232.13,-43 -58.36,-22.72 -100,-49.78 -143.78,-93.5 -43.78,-43.72 -70.88,-85.32 -93.5,-143.68 -17.16,-44 -37.46,-110.26 -43,-232.13 -6.06,-131.76 -7.27,-171.34 -7.27,-505.15 0,-333.81 1.31,-373.28 7.27,-505.15 5.55,-121.87 26,-188 43,-232.13 22.72,-58.36 49.78,-100 93.5,-143.78 43.72,-43.78 85.32,-70.88 143.78,-93.5 44,-17.16 110.26,-37.46 232.13,-43 131.76,-6.06 171.34,-7.27 505,-7.27 333.66,0 373.28,1.29 505.15,7.29 121.87,5.55 188,26 232.13,43 58.36,22.62 100,49.78 143.78,93.5 43.78,43.72 70.78,85.42 93.5,143.78 17.16,44 37.46,110.26 43,232.13 6.06,131.87 7.27,171.34 7.27,505.15 0,333.81 -1.21,373.28 -7.27,505.15 -5.55,121.87 -25.95,188.11 -43,232.13 -22.72,58.36 -49.78,100 -93.5,143.68 -43.72,43.68 -85.42,70.78 -143.78,93.5 -44,17.16 -110.26,37.46 -232.13,43 -131.76,6.06 -171.34,7.27 -505.15,7.27 -333.81,0 -373.28,-1.21 -505,-7.27 M 1170.5,447.09 c -133.07,6.06 -224,27.16 -303.41,58.06 -82.19,31.91 -151.86,74.72 -221.43,144.18 -69.57,69.46 -112.27,139.14 -144.18,221.43 -30.9,79.46 -52,170.34 -58.06,303.41 -6.16,133.28 -7.57,175.89 -7.57,515.35 0,339.46 1.41,382.07 7.57,515.35 6.06,133.08 27.16,223.95 58.06,303.41 31.91,82.19 74.62,152 144.18,221.43 69.56,69.43 139.14,112.18 221.43,144.18 79.56,30.9 170.34,52 303.41,58.06 133.35,6.06 175.89,7.57 515.35,7.57 339.46,0 382.07,-1.41 515.35,-7.57 133.08,-6.06 223.95,-27.16 303.41,-58.06 82.19,-32 151.86,-74.72 221.43,-144.18 69.57,-69.46 112.18,-139.24 144.18,-221.43 30.9,-79.46 52.1,-170.34 58.06,-303.41 6.06,-133.38 7.47,-175.89 7.47,-515.35 0,-339.46 -1.41,-382.07 -7.47,-515.35 -6.06,-133.08 -27.16,-224 -58.06,-303.41 -32,-82.19 -74.72,-151.86 -144.18,-221.43 -69.46,-69.57 -139.24,-112.27 -221.33,-144.18 -79.56,-30.9 -170.44,-52.1 -303.41,-58.06 -133.3,-6.09 -175.89,-7.57 -515.3,-7.57 -339.41,0 -382.1,1.41 -515.45,7.57"
         fill="#ffffff"
         id="path131" /></g></g></svg>
