<?xml version="1.0" encoding="UTF-8" standalone="no"?>
<!-- Created with Inkscape (http://www.inkscape.org/) -->

<svg
   width="147.14763mm"
   height="147.14763mm"
   viewBox="0 0 147.14763 147.14763"
   version="1.1"
   id="svg5"
   inkscape:version="1.1.2 (0a00cf5339, 2022-02-04)"
   sodipodi:docname="linkedin.svg"
   xmlns:inkscape="http://www.inkscape.org/namespaces/inkscape"
   xmlns:sodipodi="http://sodipodi.sourceforge.net/DTD/sodipodi-0.dtd"
   xmlns="http://www.w3.org/2000/svg"
   xmlns:svg="http://www.w3.org/2000/svg">
  <sodipodi:namedview
     id="namedview7"
     pagecolor="#ffffff"
     bordercolor="#666666"
     borderopacity="1.0"
     inkscape:pageshadow="2"
     inkscape:pageopacity="0.0"
     inkscape:pagecheckerboard="0"
     inkscape:document-units="mm"
     showgrid="false"
     inkscape:zoom="0.90583672"
     inkscape:cx="139.64989"
     inkscape:cy="322.3539"
     inkscape:window-width="1920"
     inkscape:window-height="947"
     inkscape:window-x="0"
     inkscape:window-y="32"
     inkscape:window-maximized="1"
     inkscape:current-layer="layer1" />
  <defs
     id="defs2" />
  <g
     inkscape:label="Layer 1"
     inkscape:groupmode="layer"
     id="layer1"
     transform="translate(-30.580412,-76.921494)">
    <rect
       style="fill:#0a66c2;stroke-width:1.32292;fill-opacity:1"
       id="rect846"
       width="147.14763"
       height="147.14763"
       x="30.580412"
       y="76.921494" />
    <g
       fill="none"
       id="g932"
       transform="matrix(0.49062762,0,0,0.49062762,41.86937,88.577547)"
       style="stroke-width:1.00075899;stroke-miterlimit:4;stroke-dasharray:none">
      <path
         d="M 0,18.338 C 0,8.216 8.474,0 18.92,0 H 237.08 C 247.53,0 256,8.216 256,18.338 V 237.665 C 256,247.79 247.53,256 237.08,256 H 18.92 C 8.475,256 0,247.791 0,237.668 V 18.335 Z"
         fill="#006699"
         id="path928"
         style="stroke-width:1.00075899;stroke-miterlimit:4;stroke-dasharray:none" />
      <path
         d="M 77.796,214.238 V 98.986 H 39.488 V 214.238 H 77.8 Z M 58.65,83.253 c 13.356,0 21.671,-8.85 21.671,-19.91 -0.25,-11.312 -8.315,-19.915 -21.417,-19.915 -13.111,0 -21.674,8.603 -21.674,19.914 0,11.06 8.312,19.91 21.169,19.91 h 0.248 z M 99,214.238 h 38.305 v -64.355 c 0,-3.44 0.25,-6.889 1.262,-9.346 2.768,-6.885 9.071,-14.012 19.656,-14.012 13.858,0 19.405,10.568 19.405,26.063 v 61.65 h 38.304 v -66.082 c 0,-35.399 -18.896,-51.872 -44.099,-51.872 -20.663,0 -29.738,11.549 -34.78,19.415 h 0.255 V 98.99 H 99.002 c 0.5,10.812 -0.003,115.252 -0.003,115.252 z"
         fill="#ffffff"
         id="path930"
         style="stroke-width:1.00075899;stroke-miterlimit:4;stroke-dasharray:none" />
    </g>
    <path
       style="fill:#0a66c2;fill-opacity:1;stroke-width:2.04866;stroke-miterlimit:4;stroke-dasharray:none"
       d="M 72.860813,517.75868 C 69.824946,517.30592 65.508135,516.16383 63.2679,515.2207 57.87012,512.94826 49.523885,505.14418 46.548912,499.58777 L 44.158069,495.12234 43.87095,282.73517 43.583831,70.347998 46.203379,64.704707 c 3.379475,-7.280399 9.64413,-13.485725 17.273845,-17.110257 l 6.071734,-2.884406 h 210.302802 210.3028 l 6.12211,2.871504 c 8.44952,3.963149 13.66797,8.866107 17.29261,16.24717 l 3.08012,6.272216 V 281.50769 492.91444 l -2.7133,5.47318 c -5.37095,10.83409 -14.3109,17.30413 -26.68408,19.31182 -8.19593,1.32988 -405.490253,1.38667 -414.391207,0.0593 z M 187.11982,334.49737 V 227.41405 h -35.87844 -35.87843 v 107.08332 107.08332 h 35.87843 35.87844 z m 110.61506,41.09685 0.33208,-65.98647 3.59817,-7.30676 c 4.43766,-9.01154 11.0571,-15.82309 19.03284,-19.58522 5.0496,-2.38187 7.65142,-2.86401 15.45533,-2.86401 8.0868,0 10.27115,0.43583 15.80604,3.15363 7.66991,3.76616 12.66864,10.03254 16.41784,20.58133 2.53936,7.14477 2.55174,7.45753 2.8755,72.58483 l 0.32516,65.40914 h 35.88695 35.88694 l -0.39562,-73.68878 c -0.38379,-71.48159 -0.46757,-73.96113 -2.79719,-82.78154 -8.57429,-32.46382 -26.45221,-52.01195 -54.92953,-60.06117 -11.43923,-3.23334 -33.68457,-3.54481 -44.66029,-0.6253 -15.80857,4.20504 -29.81241,13.747 -40.03199,27.27709 l -2.91845,3.86383 -0.0518,-14.07538 -0.0519,-14.07539 H 261.63653 225.7581 v 107.08332 107.08332 h 35.82233 35.82235 z M 165.1164,196.98082 c 12.06048,-3.48066 21.68186,-12.64558 25.34161,-24.13933 3.64566,-11.44945 0.26578,-27.1305 -7.83007,-36.32786 -14.66626,-16.66174 -46.98609,-16.42008 -62.16708,0.46484 -6.31403,7.02271 -8.93924,14.48634 -8.89973,25.30243 0.0611,16.72815 9.82787,29.71323 26.19663,34.82885 6.43494,2.01107 20.16781,1.94636 27.35864,-0.12893 z"
       id="path37027"
       transform="matrix(0.26458333,0,0,0.26458333,30.580412,76.921494)" />
  </g>
</svg>
