<?xml version="1.0" encoding="UTF-8" standalone="no"?>
<!-- Created with Inkscape (http://www.inkscape.org/) -->

<svg
   width="147.14763mm"
   height="147.14763mm"
   viewBox="0 0 147.14763 147.14763"
   version="1.1"
   id="svg5"
   inkscape:version="1.1.2 (0a00cf5339, 2022-02-04)"
   sodipodi:docname="mastodon.svg"
   xmlns:inkscape="http://www.inkscape.org/namespaces/inkscape"
   xmlns:sodipodi="http://sodipodi.sourceforge.net/DTD/sodipodi-0.dtd"
   xmlns="http://www.w3.org/2000/svg"
   xmlns:svg="http://www.w3.org/2000/svg">
  <sodipodi:namedview
     id="namedview7"
     pagecolor="#ffffff"
     bordercolor="#666666"
     borderopacity="1.0"
     inkscape:pageshadow="2"
     inkscape:pageopacity="0.0"
     inkscape:pagecheckerboard="0"
     inkscape:document-units="mm"
     showgrid="false"
     inkscape:zoom="0.90583672"
     inkscape:cx="131.92223"
     inkscape:cy="351.05664"
     inkscape:window-width="1920"
     inkscape:window-height="947"
     inkscape:window-x="0"
     inkscape:window-y="32"
     inkscape:window-maximized="1"
     inkscape:current-layer="layer1" />
  <defs
     id="defs2">
    <linearGradient
       id="paint0_linear_549_34"
       x1="37.0692"
       y1="0"
       x2="37.0692"
       y2="79"
       gradientUnits="userSpaceOnUse">
      <stop
         stop-color="#6364FF"
         id="stop13746" />
      <stop
         offset="1"
         stop-color="#563ACC"
         id="stop13748" />
    </linearGradient>
    <path
       id="SVGID_1_"
       d="M295.4231,5.9624c-53.2008,2.511-89.5372,11.0324-121.2896,23.4742      c-32.8697,12.8141-60.7333,29.9869-88.4515,57.8187c-27.7509,27.8481-44.7933,55.761-57.5099,88.6638      C15.8599,207.7525,7.5167,244.1062,5.1674,297.3398c-2.3325,53.3316-2.8674,70.3416-2.6074,206.116      C2.819,639.214,3.4182,656.2562,5.9614,709.6036c2.5431,53.1857,11.0327,89.5067,23.4744,121.2754      c12.8303,32.8701,29.9855,60.7183,57.8332,88.4531c27.8319,27.7349,55.7608,44.7613,88.6789,57.4949      c31.8009,12.296,68.1698,20.6715,121.3875,23.004c53.3304,2.3494,70.356,2.8675,206.0965,2.6085      c135.8048-0.2591,152.8314-0.8588,206.1618-3.3861c53.2008-2.5432,89.5046-11.0645,121.2896-23.4738      c32.8697-12.8631,60.7333-29.9868,88.4515-57.835c27.7183-27.8323,44.7607-55.7615,57.4783-88.6801      c12.3122-31.8013,20.6871-68.1707,23.0038-121.356c2.3325-53.3637,2.8842-70.4064,2.6242-206.1645      c-0.2591-135.7744-0.8741-152.7845-3.4014-206.0992c-2.5273-53.2341-11.0485-89.5388-23.4744-121.3238      c-12.8461-32.8701-29.9855-60.7024-57.8174-88.4532c-27.8319-27.7186-55.7607-44.7939-88.6789-57.4785      C797.2522,15.877,760.899,7.4851,707.6814,5.1847c-53.3304-2.3652-70.356-2.8833-206.145-2.6242      C365.7802,2.8196,348.7545,3.403,295.4231,5.9624 M301.2559,909.8388c-48.7464-2.1224-75.2168-10.2225-92.8585-17.0101      c-23.3607-9.04-40.0304-19.878-57.5752-37.293c-17.5121-17.4802-28.3827-34.1017-37.5031-57.4138      c-6.8532-17.6424-15.0985-44.081-17.3826-92.8276c-2.4788-52.6992-3.0454-68.5109-3.2887-202.017      c-0.2591-133.4735,0.2264-149.2852,2.5273-202.0329c2.0893-48.7144,10.2387-75.2178,17.0098-92.8439      c9.0393-23.3932,19.8446-40.0309,37.2925-57.5754c17.4795-17.545,34.1007-28.3831,57.4288-37.5036      c17.6258-6.8854,44.0646-15.0666,92.7942-17.3828c52.7312-2.4952,68.5258-3.0296,201.998-3.2887      c133.5039-0.2596,149.3153,0.2106,202.0633,2.5273c48.7128,2.1219,75.2158,10.1899,92.8259,17.0101      c23.3765,9.0395,40.0462,19.8128,57.5751,37.293c17.528,17.4802,28.3985,34.0691,37.5189,57.4459      c6.8848,17.5771,15.0659,44.0484,17.3668,92.7628c2.5104,52.7318,3.078,68.543,3.3203,202.017      c0.2591,133.5062-0.2264,149.3173-2.5431,202.0328c-2.1219,48.7466-10.2061,75.2341-17.0098,92.8923      c-9.0394,23.3447-19.8456,40.0146-37.3093,57.5596c-17.4627,17.4802-34.0839,28.3825-57.4288,37.5035      c-17.5932,6.8686-44.0636,15.0662-92.7615,17.3829c-52.7302,2.4784-68.5258,3.0454-202.0465,3.2887      C369.7975,912.6252,354.0029,912.1229,301.2559,909.8388 M708.865,235.2284c0.0643,33.1134,26.9885,59.9248,60.1014,59.86      c33.1288-0.0648,59.9403-26.9735,59.8918-60.0869c-0.0652-33.1134-26.9895-59.9406-60.1183-59.8758      C735.6112,175.1904,708.7997,202.115,708.865,235.2284 M245.771,502.9857c0.2749,141.801,115.441,256.4985,257.2071,256.2231      c141.7828-0.2753,256.5436-115.4104,256.2687-257.2109C758.9709,360.2458,643.789,245.483,501.9903,245.7584      C360.2232,246.0338,245.4951,361.2178,245.771,502.9857 M335.8263,502.8077c-0.1621-92.0336,74.3259-166.7975,166.342-166.9597      c92.0328-0.178,166.8116,74.278,166.9896,166.3279c0.179,92.0499-74.3091,166.7975-166.3578,166.976      C410.7841,669.3299,336.0043,594.8576,335.8263,502.8077" />
    <rect
       id="SVGID_00000096756851418762435920000001711687824209778822_"
       x="-37.9049"
       y="-36.6591"
       width="1080"
       height="1080.0143" />
    <rect
       id="SVGID_00000032622824924000771630000000461164216671436934_"
       x="-42.9048"
       y="-41.6595"
       width="1090"
       height="1090.015" />
    <rect
       id="SVGID_00000086685721139758078450000004425164077134485120_"
       x="-42.9048"
       y="-41.6595"
       width="1090"
       height="1090.015" />
  </defs>
  <g
     inkscape:label="Layer 1"
     inkscape:groupmode="layer"
     id="layer1"
     transform="translate(-30.580412,-76.921494)">
    <rect
       style="fill:#6364ff;stroke-width:1.32292;fill-opacity:1"
       id="rect846"
       width="147.14763"
       height="147.14763"
       x="30.580412"
       y="76.921494" />
    <g
       style="fill:#ffffff"
       id="g36797"
       transform="matrix(1.0562981,0,0,1.0562981,64.650535,109.25422)">
      <path
         d="M 73.7014,17.9592 C 72.5616,9.62034 65.1774,3.04876 56.424,1.77536 54.9472,1.56019 49.3517,0.7771 36.3901,0.7771 H 36.2933 C 23.3281,0.7771 20.5465,1.56019 19.0697,1.77536 10.56,3.01348 2.78877,8.91838 0.903306,17.356 -0.00357857,21.5113 -0.100361,26.1181 0.068112,30.3439 0.308275,36.404 0.354874,42.4535 0.91406,48.489 c 0.38658,4.009 1.06096,7.9861 2.01809,11.9015 1.79226,7.2312 9.04735,13.249 16.15545,15.704 7.6103,2.5603 15.7945,2.9854 23.6364,1.2276 0.8626,-0.1976 1.7158,-0.4268 2.5593,-0.6879 1.9034,-0.5961 4.1366,-1.2628 5.7783,-2.4339 0.0225,-0.0164 0.041,-0.0376 0.054,-0.0621 0.013,-0.0244 0.0203,-0.0514 0.0212,-0.079 v -5.8484 c -4e-4,-0.0258 -0.0066,-0.0512 -0.0183,-0.0743 -0.0116,-0.0231 -0.0283,-0.0433 -0.049,-0.0592 -0.0206,-0.0159 -0.0446,-0.027 -0.0701,-0.0326 -0.0256,-0.0056 -0.0521,-0.0055 -0.0776,3e-4 -5.0242,1.181 -10.1727,1.773 -15.3382,1.7637 -8.8896,0 -11.2805,-4.1518 -11.9652,-5.8802 -0.5503,-1.4938 -0.8998,-3.0521 -1.0395,-4.6351 -0.0014,-0.0265 0.0036,-0.0531 0.0145,-0.0774 0.0109,-0.0244 0.0276,-0.0458 0.0485,-0.0627 0.021,-0.0168 0.0457,-0.0285 0.0721,-0.0342 0.0264,-0.0057 0.0538,-0.0052 0.08,0.0015 4.9405,1.173 10.005,1.765 15.0873,1.7637 1.2223,0 2.441,0 3.6634,-0.0317 5.1115,-0.1411 10.499,-0.3986 15.5281,-1.3652 0.1255,-0.0246 0.2509,-0.0458 0.3585,-0.0776 7.9325,-1.4991 15.4815,-6.2047 16.2486,-18.1203 0.0287,-0.4691 0.1004,-4.9137 0.1004,-5.4005 0.0036,-1.6543 0.5413,-11.7357 -0.0789,-17.9298 z M 61.4925,47.6918 H 53.1514 V 27.5855 c 0,-4.2329 -1.7923,-6.3917 -5.4378,-6.3917 -4.0075,0 -6.0148,2.5538 -6.0148,7.5981 v 11.0055 h -8.291 V 28.7919 c 0,-5.0443 -2.0109,-7.5981 -6.0184,-7.5981 -3.624,0 -5.4342,2.1588 -5.4378,6.3917 v 20.1063 h -8.334 V 26.9752 c 0,-4.2329 1.0981,-7.5957 3.2942,-10.0884 2.2654,-2.4868 5.237,-3.7637 8.9255,-3.7637 4.2691,0 7.4952,1.6155 9.6459,4.8431 l 2.0755,3.4287 2.079,-3.4287 c 2.1507,-3.2276 5.3768,-4.8431 9.6388,-4.8431 3.6849,0 6.6564,1.2769 8.929,3.7637 2.1962,2.4904 3.2942,5.8532 3.2942,10.0884 z"
         fill="inherit"
         id="path36788" />
    </g>
  </g>
  <style
     type="text/css"
     id="style13809">
	.st0{fill:#1B9DF0;}
	.st1{fill:#FFFFFF;}
</style>
  <style
     type="text/css"
     id="style23952">
	.st0{clip-path:url(#SVGID_00000130622006894310625020000004174188710254592903_);}
	.st1{clip-path:url(#SVGID_00000051351915170632626820000013518756960088417417_);}
	.st2{clip-path:url(#SVGID_00000021817509185890717940000001189774779219633321_);}
</style>
</svg>
