<?xml version="1.0" encoding="UTF-8" standalone="no"?>
<!-- Created with Inkscape (http://www.inkscape.org/) -->

<svg
   width="147.14763mm"
   height="147.14763mm"
   viewBox="0 0 147.14763 147.14763"
   version="1.1"
   id="svg5"
   inkscape:version="1.1.2 (0a00cf5339, 2022-02-04)"
   sodipodi:docname="polywork.svg"
   xmlns:inkscape="http://www.inkscape.org/namespaces/inkscape"
   xmlns:sodipodi="http://sodipodi.sourceforge.net/DTD/sodipodi-0.dtd"
   xmlns="http://www.w3.org/2000/svg"
   xmlns:svg="http://www.w3.org/2000/svg">
  <sodipodi:namedview
     id="namedview7"
     pagecolor="#ffffff"
     bordercolor="#666666"
     borderopacity="1.0"
     inkscape:pageshadow="2"
     inkscape:pageopacity="0.0"
     inkscape:pagecheckerboard="0"
     inkscape:document-units="mm"
     showgrid="false"
     inkscape:zoom="0.90583672"
     inkscape:cx="131.92223"
     inkscape:cy="351.05664"
     inkscape:window-width="1920"
     inkscape:window-height="947"
     inkscape:window-x="0"
     inkscape:window-y="32"
     inkscape:window-maximized="1"
     inkscape:current-layer="layer1" />
  <defs
     id="defs2">
    <linearGradient
       id="paint0_linear_549_34"
       x1="37.0692"
       y1="0"
       x2="37.0692"
       y2="79"
       gradientUnits="userSpaceOnUse">
      <stop
         stop-color="#6364FF"
         id="stop13746" />
      <stop
         offset="1"
         stop-color="#563ACC"
         id="stop13748" />
    </linearGradient>
    <path
       id="SVGID_1_"
       d="M295.4231,5.9624c-53.2008,2.511-89.5372,11.0324-121.2896,23.4742      c-32.8697,12.8141-60.7333,29.9869-88.4515,57.8187c-27.7509,27.8481-44.7933,55.761-57.5099,88.6638      C15.8599,207.7525,7.5167,244.1062,5.1674,297.3398c-2.3325,53.3316-2.8674,70.3416-2.6074,206.116      C2.819,639.214,3.4182,656.2562,5.9614,709.6036c2.5431,53.1857,11.0327,89.5067,23.4744,121.2754      c12.8303,32.8701,29.9855,60.7183,57.8332,88.4531c27.8319,27.7349,55.7608,44.7613,88.6789,57.4949      c31.8009,12.296,68.1698,20.6715,121.3875,23.004c53.3304,2.3494,70.356,2.8675,206.0965,2.6085      c135.8048-0.2591,152.8314-0.8588,206.1618-3.3861c53.2008-2.5432,89.5046-11.0645,121.2896-23.4738      c32.8697-12.8631,60.7333-29.9868,88.4515-57.835c27.7183-27.8323,44.7607-55.7615,57.4783-88.6801      c12.3122-31.8013,20.6871-68.1707,23.0038-121.356c2.3325-53.3637,2.8842-70.4064,2.6242-206.1645      c-0.2591-135.7744-0.8741-152.7845-3.4014-206.0992c-2.5273-53.2341-11.0485-89.5388-23.4744-121.3238      c-12.8461-32.8701-29.9855-60.7024-57.8174-88.4532c-27.8319-27.7186-55.7607-44.7939-88.6789-57.4785      C797.2522,15.877,760.899,7.4851,707.6814,5.1847c-53.3304-2.3652-70.356-2.8833-206.145-2.6242      C365.7802,2.8196,348.7545,3.403,295.4231,5.9624 M301.2559,909.8388c-48.7464-2.1224-75.2168-10.2225-92.8585-17.0101      c-23.3607-9.04-40.0304-19.878-57.5752-37.293c-17.5121-17.4802-28.3827-34.1017-37.5031-57.4138      c-6.8532-17.6424-15.0985-44.081-17.3826-92.8276c-2.4788-52.6992-3.0454-68.5109-3.2887-202.017      c-0.2591-133.4735,0.2264-149.2852,2.5273-202.0329c2.0893-48.7144,10.2387-75.2178,17.0098-92.8439      c9.0393-23.3932,19.8446-40.0309,37.2925-57.5754c17.4795-17.545,34.1007-28.3831,57.4288-37.5036      c17.6258-6.8854,44.0646-15.0666,92.7942-17.3828c52.7312-2.4952,68.5258-3.0296,201.998-3.2887      c133.5039-0.2596,149.3153,0.2106,202.0633,2.5273c48.7128,2.1219,75.2158,10.1899,92.8259,17.0101      c23.3765,9.0395,40.0462,19.8128,57.5751,37.293c17.528,17.4802,28.3985,34.0691,37.5189,57.4459      c6.8848,17.5771,15.0659,44.0484,17.3668,92.7628c2.5104,52.7318,3.078,68.543,3.3203,202.017      c0.2591,133.5062-0.2264,149.3173-2.5431,202.0328c-2.1219,48.7466-10.2061,75.2341-17.0098,92.8923      c-9.0394,23.3447-19.8456,40.0146-37.3093,57.5596c-17.4627,17.4802-34.0839,28.3825-57.4288,37.5035      c-17.5932,6.8686-44.0636,15.0662-92.7615,17.3829c-52.7302,2.4784-68.5258,3.0454-202.0465,3.2887      C369.7975,912.6252,354.0029,912.1229,301.2559,909.8388 M708.865,235.2284c0.0643,33.1134,26.9885,59.9248,60.1014,59.86      c33.1288-0.0648,59.9403-26.9735,59.8918-60.0869c-0.0652-33.1134-26.9895-59.9406-60.1183-59.8758      C735.6112,175.1904,708.7997,202.115,708.865,235.2284 M245.771,502.9857c0.2749,141.801,115.441,256.4985,257.2071,256.2231      c141.7828-0.2753,256.5436-115.4104,256.2687-257.2109C758.9709,360.2458,643.789,245.483,501.9903,245.7584      C360.2232,246.0338,245.4951,361.2178,245.771,502.9857 M335.8263,502.8077c-0.1621-92.0336,74.3259-166.7975,166.342-166.9597      c92.0328-0.178,166.8116,74.278,166.9896,166.3279c0.179,92.0499-74.3091,166.7975-166.3578,166.976      C410.7841,669.3299,336.0043,594.8576,335.8263,502.8077" />
    <rect
       id="SVGID_00000096756851418762435920000001711687824209778822_"
       x="-37.9049"
       y="-36.6591"
       width="1080"
       height="1080.0143" />
    <rect
       id="SVGID_00000032622824924000771630000000461164216671436934_"
       x="-42.9048"
       y="-41.6595"
       width="1090"
       height="1090.015" />
    <rect
       id="SVGID_00000086685721139758078450000004425164077134485120_"
       x="-42.9048"
       y="-41.6595"
       width="1090"
       height="1090.015" />
  </defs>
  <g
     inkscape:label="Layer 1"
     inkscape:groupmode="layer"
     id="layer1"
     transform="translate(-30.580412,-76.921494)">
    <rect
       style="fill:#24252d;stroke-width:1.32292;fill-opacity:1"
       id="rect846"
       width="147.14763"
       height="147.14763"
       x="30.580412"
       y="76.921494" />
    <g
       style="fill:none"
       id="g24239"
       transform="matrix(2.6750178,0,0,2.6750178,56.643289,102.61671)">
      <path
         d="M 11.9736,34.0002 V 23.5386 h 10.8857 v 4.2499 c 0,3.3783 -2.7214,6.2117 -6.2048,6.2117 z"
         fill="#88cfb0"
         id="path24206" />
      <path
         d="M 23.0771,23.3204 V 12.2051 h 10.8856 v 4.9038 c 0,3.3782 -2.7214,6.2115 -6.2048,6.2115 z"
         fill="#f2c94c"
         id="path24208" />
      <path
         d="M 22.8593,12.2051 H 11.9736 v 11.0063 h 10.8857 z"
         fill="#bd83ce"
         id="path24210" />
      <path
         d="M 0.871094,11.9875 V 7.08361 c 0,-3.37821 2.721416,-6.21154 6.204816,-6.21154 H 11.7567 V 11.9875 Z"
         fill="#40be88"
         id="path24212" />
      <path
         d="M 23.0771,11.9875 V 0.87207 h 4.6808 c 3.3745,0 6.2048,2.72436 6.2048,6.21154 v 4.90389 z"
         fill="#ff7474"
         id="path24214" />
      <path
         d="M 22.8593,0.87207 H 11.9736 V 11.8785 h 10.8857 z"
         fill="#6776f9"
         id="path24216" />
      <path
         d="M 0.871094,27.7885 V 23.5386 H 11.7567 V 34.0002 H 7.07591 c -3.4834,0 -6.204816,-2.7244 -6.204816,-6.2117 z"
         fill="#37c2e2"
         id="path24218" />
      <path
         d="M 11.7567,12.2051 H 0.871094 V 23.2114 H 11.7567 Z"
         fill="#f2994a"
         id="path24220" />
      <path
         fill-rule="evenodd"
         clip-rule="evenodd"
         d="M 0,27.7884 V 7.08333 C 0,3.16026 3.15684,0 7.07567,0 H 27.7585 c 3.9188,0 7.0756,3.16026 7.0756,7.08333 V 17.109 c 0,3.923 -3.1568,7.0833 -7.0756,7.0833 h -4.0278 v 3.5961 c 0,3.9232 -3.1568,7.0834 -7.0758,7.0834 H 7.07567 C 3.15684,34.8718 0,31.7116 0,27.7884 Z M 10.8856,11.0064 H 1.85056 V 6.97436 c 0,-2.83333 2.28598,-5.23077 5.22511,-5.23077 h 3.80993 z m 16.8729,11.4422 h -3.8101 v -9.3717 h 9.0351 v 4.1411 c 0,2.8333 -2.2859,5.2306 -5.225,5.2306 z M 16.6549,33.1282 H 12.845 v -8.609 h 9.0351 v 3.3782 c 0,2.8333 -2.286,5.2308 -5.2252,5.2308 z M 12.845,22.4486 h 9.0351 V 13.0769 H 12.845 Z M 23.9484,11.0064 h 9.0351 V 7.08333 c 0,-2.94231 -2.3948,-5.23077 -5.225,-5.23077 h -3.8101 z m -2.0683,0 H 12.845 V 1.74359 h 9.0351 z M 1.7417,24.4102 v 3.3782 c 0,2.9423 2.39484,5.2308 5.22512,5.2308 h 3.91878 v -8.609 z m 9.1439,-1.9616 H 1.7417 v -9.3717 h 9.1439 z"
         fill="#2f2f3a"
         id="path24222" />
    </g>
  </g>
  <style
     type="text/css"
     id="style13809">
	.st0{fill:#1B9DF0;}
	.st1{fill:#FFFFFF;}
</style>
  <style
     type="text/css"
     id="style23952">
	.st0{clip-path:url(#SVGID_00000130622006894310625020000004174188710254592903_);}
	.st1{clip-path:url(#SVGID_00000051351915170632626820000013518756960088417417_);}
	.st2{clip-path:url(#SVGID_00000021817509185890717940000001189774779219633321_);}
</style>
</svg>
