<?xml version="1.0" encoding="UTF-8" standalone="no"?>
<!-- Created with Inkscape (http://www.inkscape.org/) -->

<svg
   width="90.208275mm"
   height="90.208275mm"
   viewBox="0 0 90.208285 90.208281"
   version="1.1"
   id="svg5"
   inkscape:version="1.1.2 (0a00cf5339, 2022-02-04)"
   sodipodi:docname="whatsapp.svg"
   xmlns:inkscape="http://www.inkscape.org/namespaces/inkscape"
   xmlns:sodipodi="http://sodipodi.sourceforge.net/DTD/sodipodi-0.dtd"
   xmlns="http://www.w3.org/2000/svg"
   xmlns:svg="http://www.w3.org/2000/svg">
  <sodipodi:namedview
     id="namedview7"
     pagecolor="#ffffff"
     bordercolor="#666666"
     borderopacity="1.0"
     inkscape:pageshadow="2"
     inkscape:pageopacity="0.0"
     inkscape:pagecheckerboard="0"
     inkscape:document-units="mm"
     showgrid="false"
     inkscape:zoom="1.3808221"
     inkscape:cx="60.471222"
     inkscape:cy="196.25989"
     inkscape:window-width="1920"
     inkscape:window-height="947"
     inkscape:window-x="0"
     inkscape:window-y="32"
     inkscape:window-maximized="1"
     inkscape:current-layer="layer1" />
  <defs
     id="defs2" />
  <g
     inkscape:label="Layer 1"
     inkscape:groupmode="layer"
     id="layer1"
     transform="translate(-41.997002,-78.209167)">
    <rect
       style="fill:#25d868;stroke-width:0;fill-opacity:1"
       id="rect846"
       width="90.208275"
       height="90.208275"
       x="41.997002"
       y="78.209167" />
    <path
       fill-rule="evenodd"
       clip-rule="evenodd"
       d="m 109.88494,101.42714 c -5.75614,-5.760953 -13.411321,-8.935212 -21.567088,-8.938449 -16.804777,0 -30.481785,13.671769 -30.488511,30.476639 -0.0019,5.37172 1.401731,10.61533 4.069618,15.23724 l -4.325258,15.79401 16.162403,-4.23823 c 4.453036,2.42802 9.466836,3.70762 14.569546,3.70977 h 0.0125 c 16.80303,0 30.48128,-13.67352 30.48809,-30.47846 0.003,-8.14389 -3.16504,-15.80157 -8.92134,-21.56252 m -21.56675,46.89327 h -0.01036 c -4.547024,-0.002 -9.006949,-1.2229 -12.897564,-3.53103 l -0.925417,-0.54905 -9.590869,2.51512 2.560035,-9.3481 -0.6026,-0.95838 c -2.53662,-4.03341 -3.876417,-8.69527 -3.87443,-13.48173 0.0056,-13.96752 11.373444,-25.330921 25.351266,-25.330921 6.768384,0.0028 13.130939,2.641071 17.915329,7.429361 4.78439,4.7883 7.41773,11.1531 7.41517,17.92198 -0.006,13.96852 -11.37352,25.33275 -25.340546,25.33275 m 13.899856,-18.97268 c -0.76185,-0.38118 -4.50717,-2.22362 -5.205503,-2.47775 -0.69825,-0.25415 -1.20604,-0.38118 -1.713998,0.38125 -0.507791,0.76235 -1.967725,2.47775 -2.412247,2.98596 -0.44427,0.50829 -0.888633,0.57188 -1.650478,0.19063 -0.761769,-0.38118 -3.21636,-1.18528 -6.126182,-3.77986 -2.264543,-2.01919 -3.793558,-4.51331 -4.237912,-5.27566 -0.444354,-0.76243 -0.0472,-1.17466 0.334096,-1.55425 0.34265,-0.34124 0.761769,-0.88946 1.142696,-1.33424 0.380834,-0.44469 0.507781,-0.76234 0.761676,-1.27055 0.25398,-0.50828 0.127032,-0.95305 -0.06344,-1.33423 -0.190468,-0.38117 -1.713914,-4.12964 -2.34882,-5.65442 -0.618291,-1.48501 -1.246391,-1.28409 -1.713992,-1.30734 -0.44386,-0.0221 -0.952228,-0.0269 -1.460019,-0.0269 -0.507874,0 -1.333155,0.19063 -2.031488,0.95298 -0.698258,0.76242 -2.666142,2.60486 -2.666142,6.35326 0,3.74839 2.729653,7.36966 3.11058,7.87795 0.380843,0.50829 5.371721,8.20059 13.013635,11.49931 1.81753,0.7846 3.236529,1.25311 4.342852,1.60432 1.825002,0.57943 3.485695,0.49766 4.798345,0.30163 1.463582,-0.2186 4.507081,-1.84235 5.141981,-3.62127 0.63482,-1.77893 0.63482,-3.3037 0.44435,-3.62137 -0.19037,-0.31766 -0.69824,-0.50828 -1.46,-0.88954"
       id="path2116"
       style="fill:#ffffff;fill-opacity:1;stroke-width:0.0830263" />
  </g>
</svg>
